M48
; DRILL file {KiCad 9.0.2} date 2025-11-21T05:06:26-0800
; FORMAT={-:-/ absolute / metric / decimal}
; #@! TF.CreationDate,2025-11-21T05:06:26-08:00
; #@! TF.GenerationSoftware,Kicad,Pcbnew,9.0.2
; #@! TF.FileFunction,Plated,1,2,PTH
FMAT,2
METRIC
; #@! TA.AperFunction,Plated,PTH,ViaDrill
T1C0.200
; #@! TA.AperFunction,Plated,PTH,ComponentDrill
T2C0.200
; #@! TA.AperFunction,Plated,PTH,ViaDrill
T3C0.300
; #@! TA.AperFunction,Plated,PTH,ViaDrill
T4C0.400
; #@! TA.AperFunction,Plated,PTH,ComponentDrill
T5C0.650
; #@! TA.AperFunction,Plated,PTH,ComponentDrill
T6C0.700
; #@! TA.AperFunction,Plated,PTH,ComponentDrill
T7C0.750
; #@! TA.AperFunction,Plated,PTH,ViaDrill
T8C0.800
; #@! TA.AperFunction,Plated,PTH,ComponentDrill
T9C1.200
; #@! TA.AperFunction,Plated,PTH,ComponentDrill
T10C1.700
; #@! TA.AperFunction,Plated,PTH,ViaDrill
T11C3.200
%
G90
G05
T1
X112.7Y-94.9
X112.8Y-97.3
X142.342Y-98.915
X142.62Y-97.9
T2
X112.22Y-81.81
X112.22Y-83.21
X112.92Y-81.11
X112.92Y-82.51
X112.92Y-83.91
X113.62Y-81.81
X113.62Y-83.21
X114.32Y-81.11
X114.32Y-82.51
X114.32Y-83.91
X115.02Y-81.81
X115.02Y-83.21
T3
X70.11Y-86.06
X71.31Y-69.31
X72.25Y-87.03
X74.68Y-86.21
X74.78Y-71.27
X75.37Y-92.9
X79.26Y-81.38
X80.24Y-90.36
X80.39Y-83.08
X80.65Y-89.14
X81.431Y-76.195
X81.812Y-95.575
X83.4Y-84.1
X84.05Y-87.35
X84.657Y-77.338
X84.672Y-81.254
X84.805Y-80.485
X84.9Y-84.1
X85.064Y-94.432
X85.19Y-76.71
X85.26Y-78.15
X85.35Y-91.182
X85.568Y-90.532
X85.6Y-93.5
X85.7Y-95.2
X86.88Y-75.43
X87.3Y-89.5
X87.54Y-87.52
X87.9Y-80.4
X87.91Y-93.21
X87.91Y-94.21
X88.0Y-84.1
X88.569Y-79.268
X89.5Y-84.0
X90.61Y-68.34
X90.63Y-70.03
X90.65Y-72.05
X91.1Y-98.31
X91.14Y-97.54
X91.3Y-101.2
X91.972Y-79.343
X92.925Y-92.995
X93.23Y-100.88
X95.3Y-87.31
X95.4Y-75.2
X96.11Y-78.27
X96.465Y-91.715
X96.5Y-75.2
X96.5Y-97.25
X96.7Y-121.2
X97.0Y-84.5
X97.078Y-119.426
X97.2Y-96.5
X97.25Y-95.25
X97.4Y-83.6
X97.76Y-78.42
X97.9Y-75.1
X98.0Y-122.8
X98.195Y-118.131
X98.25Y-90.0
X98.5Y-94.7
X98.5Y-117.318
X98.6Y-114.0
X98.6Y-115.7
X98.703Y-87.32
X99.1Y-122.6
X100.0Y-93.2
X100.142Y-82.875
X100.32Y-80.62
X100.4Y-74.0
X100.4Y-122.6
X100.5Y-114.1
X100.761Y-82.266
X101.0Y-74.5
X101.1Y-115.3
X101.132Y-90.022
X101.345Y-81.656
X101.688Y-89.43
X101.7Y-91.0
X101.7Y-122.8
X101.734Y-103.365
X101.795Y-78.982
X101.904Y-98.115
X102.005Y-95.813
X102.261Y-88.84
X102.46Y-85.65
X102.523Y-79.564
X102.861Y-88.23
X103.119Y-80.148
X103.174Y-104.846
X103.3Y-122.6
X103.39Y-85.62
X103.403Y-87.64
X103.529Y-94.229
X103.76Y-84.25
X103.8Y-91.1
X103.9Y-92.6
X103.95Y-87.057
X104.445Y-86.428
X104.6Y-115.2
X104.706Y-78.057
X104.9Y-114.0
X105.0Y-93.9
X105.0Y-122.2
X106.349Y-104.77
X106.8Y-122.8
X106.9Y-95.9
X107.0Y-114.9
X107.2Y-113.4
X107.3Y-94.1
X108.3Y-122.1
X108.33Y-85.25
X108.4Y-95.0
X108.4Y-99.6
X108.4Y-120.0
X108.4Y-121.3
X108.416Y-105.243
X108.8Y-106.6
X109.27Y-81.1
X109.6Y-74.8
X110.4Y-116.0
X111.1Y-107.8
X111.15Y-117.1
X111.2Y-114.4
X111.21Y-76.23
X111.6Y-98.7
X111.66Y-100.35
X112.013Y-90.648
X112.07Y-74.53
X112.165Y-107.945
X112.165Y-115.362
X113.1Y-95.762
X113.11Y-99.97
X113.156Y-107.971
X113.172Y-105.511
X113.207Y-110.561
X113.3Y-113.6
X113.308Y-90.622
X113.41Y-76.76
X113.47Y-98.62
X113.5Y-103.9
X114.26Y-115.72
X114.4Y-98.5
X114.477Y-90.673
X114.502Y-113.228
X114.58Y-74.84
X114.817Y-117.611
X115.075Y-118.893
X115.1Y-98.5
X115.696Y-90.622
X115.8Y-94.1
X116.05Y-76.73
X116.12Y-100.38
X116.144Y-116.043
X116.45Y-118.35
X116.7Y-95.862
X116.8Y-98.5
X116.925Y-115.874
X117.05Y-90.61
X117.31Y-74.81
X117.38Y-100.94
X117.4Y-117.8
X117.61Y-81.94
X117.9Y-96.362
X118.2Y-118.5
X118.312Y-90.572
X118.4Y-107.0
X118.5Y-103.6
X118.53Y-83.51
X118.6Y-99.7
X118.8Y-95.9
X118.98Y-75.93
X119.5Y-107.8
X119.51Y-86.92
X119.582Y-90.495
X119.72Y-83.06
X119.8Y-97.3
X119.9Y-94.6
X120.0Y-102.8
X120.32Y-74.34
X120.5Y-95.4
X120.7Y-102.3
X120.878Y-90.546
X121.0Y-97.4
X121.1Y-96.6
X121.145Y-115.216
X121.19Y-79.97
X121.19Y-87.27
X121.4Y-88.6
X121.7Y-114.6
X122.053Y-74.747
X122.1Y-79.18
X122.173Y-112.841
X122.2Y-94.7
X122.2Y-113.9
X122.22Y-80.91
X122.25Y-77.35
X122.31Y-76.01
X122.4Y-96.0
X122.47Y-84.94
X122.49Y-83.637
X122.55Y-86.2
X122.7Y-100.0
X123.1Y-103.1
X123.4Y-106.8
X123.674Y-111.222
X123.9Y-104.0
X124.4Y-100.1
X124.4Y-106.5
X124.5Y-97.6
X124.5Y-107.7
X125.246Y-91.257
X125.48Y-82.38
X125.53Y-81.1
X125.9Y-74.7
X126.034Y-96.007
X127.5Y-100.0
X127.6Y-97.5
X129.209Y-96.21
X129.209Y-104.5
X130.707Y-103.061
X130.987Y-97.836
X132.2Y-99.8
X133.1Y-97.4
X133.6Y-99.9
X134.8Y-97.5
X139.2Y-97.65
X139.2Y-100.0
X141.32Y-97.63
X141.52Y-100.06
X142.2Y-103.6
X142.8Y-94.8
X143.0Y-100.2
X143.4Y-105.0
X144.17Y-100.66
X144.2Y-94.0
X144.335Y-103.183
X145.465Y-104.364
X145.6Y-93.6
X146.659Y-95.753
X146.735Y-103.183
X147.2Y-105.0
X147.446Y-102.002
X147.852Y-96.896
X148.0Y-94.6
X148.4Y-103.4
X148.787Y-100.676
T4
X77.82Y-80.96
X78.846Y-90.298
X84.92Y-73.57
X86.4Y-84.0
X87.18Y-97.42
X88.1Y-98.493
X88.433Y-77.993
X88.891Y-92.151
X110.27Y-91.13
X121.233Y-113.686
X126.567Y-108.301
T7
X71.01Y-90.54
X71.01Y-92.54
X71.01Y-94.54
X71.01Y-96.54
X71.01Y-98.54
X71.01Y-100.54
X71.97Y-72.34
X71.97Y-74.34
X71.97Y-76.34
X71.97Y-78.34
X71.97Y-80.34
X71.97Y-82.34
X77.81Y-69.44
X78.34Y-101.93
X79.81Y-69.44
X80.34Y-101.93
X81.81Y-69.44
X82.34Y-101.93
X83.81Y-69.44
X84.34Y-101.93
X85.81Y-69.44
X86.34Y-101.93
X87.81Y-69.44
X88.34Y-101.93
X135.68Y-78.98
X135.68Y-80.98
X135.68Y-82.98
X135.68Y-84.98
T8
X108.051Y-111.018
T9
X63.92Y-107.2
X63.92Y-111.2
T10
X68.15Y-107.16
X68.15Y-110.91
X68.15Y-114.66
T11
X64.0Y-73.0
X64.0Y-119.5
X144.0Y-73.0
X144.0Y-119.5
T5
G00X112.705Y-120.5
M15
G01X112.705Y-120.1
M16
G05
G00X117.545Y-120.5
M15
G01X117.545Y-120.1
M16
G05
T6
G00X112.395Y-123.55
M15
G01X112.395Y-123.05
M16
G05
G00X117.855Y-123.55
M15
G01X117.855Y-123.05
M16
G05
M30
