%TF.GenerationSoftware,KiCad,Pcbnew,9.0.2*%
%TF.CreationDate,2025-11-21T05:06:22-08:00*%
%TF.ProjectId,Rover,526f7665-722e-46b6-9963-61645f706362,rev?*%
%TF.SameCoordinates,Original*%
%TF.FileFunction,Copper,L2,Bot*%
%TF.FilePolarity,Positive*%
%FSLAX46Y46*%
G04 Gerber Fmt 4.6, Leading zero omitted, Abs format (unit mm)*
G04 Created by KiCad (PCBNEW 9.0.2) date 2025-11-21 05:06:22*
%MOMM*%
%LPD*%
G01*
G04 APERTURE LIST*
G04 Aperture macros list*
%AMRoundRect*
0 Rectangle with rounded corners*
0 $1 Rounding radius*
0 $2 $3 $4 $5 $6 $7 $8 $9 X,Y pos of 4 corners*
0 Add a 4 corners polygon primitive as box body*
4,1,4,$2,$3,$4,$5,$6,$7,$8,$9,$2,$3,0*
0 Add four circle primitives for the rounded corners*
1,1,$1+$1,$2,$3*
1,1,$1+$1,$4,$5*
1,1,$1+$1,$6,$7*
1,1,$1+$1,$8,$9*
0 Add four rect primitives between the rounded corners*
20,1,$1+$1,$2,$3,$4,$5,0*
20,1,$1+$1,$4,$5,$6,$7,0*
20,1,$1+$1,$6,$7,$8,$9,0*
20,1,$1+$1,$8,$9,$2,$3,0*%
G04 Aperture macros list end*
%TA.AperFunction,HeatsinkPad*%
%ADD10O,1.350000X1.700000*%
%TD*%
%TA.AperFunction,HeatsinkPad*%
%ADD11O,1.100000X1.500000*%
%TD*%
%TA.AperFunction,HeatsinkPad*%
%ADD12C,0.600000*%
%TD*%
%TA.AperFunction,ComponentPad*%
%ADD13O,1.200000X1.750000*%
%TD*%
%TA.AperFunction,ComponentPad*%
%ADD14RoundRect,0.250000X-0.350000X-0.625000X0.350000X-0.625000X0.350000X0.625000X-0.350000X0.625000X0*%
%TD*%
%TA.AperFunction,ComponentPad*%
%ADD15O,1.750000X1.200000*%
%TD*%
%TA.AperFunction,ComponentPad*%
%ADD16RoundRect,0.250000X0.625000X-0.350000X0.625000X0.350000X-0.625000X0.350000X-0.625000X-0.350000X0*%
%TD*%
%TA.AperFunction,ComponentPad*%
%ADD17RoundRect,0.250000X-0.625000X0.350000X-0.625000X-0.350000X0.625000X-0.350000X0.625000X0.350000X0*%
%TD*%
%TA.AperFunction,ComponentPad*%
%ADD18C,2.500000*%
%TD*%
%TA.AperFunction,ComponentPad*%
%ADD19C,2.900000*%
%TD*%
%TA.AperFunction,ViaPad*%
%ADD20C,0.600000*%
%TD*%
%TA.AperFunction,ViaPad*%
%ADD21C,6.000000*%
%TD*%
%TA.AperFunction,ViaPad*%
%ADD22C,0.800000*%
%TD*%
%TA.AperFunction,ViaPad*%
%ADD23C,1.500000*%
%TD*%
%TA.AperFunction,ViaPad*%
%ADD24C,0.500000*%
%TD*%
%TA.AperFunction,Conductor*%
%ADD25C,0.200000*%
%TD*%
%TA.AperFunction,Conductor*%
%ADD26C,0.400000*%
%TD*%
%TA.AperFunction,Conductor*%
%ADD27C,0.600000*%
%TD*%
%TA.AperFunction,Conductor*%
%ADD28C,0.150000*%
%TD*%
G04 APERTURE END LIST*
D10*
%TO.P,J1,6,Shield*%
%TO.N,unconnected-(J1-Shield-Pad6)*%
X112395000Y-123300000D03*
D11*
X112705000Y-120300000D03*
X117545000Y-120300000D03*
D10*
X117855000Y-123300000D03*
%TD*%
D12*
%TO.P,U1,41,GND*%
%TO.N,GND*%
X112220000Y-81810000D03*
X112220000Y-83210000D03*
X112920000Y-81110000D03*
X112920000Y-82510000D03*
X112920000Y-83910000D03*
X113620000Y-81810000D03*
X113620000Y-83210000D03*
X114320000Y-81110000D03*
X114320000Y-82510000D03*
X114320000Y-83910000D03*
X115020000Y-81810000D03*
X115020000Y-83210000D03*
%TD*%
D13*
%TO.P,M4,1,GND*%
%TO.N,GND*%
X88340000Y-101930000D03*
%TO.P,M4,2,H1*%
%TO.N,H1 4*%
X86340000Y-101930000D03*
%TO.P,M4,3,H2*%
%TO.N,H2 4*%
X84340000Y-101930000D03*
%TO.P,M4,4,VDD*%
%TO.N,3V3*%
X82340000Y-101930000D03*
%TO.P,M4,5,M+*%
%TO.N,Net-(M4-M+)*%
X80340000Y-101930000D03*
D14*
%TO.P,M4,6,M-*%
%TO.N,Net-(M4-M-)*%
X78340000Y-101930000D03*
%TD*%
D15*
%TO.P,M3,1,GND*%
%TO.N,GND*%
X71010000Y-90540000D03*
%TO.P,M3,2,H1*%
%TO.N,H1 3*%
X71010000Y-92540000D03*
%TO.P,M3,3,H2*%
%TO.N,H2 3*%
X71010000Y-94540000D03*
%TO.P,M3,4,VDD*%
%TO.N,3V3*%
X71010000Y-96540000D03*
%TO.P,M3,5,M+*%
%TO.N,Net-(M3-M+)*%
X71010000Y-98540000D03*
D16*
%TO.P,M3,6,M-*%
%TO.N,Net-(M3-M-)*%
X71010000Y-100540000D03*
%TD*%
D17*
%TO.P,M2,6,M-*%
%TO.N,Net-(M2-M-)*%
X71970000Y-72340000D03*
D15*
%TO.P,M2,5,M+*%
%TO.N,Net-(M2-M+)*%
X71970000Y-74340000D03*
%TO.P,M2,4,VDD*%
%TO.N,3V3*%
X71970000Y-76340000D03*
%TO.P,M2,3,H2*%
%TO.N,H2 2*%
X71970000Y-78340000D03*
%TO.P,M2,2,H1*%
%TO.N,H1 2*%
X71970000Y-80340000D03*
%TO.P,M2,1,GND*%
%TO.N,GND*%
X71970000Y-82340000D03*
%TD*%
D13*
%TO.P,M1,1,GND*%
%TO.N,GND*%
X87810000Y-69440000D03*
%TO.P,M1,2,H1*%
%TO.N,H1 1*%
X85810000Y-69440000D03*
%TO.P,M1,3,H2*%
%TO.N,H2 1*%
X83810000Y-69440000D03*
%TO.P,M1,4,VDD*%
%TO.N,3V3*%
X81810000Y-69440000D03*
%TO.P,M1,5,M+*%
%TO.N,Net-(M1-M+)*%
X79810000Y-69440000D03*
D14*
%TO.P,M1,6,M-*%
%TO.N,Net-(M1-M-)*%
X77810000Y-69440000D03*
%TD*%
D18*
%TO.P,B1,1,GND*%
%TO.N,GND*%
X63920000Y-111200000D03*
%TO.P,B1,2,Vin*%
%TO.N,BATTERY*%
X63920000Y-107200000D03*
%TD*%
D19*
%TO.P,SW1,1,Vin*%
%TO.N,BATTERY*%
X68150000Y-107160000D03*
%TO.P,SW1,2,Load*%
%TO.N,VM*%
X68150000Y-110910000D03*
%TO.P,SW1,3,GND*%
%TO.N,GND*%
X68150000Y-114660000D03*
%TD*%
D17*
%TO.P,S1,1,VCC*%
%TO.N,3V3*%
X135680000Y-78980000D03*
D15*
%TO.P,S1,2,TRIG*%
%TO.N,TRIG*%
X135680000Y-80980000D03*
%TO.P,S1,3,ECHO*%
%TO.N,ECHO*%
X135680000Y-82980000D03*
%TO.P,S1,4,GND*%
%TO.N,GND*%
X135680000Y-84980000D03*
%TD*%
D20*
%TO.N,GND*%
X75370000Y-92900000D03*
D21*
%TO.N,*%
X144000000Y-119500000D03*
X64000000Y-119500000D03*
X64000000Y-73000000D03*
X144000000Y-73000000D03*
D20*
%TO.N,Net-(Q2-C)*%
X125246400Y-91257400D03*
X126033800Y-96007200D03*
%TO.N,GND*%
X90650000Y-72050000D03*
X87900000Y-80400000D03*
X127600000Y-97500000D03*
X143000000Y-100200000D03*
X123900000Y-104000000D03*
X89500000Y-84000000D03*
X100500000Y-114100000D03*
X101000000Y-74500000D03*
X112070000Y-74530000D03*
X106900000Y-95900000D03*
X116450000Y-118350000D03*
X122052600Y-74747400D03*
X146658600Y-95753200D03*
X98600000Y-114000000D03*
X113110000Y-99970000D03*
X103173800Y-104846400D03*
X87910000Y-94210000D03*
X127500000Y-100000000D03*
X91100000Y-98310000D03*
D22*
X78845509Y-90297561D03*
D20*
X120700000Y-102300000D03*
X85568200Y-90531800D03*
X123100000Y-103100000D03*
X70110000Y-86060000D03*
X105000000Y-93900000D03*
X108400000Y-120000000D03*
X118400000Y-107000000D03*
X96464600Y-91714600D03*
X87540000Y-87520000D03*
X97760000Y-78420000D03*
X81431400Y-76195200D03*
X117400000Y-117800000D03*
X109270000Y-81100000D03*
X147446000Y-102001600D03*
X72250000Y-87030000D03*
X122700000Y-100000000D03*
X121190000Y-79970000D03*
X90610000Y-68340000D03*
X79260000Y-81380000D03*
X147200000Y-105000000D03*
X121100000Y-96600000D03*
X148787200Y-100675800D03*
X118980000Y-75930000D03*
X121000000Y-97400000D03*
X97250000Y-95250000D03*
X85260000Y-78150000D03*
X87300000Y-89500000D03*
X123400000Y-106800000D03*
X84805000Y-80485000D03*
X113470000Y-98620000D03*
X116050000Y-76730000D03*
X117900000Y-96362500D03*
X100000000Y-93200000D03*
X132200000Y-99800000D03*
X133600000Y-99900000D03*
X85700000Y-95200000D03*
X97400000Y-83600000D03*
X85063600Y-94431800D03*
X102005400Y-95812800D03*
X98195400Y-118130600D03*
X84657200Y-77338200D03*
X103300000Y-122600000D03*
X111660000Y-100350000D03*
X145600000Y-93600000D03*
X144200000Y-94000000D03*
X97200000Y-96500000D03*
X120320000Y-74340000D03*
X143400000Y-105000000D03*
X144170000Y-100660000D03*
X130707400Y-103060600D03*
D22*
X84920000Y-73570000D03*
D20*
X98600000Y-115700000D03*
X98500000Y-94700000D03*
X105000000Y-122200000D03*
X111150000Y-117100000D03*
X100400000Y-122600000D03*
X97900000Y-75100000D03*
X117380000Y-100940000D03*
X119720000Y-83060000D03*
X83400000Y-84100000D03*
X118530000Y-83510000D03*
X107200000Y-113400000D03*
X142200000Y-103600000D03*
X119900000Y-94600000D03*
X130986800Y-97836000D03*
X85190000Y-76710000D03*
X119510000Y-86920000D03*
X139200000Y-97650000D03*
X142800000Y-94800000D03*
X141520000Y-100060000D03*
X84672470Y-81253748D03*
D22*
X88100000Y-98493000D03*
D20*
X111200000Y-114400000D03*
X117310000Y-74810000D03*
X144334800Y-103183000D03*
X81812400Y-95575400D03*
X97077800Y-119426000D03*
X114502200Y-113228400D03*
X104600000Y-115200000D03*
X147852400Y-96896200D03*
X145464800Y-104363800D03*
X96500000Y-75200000D03*
X121144900Y-115216200D03*
X116120000Y-100380000D03*
X98000000Y-122800000D03*
X122100000Y-79180000D03*
X134800000Y-97500000D03*
X141320000Y-97630000D03*
X101100000Y-115300000D03*
X120500000Y-95400000D03*
X119500000Y-107800000D03*
X90630000Y-70030000D03*
X108330000Y-85250000D03*
X99100000Y-122600000D03*
X93230000Y-100880000D03*
X113300000Y-113600000D03*
X98500200Y-117318200D03*
X117610000Y-81940000D03*
X87910000Y-93210000D03*
X119800000Y-97300000D03*
X101733800Y-103365400D03*
X88568800Y-79267958D03*
X108400000Y-95000000D03*
X124400000Y-100100000D03*
X107300000Y-94100000D03*
X102460000Y-85650000D03*
X96500000Y-97250000D03*
X101903800Y-98115400D03*
X129208800Y-96210400D03*
X84050000Y-87350000D03*
X88000000Y-84100000D03*
X124500000Y-107700000D03*
X110400000Y-116000000D03*
X96700000Y-121200000D03*
X118800000Y-95900000D03*
X86880000Y-75430000D03*
X114400000Y-98500000D03*
X133100000Y-97400000D03*
X80390000Y-83080000D03*
X103760000Y-84250000D03*
X121400000Y-88600000D03*
X80240000Y-90360000D03*
X114580000Y-74840000D03*
D22*
X77820000Y-80960000D03*
D20*
X103390000Y-85620000D03*
X124500000Y-97600000D03*
X121190000Y-87270000D03*
X84900000Y-84100000D03*
X113410000Y-76760000D03*
X111210000Y-76230000D03*
X100400000Y-74000000D03*
X74680000Y-86210000D03*
X108400000Y-121300000D03*
X100320000Y-80620000D03*
X97000000Y-84500000D03*
X85600000Y-93500000D03*
X122200000Y-94700000D03*
X108300000Y-122100000D03*
X122172600Y-112841300D03*
X139200000Y-100000000D03*
X118200000Y-118500000D03*
X114260000Y-115720000D03*
X122220000Y-80910000D03*
X109600000Y-74800000D03*
X74780000Y-71270000D03*
X101700000Y-91000000D03*
X101700000Y-122800000D03*
X98250000Y-90000000D03*
X115100000Y-98500000D03*
X118600000Y-99700000D03*
X107000000Y-114900000D03*
X85350000Y-91181800D03*
X120000000Y-102800000D03*
X121700000Y-114600000D03*
X80650000Y-89140000D03*
X91300000Y-101200000D03*
X91140000Y-97540000D03*
X148000000Y-94600000D03*
X116700000Y-95862500D03*
X71310000Y-69310000D03*
X95400000Y-75200000D03*
X95300000Y-87310000D03*
X125900000Y-74700000D03*
X113500000Y-103900000D03*
X103800000Y-91100000D03*
X146734800Y-103182700D03*
X104900000Y-114000000D03*
X124400000Y-106500000D03*
X111100000Y-107800000D03*
X148400000Y-103400000D03*
X118500000Y-103600000D03*
X122400000Y-96000000D03*
X106800000Y-122800000D03*
X129208800Y-104500000D03*
X108800000Y-106600000D03*
X96110000Y-78270000D03*
X122200000Y-113900000D03*
X103900000Y-92600000D03*
D22*
%TO.N,3V3*%
X88890872Y-92150872D03*
D20*
X115800000Y-94100000D03*
D22*
X110270000Y-91130000D03*
D23*
X108050600Y-111018200D03*
D20*
X116800000Y-98500000D03*
D22*
X121233200Y-113685600D03*
D20*
X113100000Y-95762500D03*
X108400000Y-99600000D03*
D22*
X126567200Y-108300800D03*
X88432800Y-77992800D03*
D20*
X111600000Y-98700000D03*
%TO.N,Net-(Q1-C)*%
X106348800Y-104770200D03*
X104705700Y-78057300D03*
X103529400Y-94229200D03*
X108416400Y-105242600D03*
%TO.N,Net-(J1-D+)*%
X112165400Y-115362000D03*
X115075000Y-118892600D03*
%TO.N,Net-(J1-D-)*%
X116143576Y-116043000D03*
X114817490Y-117610696D03*
%TO.N,RTS*%
X113171800Y-105511400D03*
X113156000Y-107970600D03*
%TO.N,DTR*%
X113206800Y-110561400D03*
X112165400Y-107945200D03*
%TO.N,Net-(U2-VIO)*%
X123673600Y-111221800D03*
X116925498Y-115873885D03*
D24*
%TO.N,SDA*%
X112800000Y-97300000D03*
X142341600Y-98914968D03*
%TO.N,SCL*%
X142620000Y-97900000D03*
X112700000Y-94900000D03*
D20*
%TO.N,BIN2 1*%
X100760800Y-82265800D03*
X122550000Y-86200000D03*
%TO.N,BIN1 1*%
X122470000Y-84940000D03*
X101345000Y-81656200D03*
%TO.N,AIN1 1*%
X103118546Y-80148000D03*
X122490000Y-83637400D03*
%TO.N,PWMA 1*%
X101794665Y-78981665D03*
X122310000Y-76010000D03*
%TO.N,PWMB 1*%
X120877600Y-90546200D03*
X100141600Y-82875400D03*
%TO.N,AIN2 1*%
X122250000Y-77350000D03*
X102522590Y-79563800D03*
%TO.N,PWMA 2*%
X118312200Y-90571600D03*
X103950381Y-87057031D03*
%TO.N,BIN2 2*%
X101687951Y-89430000D03*
X113308400Y-90622400D03*
%TO.N,AIN2 2*%
X117050000Y-90610000D03*
X103402521Y-87640000D03*
%TO.N,PWMB 2*%
X101132300Y-90022300D03*
X112013000Y-90647800D03*
%TO.N,AIN1 2*%
X115696000Y-90622400D03*
X102861360Y-88230000D03*
%TO.N,BIN1 2*%
X102261062Y-88840000D03*
X114476800Y-90673200D03*
%TO.N,TRIG*%
X125530000Y-81100000D03*
%TO.N,ECHO*%
X125480000Y-82380000D03*
%TO.N,STBY*%
X104444504Y-86427868D03*
X91972400Y-79342800D03*
X119582200Y-90495400D03*
X92924625Y-92994899D03*
X98703400Y-87320400D03*
D22*
%TO.N,VM*%
X86400000Y-84000000D03*
X87180000Y-97420000D03*
%TD*%
D25*
%TO.N,Net-(J1-D+)*%
X113830400Y-117648000D02*
X115075000Y-118892600D01*
X112165400Y-117065400D02*
X112748000Y-117648000D01*
X112165400Y-115362000D02*
X112165400Y-117065400D01*
X112748000Y-117648000D02*
X113830400Y-117648000D01*
%TO.N,Net-(J1-D-)*%
X115377704Y-117610696D02*
X116143576Y-116844824D01*
X114817490Y-117610696D02*
X115377704Y-117610696D01*
X116143576Y-116844824D02*
X116143576Y-116043000D01*
D26*
%TO.N,3V3*%
X81790000Y-71680000D02*
X81810000Y-71660000D01*
X81810000Y-71660000D02*
X81810000Y-69440000D01*
X88890872Y-92150872D02*
X88910000Y-92170000D01*
X88910000Y-99270000D02*
X88030000Y-100150000D01*
X88030000Y-100150000D02*
X84120000Y-100150000D01*
X88910000Y-92170000D02*
X88910000Y-99270000D01*
X84120000Y-100150000D02*
X82340000Y-101930000D01*
X88432800Y-77992800D02*
X88102800Y-77992800D01*
X88102800Y-77992800D02*
X81790000Y-71680000D01*
D25*
%TO.N,Net-(Q2-C)*%
X126033800Y-96007200D02*
X126033800Y-92044800D01*
X126033800Y-92044800D02*
X125246400Y-91257400D01*
D26*
%TO.N,3V3*%
X121507336Y-110078800D02*
X124789200Y-110078800D01*
D25*
X116800000Y-98500000D02*
X116779000Y-98500000D01*
D27*
X110299000Y-104980000D02*
X110299000Y-102000000D01*
D25*
X108400000Y-99600000D02*
X110299000Y-101499000D01*
D26*
X109559800Y-112527400D02*
X115315000Y-112527400D01*
D27*
X110299000Y-108801000D02*
X110299000Y-108131786D01*
D26*
X112159000Y-94100000D02*
X110299000Y-95960000D01*
D25*
X111600000Y-98700000D02*
X111600000Y-98755600D01*
D27*
X110299000Y-97850000D02*
X110299000Y-95960000D01*
X110299000Y-100230000D02*
X110299000Y-97850000D01*
D25*
X110299000Y-100001000D02*
X110299000Y-100230000D01*
X108400000Y-99600000D02*
X108400000Y-99644400D01*
X110299000Y-101499000D02*
X110299000Y-102000000D01*
D26*
X108101800Y-111018200D02*
X108050600Y-111018200D01*
X115315000Y-112527400D02*
X120727400Y-112527400D01*
D25*
X113100000Y-95762500D02*
X112386500Y-95762500D01*
X111600000Y-98700000D02*
X110299000Y-100001000D01*
D27*
X110299000Y-108131786D02*
X110299000Y-104980000D01*
D26*
X115800000Y-94100000D02*
X112159000Y-94100000D01*
D25*
X112386500Y-95762500D02*
X110299000Y-97850000D01*
D26*
X115315000Y-112527400D02*
X119058736Y-112527400D01*
D27*
X108081800Y-111018200D02*
X110299000Y-108801000D01*
D26*
X108050600Y-111018200D02*
X108081800Y-111018200D01*
X119058736Y-112527400D02*
X121507336Y-110078800D01*
X116779000Y-98500000D02*
X110299000Y-104980000D01*
D27*
X110270000Y-91130000D02*
X110270000Y-91890800D01*
X110270000Y-91890800D02*
X110299000Y-91919800D01*
D26*
X120727400Y-112527400D02*
X121233200Y-113033200D01*
X124789200Y-110078800D02*
X126567200Y-108300800D01*
D27*
X110299000Y-91919800D02*
X110299000Y-95960000D01*
D26*
X108050600Y-111018200D02*
X109559800Y-112527400D01*
D27*
X110299000Y-102000000D02*
X110299000Y-100230000D01*
D26*
X121233200Y-113033200D02*
X121233200Y-113685600D01*
D25*
%TO.N,Net-(Q1-C)*%
X106795800Y-105242600D02*
X108416400Y-105242600D01*
X99400000Y-90099800D02*
X103529400Y-94229200D01*
X106348800Y-104770200D02*
X106412300Y-104706700D01*
X106412300Y-104859100D02*
X106795800Y-105242600D01*
X104705700Y-78057300D02*
X100692700Y-78057300D01*
X106412300Y-104706700D02*
X106412300Y-104859100D01*
X100692700Y-78057300D02*
X99400000Y-79350000D01*
X99400000Y-79350000D02*
X99400000Y-90099800D01*
%TO.N,RTS*%
X113156000Y-105740000D02*
X113156000Y-107970600D01*
X113171800Y-105511400D02*
X113171800Y-105724200D01*
X113171800Y-105724200D02*
X113156000Y-105740000D01*
%TO.N,DTR*%
X112165400Y-109520000D02*
X112165400Y-107945200D01*
X113206800Y-110561400D02*
X113206800Y-110358200D01*
X113206800Y-110561400D02*
X112165400Y-109520000D01*
%TO.N,Net-(U2-VIO)*%
X123697000Y-114524600D02*
X121818200Y-116403400D01*
X117455013Y-116403400D02*
X116925498Y-115873885D01*
X123673600Y-111221800D02*
X123697000Y-111245200D01*
X121818200Y-116403400D02*
X117455013Y-116403400D01*
X123697000Y-111245200D02*
X123697000Y-114524600D01*
D28*
%TO.N,SDA*%
X116949943Y-97800000D02*
X113300000Y-97800000D01*
X142341600Y-98914968D02*
X142326632Y-98900000D01*
X113300000Y-97800000D02*
X112800000Y-97300000D01*
X118049943Y-98900000D02*
X116949943Y-97800000D01*
X142326632Y-98900000D02*
X118049943Y-98900000D01*
%TO.N,SCL*%
X142020000Y-98500000D02*
X118146331Y-98500000D01*
X116849000Y-97249000D02*
X114500000Y-94900000D01*
X116895331Y-97249000D02*
X116849000Y-97249000D01*
X142620000Y-97900000D02*
X142020000Y-98500000D01*
X114500000Y-94900000D02*
X112700000Y-94900000D01*
X118146331Y-98500000D02*
X116895331Y-97249000D01*
D25*
%TO.N,BIN2 1*%
X100760800Y-82265800D02*
X100770400Y-82256200D01*
X100760800Y-82265800D02*
X107935800Y-82265800D01*
X111140000Y-85470000D02*
X121820000Y-85470000D01*
X107935800Y-82265800D02*
X111140000Y-85470000D01*
X121820000Y-85470000D02*
X122550000Y-86200000D01*
%TO.N,BIN1 1*%
X108436200Y-81656200D02*
X111720000Y-84940000D01*
X101345000Y-81656200D02*
X108436200Y-81656200D01*
X111720000Y-84940000D02*
X122470000Y-84940000D01*
%TO.N,AIN1 1*%
X119000600Y-80148000D02*
X122490000Y-83637400D01*
X103118546Y-80148000D02*
X119000600Y-80148000D01*
%TO.N,BATTERY*%
X68050000Y-107510000D02*
X68150000Y-107410000D01*
%TO.N,PWMA 1*%
X121090000Y-76010000D02*
X118136200Y-78963800D01*
X118136200Y-78963800D02*
X101812530Y-78963800D01*
X101812530Y-78963800D02*
X101794665Y-78981665D01*
X122310000Y-76010000D02*
X121090000Y-76010000D01*
%TO.N,PWMB 1*%
X100141600Y-82875400D02*
X100142208Y-82874792D01*
X116261400Y-85930000D02*
X120877600Y-90546200D01*
X107575400Y-82875400D02*
X110630000Y-85930000D01*
X110630000Y-85930000D02*
X116261400Y-85930000D01*
X120877600Y-90337600D02*
X120877600Y-90546200D01*
X100141600Y-82875400D02*
X107575400Y-82875400D01*
%TO.N,AIN2 1*%
X119125000Y-79548000D02*
X102538390Y-79548000D01*
X122250000Y-77350000D02*
X121323000Y-77350000D01*
X102538390Y-79548000D02*
X102522590Y-79563800D01*
X121323000Y-77350000D02*
X119125000Y-79548000D01*
%TO.N,PWMA 2*%
X114800600Y-87060000D02*
X118312200Y-90571600D01*
X103950381Y-87057031D02*
X103953350Y-87060000D01*
X103953350Y-87060000D02*
X114800600Y-87060000D01*
%TO.N,BIN2 2*%
X101687951Y-89430000D02*
X101697951Y-89440000D01*
X112126000Y-89440000D02*
X113308400Y-90622400D01*
X101697951Y-89440000D02*
X112126000Y-89440000D01*
%TO.N,AIN2 2*%
X103402521Y-87640000D02*
X103420552Y-87658031D01*
X103415944Y-87653423D02*
X103588250Y-87653423D01*
X103402521Y-87640000D02*
X103415944Y-87653423D01*
X114098031Y-87658031D02*
X117050000Y-90610000D01*
X103402521Y-87640000D02*
X103442521Y-87680000D01*
X103420552Y-87658031D02*
X114098031Y-87658031D01*
%TO.N,PWMB 2*%
X101132300Y-90022300D02*
X101141000Y-90031000D01*
X101141000Y-90031000D02*
X111396200Y-90031000D01*
X111396200Y-90031000D02*
X112013000Y-90647800D01*
X101132300Y-90022300D02*
X101146470Y-90022300D01*
X112013000Y-90491636D02*
X112013000Y-90647800D01*
%TO.N,AIN1 2*%
X102861360Y-88230000D02*
X102872360Y-88241000D01*
X113314600Y-88241000D02*
X115696000Y-90622400D01*
X102872360Y-88241000D02*
X113314600Y-88241000D01*
X102861360Y-88230000D02*
X102891360Y-88260000D01*
%TO.N,BIN1 2*%
X102261062Y-88840000D02*
X112643600Y-88840000D01*
X102261062Y-88840000D02*
X102271062Y-88830000D01*
X112643600Y-88840000D02*
X114476800Y-90673200D01*
%TO.N,TRIG*%
X125530000Y-81100000D02*
X125650000Y-80980000D01*
X125650000Y-80980000D02*
X135680000Y-80980000D01*
%TO.N,ECHO*%
X126080000Y-82980000D02*
X125480000Y-82380000D01*
X135680000Y-82980000D02*
X126080000Y-82980000D01*
%TO.N,STBY*%
X98703400Y-87320400D02*
X93750000Y-82367000D01*
X104444504Y-86427868D02*
X104452372Y-86420000D01*
X95500000Y-91750000D02*
X94255101Y-92994899D01*
X94255101Y-92994899D02*
X92924625Y-92994899D01*
X115506800Y-86420000D02*
X119582200Y-90495400D01*
X93750000Y-81120400D02*
X91972400Y-79342800D01*
X98703400Y-87320400D02*
X95500000Y-90523800D01*
X93750000Y-82367000D02*
X93750000Y-81120400D01*
X95500000Y-90523800D02*
X95500000Y-91750000D01*
X104452372Y-86420000D02*
X115506800Y-86420000D01*
D27*
%TO.N,VM*%
X85900000Y-98700000D02*
X78000000Y-98700000D01*
X87180000Y-97420000D02*
X85900000Y-98700000D01*
X78000000Y-98700000D02*
X75560000Y-101140000D01*
X75560000Y-103500000D02*
X68150000Y-110910000D01*
X86400000Y-84000000D02*
X86400000Y-87300000D01*
X75560000Y-98140000D02*
X75560000Y-103500000D01*
X86400000Y-87300000D02*
X75560000Y-98140000D01*
%TD*%
%TA.AperFunction,Conductor*%
%TO.N,GND*%
G36*
X114320224Y-95394407D02*
G01*
X114332037Y-95404496D01*
X115266558Y-96339017D01*
X116083038Y-97155496D01*
X116110815Y-97210013D01*
X116101244Y-97270445D01*
X116057979Y-97313710D01*
X116013034Y-97324500D01*
X113548952Y-97324500D01*
X113490761Y-97305593D01*
X113454797Y-97256093D01*
X113451573Y-97240677D01*
X113451449Y-97240702D01*
X113441319Y-97189777D01*
X113425501Y-97110256D01*
X113376465Y-96991873D01*
X113376463Y-96991870D01*
X113376461Y-96991866D01*
X113321566Y-96909711D01*
X113305276Y-96885331D01*
X113214669Y-96794724D01*
X113172226Y-96766365D01*
X113108133Y-96723538D01*
X113108125Y-96723534D01*
X112989747Y-96674500D01*
X112989745Y-96674499D01*
X112989744Y-96674499D01*
X112864069Y-96649500D01*
X112735931Y-96649500D01*
X112735930Y-96649500D01*
X112673093Y-96661999D01*
X112610256Y-96674499D01*
X112610255Y-96674499D01*
X112610252Y-96674500D01*
X112491874Y-96723534D01*
X112491866Y-96723538D01*
X112385331Y-96794724D01*
X112385327Y-96794727D01*
X112294727Y-96885327D01*
X112294724Y-96885331D01*
X112223538Y-96991866D01*
X112223534Y-96991874D01*
X112174500Y-97110252D01*
X112174499Y-97110257D01*
X112154656Y-97210013D01*
X112149500Y-97235931D01*
X112149500Y-97364069D01*
X112174206Y-97488273D01*
X112174499Y-97489742D01*
X112174500Y-97489747D01*
X112223534Y-97608125D01*
X112223538Y-97608133D01*
X112253850Y-97653497D01*
X112294724Y-97714669D01*
X112385331Y-97805276D01*
X112448848Y-97847717D01*
X112491866Y-97876461D01*
X112491870Y-97876463D01*
X112491873Y-97876465D01*
X112610256Y-97925501D01*
X112735931Y-97950500D01*
X112737033Y-97950500D01*
X112737511Y-97950655D01*
X112740767Y-97950976D01*
X112740696Y-97951690D01*
X112795224Y-97969407D01*
X112807036Y-97979496D01*
X112917283Y-98089742D01*
X113008036Y-98180495D01*
X113116464Y-98243095D01*
X113237399Y-98275500D01*
X113362601Y-98275500D01*
X115915256Y-98275500D01*
X115973447Y-98294407D01*
X116009411Y-98343907D01*
X116009411Y-98405093D01*
X115985260Y-98444504D01*
X111168504Y-103261260D01*
X111113987Y-103289037D01*
X111053555Y-103279466D01*
X111010290Y-103236201D01*
X110999500Y-103191256D01*
X110999500Y-100049322D01*
X111018407Y-99991131D01*
X111028496Y-99979318D01*
X111578318Y-99429496D01*
X111632835Y-99401719D01*
X111648322Y-99400500D01*
X111668992Y-99400500D01*
X111668993Y-99400500D01*
X111804328Y-99373580D01*
X111931811Y-99320775D01*
X112046542Y-99244114D01*
X112144114Y-99146542D01*
X112220775Y-99031811D01*
X112273580Y-98904328D01*
X112300500Y-98768993D01*
X112300500Y-98631007D01*
X112273580Y-98495672D01*
X112220775Y-98368189D01*
X112220774Y-98368187D01*
X112220771Y-98368182D01*
X112144114Y-98253458D01*
X112046541Y-98155885D01*
X111931817Y-98079228D01*
X111931806Y-98079222D01*
X111804328Y-98026420D01*
X111668995Y-97999500D01*
X111668993Y-97999500D01*
X111531007Y-97999500D01*
X111531004Y-97999500D01*
X111395672Y-98026420D01*
X111395670Y-98026420D01*
X111268193Y-98079222D01*
X111268182Y-98079228D01*
X111193106Y-98129394D01*
X111153500Y-98155857D01*
X111094614Y-98172466D01*
X111037210Y-98151289D01*
X111003217Y-98100415D01*
X110999500Y-98073542D01*
X110999500Y-97898322D01*
X111018407Y-97840131D01*
X111028496Y-97828318D01*
X111746562Y-97110252D01*
X112534111Y-96322702D01*
X112588626Y-96294927D01*
X112649058Y-96304498D01*
X112659104Y-96310386D01*
X112721238Y-96351903D01*
X112768182Y-96383271D01*
X112768193Y-96383277D01*
X112815283Y-96402782D01*
X112895672Y-96436080D01*
X113031007Y-96463000D01*
X113031008Y-96463000D01*
X113168992Y-96463000D01*
X113168993Y-96463000D01*
X113304328Y-96436080D01*
X113431811Y-96383275D01*
X113546542Y-96306614D01*
X113644114Y-96209042D01*
X113720775Y-96094311D01*
X113773580Y-95966828D01*
X113800500Y-95831493D01*
X113800500Y-95693507D01*
X113773580Y-95558172D01*
X113762836Y-95532233D01*
X113754615Y-95512385D01*
X113749815Y-95451388D01*
X113781784Y-95399219D01*
X113838313Y-95375805D01*
X113846079Y-95375500D01*
X114262033Y-95375500D01*
X114320224Y-95394407D01*
G37*
%TD.AperFunction*%
%TA.AperFunction,Conductor*%
G36*
X107385269Y-83394807D02*
G01*
X107397082Y-83404896D01*
X109742682Y-85750496D01*
X109770459Y-85805013D01*
X109760888Y-85865445D01*
X109717623Y-85908710D01*
X109672678Y-85919500D01*
X104967800Y-85919500D01*
X104909609Y-85900593D01*
X104897796Y-85890504D01*
X104891045Y-85883753D01*
X104776321Y-85807096D01*
X104776310Y-85807090D01*
X104648832Y-85754288D01*
X104513499Y-85727368D01*
X104513497Y-85727368D01*
X104375511Y-85727368D01*
X104375508Y-85727368D01*
X104240176Y-85754288D01*
X104240174Y-85754288D01*
X104112697Y-85807090D01*
X104112686Y-85807096D01*
X103997962Y-85883753D01*
X103900389Y-85981326D01*
X103823732Y-86096050D01*
X103823726Y-86096061D01*
X103770924Y-86223538D01*
X103770924Y-86223540D01*
X103748816Y-86334682D01*
X103718919Y-86388066D01*
X103689604Y-86406832D01*
X103618570Y-86436255D01*
X103503839Y-86512917D01*
X103503835Y-86512920D01*
X103406266Y-86610489D01*
X103329609Y-86725213D01*
X103329603Y-86725224D01*
X103276800Y-86852703D01*
X103276798Y-86852709D01*
X103269351Y-86890149D01*
X103239454Y-86943532D01*
X103201006Y-86965566D01*
X103198195Y-86966418D01*
X103070714Y-87019222D01*
X103070703Y-87019228D01*
X102955979Y-87095885D01*
X102858406Y-87193458D01*
X102781749Y-87308182D01*
X102781743Y-87308193D01*
X102728941Y-87435670D01*
X102728939Y-87435677D01*
X102719544Y-87482905D01*
X102689646Y-87536288D01*
X102660333Y-87555052D01*
X102529550Y-87609224D01*
X102529542Y-87609228D01*
X102414818Y-87685885D01*
X102317245Y-87783458D01*
X102240588Y-87898182D01*
X102240582Y-87898193D01*
X102187779Y-88025672D01*
X102187778Y-88025678D01*
X102176932Y-88080200D01*
X102147035Y-88133583D01*
X102099151Y-88157981D01*
X102056740Y-88166417D01*
X102056734Y-88166419D01*
X101929255Y-88219222D01*
X101929244Y-88219228D01*
X101814520Y-88295885D01*
X101716947Y-88393458D01*
X101640290Y-88508182D01*
X101640284Y-88508193D01*
X101587481Y-88635672D01*
X101587479Y-88635678D01*
X101579656Y-88675007D01*
X101549758Y-88728391D01*
X101501876Y-88752788D01*
X101483628Y-88756418D01*
X101483623Y-88756419D01*
X101356144Y-88809222D01*
X101356133Y-88809228D01*
X101241409Y-88885885D01*
X101143836Y-88983458D01*
X101067179Y-89098182D01*
X101067173Y-89098193D01*
X101014371Y-89225670D01*
X101014368Y-89225680D01*
X101005350Y-89271017D01*
X100975453Y-89324401D01*
X100932345Y-89346369D01*
X100932630Y-89347307D01*
X100927970Y-89348720D01*
X100800493Y-89401522D01*
X100800482Y-89401528D01*
X100685758Y-89478185D01*
X100588185Y-89575758D01*
X100511528Y-89690482D01*
X100511522Y-89690493D01*
X100458720Y-89817970D01*
X100458720Y-89817972D01*
X100431800Y-89953304D01*
X100431800Y-90091295D01*
X100450689Y-90186255D01*
X100443497Y-90247016D01*
X100401965Y-90291946D01*
X100341955Y-90303883D01*
X100286390Y-90278267D01*
X100283587Y-90275573D01*
X99929496Y-89921482D01*
X99901719Y-89866965D01*
X99900500Y-89851478D01*
X99900500Y-83662297D01*
X99919407Y-83604106D01*
X99968907Y-83568142D01*
X100018815Y-83565200D01*
X100030835Y-83567591D01*
X100072598Y-83575899D01*
X100072605Y-83575899D01*
X100072607Y-83575900D01*
X100072608Y-83575900D01*
X100210592Y-83575900D01*
X100210593Y-83575900D01*
X100345928Y-83548980D01*
X100473411Y-83496175D01*
X100588142Y-83419514D01*
X100602760Y-83404896D01*
X100657277Y-83377119D01*
X100672764Y-83375900D01*
X107327078Y-83375900D01*
X107385269Y-83394807D01*
G37*
%TD.AperFunction*%
%TA.AperFunction,Conductor*%
G36*
X101122047Y-78576707D02*
G01*
X101158011Y-78626207D01*
X101158011Y-78687393D01*
X101155320Y-78694685D01*
X101121085Y-78777335D01*
X101121085Y-78777337D01*
X101094165Y-78912669D01*
X101094165Y-79050660D01*
X101121085Y-79185992D01*
X101121085Y-79185994D01*
X101173887Y-79313471D01*
X101173893Y-79313482D01*
X101250550Y-79428206D01*
X101348123Y-79525779D01*
X101462847Y-79602436D01*
X101462858Y-79602442D01*
X101509948Y-79621947D01*
X101590337Y-79655245D01*
X101725672Y-79682165D01*
X101750664Y-79682165D01*
X101808855Y-79701072D01*
X101844819Y-79750572D01*
X101847762Y-79761854D01*
X101849008Y-79768123D01*
X101849010Y-79768129D01*
X101901812Y-79895606D01*
X101901818Y-79895617D01*
X101978475Y-80010341D01*
X102076048Y-80107914D01*
X102190772Y-80184571D01*
X102190783Y-80184577D01*
X102275767Y-80219778D01*
X102318262Y-80237380D01*
X102361499Y-80245980D01*
X102414883Y-80275876D01*
X102439283Y-80323763D01*
X102444963Y-80352319D01*
X102444966Y-80352329D01*
X102497768Y-80479806D01*
X102497774Y-80479817D01*
X102574431Y-80594541D01*
X102672004Y-80692114D01*
X102786728Y-80768771D01*
X102786739Y-80768777D01*
X102833829Y-80788282D01*
X102914218Y-80821580D01*
X103049553Y-80848500D01*
X103049554Y-80848500D01*
X103187538Y-80848500D01*
X103187539Y-80848500D01*
X103322874Y-80821580D01*
X103450357Y-80768775D01*
X103565088Y-80692114D01*
X103579706Y-80677496D01*
X103634223Y-80649719D01*
X103649710Y-80648500D01*
X118752278Y-80648500D01*
X118810469Y-80667407D01*
X118822282Y-80677496D01*
X121760504Y-83615718D01*
X121788281Y-83670235D01*
X121789500Y-83685722D01*
X121789500Y-83706395D01*
X121816420Y-83841727D01*
X121816420Y-83841729D01*
X121869222Y-83969206D01*
X121869228Y-83969217D01*
X121945885Y-84083941D01*
X121945886Y-84083942D01*
X122043458Y-84181514D01*
X122070680Y-84199703D01*
X122071227Y-84200397D01*
X122072074Y-84200652D01*
X122090110Y-84224350D01*
X122108559Y-84247753D01*
X122108593Y-84248636D01*
X122109129Y-84249340D01*
X122109790Y-84279105D01*
X122110961Y-84308891D01*
X122110469Y-84309626D01*
X122110489Y-84310510D01*
X122104176Y-84319044D01*
X122076968Y-84359765D01*
X122075635Y-84360798D01*
X122073219Y-84362636D01*
X122023458Y-84395886D01*
X122004112Y-84415231D01*
X121998793Y-84419280D01*
X121975914Y-84427280D01*
X121954323Y-84438281D01*
X121941586Y-84439283D01*
X121941036Y-84439476D01*
X121940642Y-84439357D01*
X121938836Y-84439500D01*
X111968322Y-84439500D01*
X111910131Y-84420593D01*
X111898318Y-84410504D01*
X110369270Y-82881456D01*
X108743514Y-81255700D01*
X108743511Y-81255698D01*
X108743510Y-81255697D01*
X108743509Y-81255696D01*
X108629389Y-81189809D01*
X108629391Y-81189809D01*
X108579999Y-81176575D01*
X108502092Y-81155700D01*
X108502090Y-81155700D01*
X101876164Y-81155700D01*
X101817973Y-81136793D01*
X101806160Y-81126704D01*
X101791541Y-81112085D01*
X101676817Y-81035428D01*
X101676806Y-81035422D01*
X101549328Y-80982620D01*
X101413995Y-80955700D01*
X101413993Y-80955700D01*
X101276007Y-80955700D01*
X101276004Y-80955700D01*
X101140672Y-80982620D01*
X101140670Y-80982620D01*
X101013193Y-81035422D01*
X101013182Y-81035428D01*
X100898458Y-81112085D01*
X100800885Y-81209658D01*
X100724228Y-81324382D01*
X100724222Y-81324393D01*
X100671420Y-81451870D01*
X100671417Y-81451880D01*
X100659992Y-81509317D01*
X100630095Y-81562701D01*
X100582211Y-81587099D01*
X100556479Y-81592218D01*
X100556470Y-81592220D01*
X100428993Y-81645022D01*
X100428982Y-81645028D01*
X100314258Y-81721685D01*
X100216685Y-81819258D01*
X100140028Y-81933982D01*
X100140022Y-81933993D01*
X100090964Y-82052433D01*
X100051228Y-82098959D01*
X99991733Y-82113243D01*
X99935205Y-82089828D01*
X99903235Y-82037659D01*
X99900500Y-82014548D01*
X99900500Y-79598322D01*
X99919407Y-79540131D01*
X99929496Y-79528318D01*
X100871018Y-78586796D01*
X100878135Y-78583169D01*
X100882831Y-78576707D01*
X100904879Y-78569543D01*
X100925535Y-78559019D01*
X100941022Y-78557800D01*
X101063856Y-78557800D01*
X101122047Y-78576707D01*
G37*
%TD.AperFunction*%
%TA.AperFunction,Conductor*%
G36*
X90959191Y-66519407D02*
G01*
X90995155Y-66568907D01*
X91000000Y-66599500D01*
X91000000Y-73500000D01*
X139675599Y-73500000D01*
X139675600Y-73500000D01*
X139675600Y-72832946D01*
X140599500Y-72832946D01*
X140599500Y-73167053D01*
X140632248Y-73499555D01*
X140697431Y-73827253D01*
X140794414Y-74146967D01*
X140922273Y-74455645D01*
X140922286Y-74455672D01*
X141079773Y-74750312D01*
X141218993Y-74958667D01*
X141265399Y-75028118D01*
X141477357Y-75286390D01*
X141713610Y-75522643D01*
X141971882Y-75734601D01*
X142078244Y-75805670D01*
X142249687Y-75920226D01*
X142544327Y-76077713D01*
X142544346Y-76077723D01*
X142853024Y-76205582D01*
X142853026Y-76205582D01*
X142853032Y-76205585D01*
X143129376Y-76289412D01*
X143172749Y-76302569D01*
X143500441Y-76367751D01*
X143832944Y-76400500D01*
X143832947Y-76400500D01*
X144167053Y-76400500D01*
X144167056Y-76400500D01*
X144499559Y-76367751D01*
X144827251Y-76302569D01*
X145016857Y-76245052D01*
X145146967Y-76205585D01*
X145146969Y-76205583D01*
X145146976Y-76205582D01*
X145455654Y-76077723D01*
X145711433Y-75941007D01*
X145750312Y-75920226D01*
X145750315Y-75920224D01*
X146028118Y-75734601D01*
X146286390Y-75522643D01*
X146522643Y-75286390D01*
X146734601Y-75028118D01*
X146920224Y-74750315D01*
X147077723Y-74455654D01*
X147205582Y-74146976D01*
X147235557Y-74048163D01*
X147245052Y-74016857D01*
X147302569Y-73827251D01*
X147367751Y-73499559D01*
X147400500Y-73167056D01*
X147400500Y-72832944D01*
X147367751Y-72500441D01*
X147302569Y-72172749D01*
X147250784Y-72002035D01*
X147205585Y-71853032D01*
X147154459Y-71729602D01*
X147077723Y-71544346D01*
X147068077Y-71526299D01*
X146920226Y-71249687D01*
X146814061Y-71090802D01*
X146734601Y-70971882D01*
X146522643Y-70713610D01*
X146286390Y-70477357D01*
X146273605Y-70466865D01*
X146134593Y-70352781D01*
X146028118Y-70265399D01*
X145921960Y-70194466D01*
X145750312Y-70079773D01*
X145455672Y-69922286D01*
X145455660Y-69922280D01*
X145455654Y-69922277D01*
X145455649Y-69922274D01*
X145455645Y-69922273D01*
X145146967Y-69794414D01*
X144827253Y-69697431D01*
X144606777Y-69653576D01*
X144499559Y-69632249D01*
X144499557Y-69632248D01*
X144256491Y-69608308D01*
X144167056Y-69599500D01*
X143832944Y-69599500D01*
X143734700Y-69609176D01*
X143500444Y-69632248D01*
X143172746Y-69697431D01*
X142853032Y-69794414D01*
X142544354Y-69922273D01*
X142544327Y-69922286D01*
X142249687Y-70079773D01*
X141971880Y-70265400D01*
X141713615Y-70477352D01*
X141477352Y-70713615D01*
X141265400Y-70971880D01*
X141079773Y-71249687D01*
X140922286Y-71544327D01*
X140922273Y-71544354D01*
X140794414Y-71853032D01*
X140697431Y-72172746D01*
X140632248Y-72500444D01*
X140599500Y-72832946D01*
X139675600Y-72832946D01*
X139675600Y-66599500D01*
X139694507Y-66541309D01*
X139744007Y-66505345D01*
X139774600Y-66500500D01*
X143934108Y-66500500D01*
X143997964Y-66500500D01*
X144002055Y-66500585D01*
X144450057Y-66519114D01*
X144458189Y-66519788D01*
X144901142Y-66575001D01*
X144909183Y-66576343D01*
X145346053Y-66667945D01*
X145353965Y-66669949D01*
X145676768Y-66766052D01*
X145781762Y-66797310D01*
X145789479Y-66799958D01*
X146205335Y-66962226D01*
X146212782Y-66965493D01*
X146579953Y-67144992D01*
X146613795Y-67161536D01*
X146620992Y-67165431D01*
X147004420Y-67393905D01*
X147011270Y-67398380D01*
X147374532Y-67657744D01*
X147380989Y-67662770D01*
X147721580Y-67951235D01*
X147727600Y-67956776D01*
X148043223Y-68272399D01*
X148048764Y-68278419D01*
X148337229Y-68619010D01*
X148342255Y-68625467D01*
X148601619Y-68988729D01*
X148606094Y-68995579D01*
X148834568Y-69379007D01*
X148838463Y-69386204D01*
X149034500Y-69787204D01*
X149037777Y-69794675D01*
X149191779Y-70189346D01*
X149200033Y-70210498D01*
X149202689Y-70218237D01*
X149330047Y-70646024D01*
X149332056Y-70653956D01*
X149423653Y-71090802D01*
X149425000Y-71098873D01*
X149480210Y-71541799D01*
X149480885Y-71549953D01*
X149499415Y-71997944D01*
X149499500Y-72002035D01*
X149499500Y-119497964D01*
X149499415Y-119502055D01*
X149480885Y-119950046D01*
X149480210Y-119958200D01*
X149425000Y-120401126D01*
X149423653Y-120409197D01*
X149332056Y-120846043D01*
X149330047Y-120853975D01*
X149202689Y-121281762D01*
X149200033Y-121289500D01*
X149037781Y-121705315D01*
X149034500Y-121712795D01*
X148838463Y-122113795D01*
X148834568Y-122120992D01*
X148606094Y-122504420D01*
X148601619Y-122511270D01*
X148342255Y-122874532D01*
X148337229Y-122880989D01*
X148048764Y-123221580D01*
X148043223Y-123227600D01*
X147727600Y-123543223D01*
X147721580Y-123548764D01*
X147380989Y-123837229D01*
X147374532Y-123842255D01*
X147011270Y-124101619D01*
X147004420Y-124106094D01*
X146620992Y-124334568D01*
X146613795Y-124338463D01*
X146212795Y-124534500D01*
X146205315Y-124537781D01*
X145789501Y-124700033D01*
X145781762Y-124702689D01*
X145353975Y-124830047D01*
X145346043Y-124832056D01*
X144909197Y-124923653D01*
X144901126Y-124925000D01*
X144458200Y-124980210D01*
X144450046Y-124980885D01*
X144002055Y-124999415D01*
X143997964Y-124999500D01*
X64002036Y-124999500D01*
X63997945Y-124999415D01*
X63549953Y-124980885D01*
X63541799Y-124980210D01*
X63098873Y-124925000D01*
X63090802Y-124923653D01*
X62653956Y-124832056D01*
X62646024Y-124830047D01*
X62218237Y-124702689D01*
X62210506Y-124700035D01*
X61794675Y-124537777D01*
X61787204Y-124534500D01*
X61386204Y-124338463D01*
X61379007Y-124334568D01*
X60995579Y-124106094D01*
X60988729Y-124101619D01*
X60625467Y-123842255D01*
X60619010Y-123837229D01*
X60278419Y-123548764D01*
X60272399Y-123543223D01*
X59956776Y-123227600D01*
X59951235Y-123221580D01*
X59848643Y-123100450D01*
X59848642Y-123100448D01*
X59797744Y-123040352D01*
X111319500Y-123040352D01*
X111319500Y-123559647D01*
X111345980Y-123726842D01*
X111383481Y-123842255D01*
X111398295Y-123887849D01*
X111475150Y-124038685D01*
X111574654Y-124175641D01*
X111694359Y-124295346D01*
X111831315Y-124394850D01*
X111982151Y-124471705D01*
X112143153Y-124524018D01*
X112143154Y-124524018D01*
X112143157Y-124524019D01*
X112310353Y-124550500D01*
X112310356Y-124550500D01*
X112479647Y-124550500D01*
X112646842Y-124524019D01*
X112646843Y-124524018D01*
X112646847Y-124524018D01*
X112807849Y-124471705D01*
X112958685Y-124394850D01*
X113095641Y-124295346D01*
X113215346Y-124175641D01*
X113314850Y-124038685D01*
X113391705Y-123887849D01*
X113444018Y-123726847D01*
X113470500Y-123559644D01*
X113470500Y-123040356D01*
X113470500Y-123040352D01*
X116779500Y-123040352D01*
X116779500Y-123559647D01*
X116805980Y-123726842D01*
X116843481Y-123842255D01*
X116858295Y-123887849D01*
X116935150Y-124038685D01*
X117034654Y-124175641D01*
X117154359Y-124295346D01*
X117291315Y-124394850D01*
X117442151Y-124471705D01*
X117603153Y-124524018D01*
X117603154Y-124524018D01*
X117603157Y-124524019D01*
X117770353Y-124550500D01*
X117770356Y-124550500D01*
X117939647Y-124550500D01*
X118106842Y-124524019D01*
X118106843Y-124524018D01*
X118106847Y-124524018D01*
X118267849Y-124471705D01*
X118418685Y-124394850D01*
X118555641Y-124295346D01*
X118675346Y-124175641D01*
X118774850Y-124038685D01*
X118851705Y-123887849D01*
X118904018Y-123726847D01*
X118930500Y-123559644D01*
X118930500Y-123040356D01*
X118930500Y-123040352D01*
X118904019Y-122873157D01*
X118902263Y-122867751D01*
X118851705Y-122712151D01*
X118774850Y-122561315D01*
X118675346Y-122424359D01*
X118555641Y-122304654D01*
X118418685Y-122205150D01*
X118418684Y-122205149D01*
X118418682Y-122205148D01*
X118348903Y-122169594D01*
X118267849Y-122128295D01*
X118267846Y-122128294D01*
X118267844Y-122128293D01*
X118106842Y-122075980D01*
X117939647Y-122049500D01*
X117939644Y-122049500D01*
X117770356Y-122049500D01*
X117770353Y-122049500D01*
X117603157Y-122075980D01*
X117442155Y-122128293D01*
X117291317Y-122205148D01*
X117250779Y-122234601D01*
X117154359Y-122304654D01*
X117034654Y-122424359D01*
X116984902Y-122492837D01*
X116935148Y-122561317D01*
X116858293Y-122712155D01*
X116805980Y-122873157D01*
X116779500Y-123040352D01*
X113470500Y-123040352D01*
X113444019Y-122873157D01*
X113442263Y-122867751D01*
X113391705Y-122712151D01*
X113314850Y-122561315D01*
X113215346Y-122424359D01*
X113095641Y-122304654D01*
X112958685Y-122205150D01*
X112958684Y-122205149D01*
X112958682Y-122205148D01*
X112888903Y-122169594D01*
X112807849Y-122128295D01*
X112807846Y-122128294D01*
X112807844Y-122128293D01*
X112646842Y-122075980D01*
X112479647Y-122049500D01*
X112479644Y-122049500D01*
X112310356Y-122049500D01*
X112310353Y-122049500D01*
X112143157Y-122075980D01*
X111982155Y-122128293D01*
X111831317Y-122205148D01*
X111790779Y-122234601D01*
X111694359Y-122304654D01*
X111574654Y-122424359D01*
X111524902Y-122492837D01*
X111475148Y-122561317D01*
X111398293Y-122712155D01*
X111345980Y-122873157D01*
X111319500Y-123040352D01*
X59797744Y-123040352D01*
X59662770Y-122880988D01*
X59657744Y-122874532D01*
X59398380Y-122511270D01*
X59393905Y-122504420D01*
X59165431Y-122120992D01*
X59161536Y-122113795D01*
X59130104Y-122049500D01*
X58965493Y-121712782D01*
X58962226Y-121705335D01*
X58799958Y-121289479D01*
X58797310Y-121281762D01*
X58700229Y-120955672D01*
X58669949Y-120853965D01*
X58667943Y-120846043D01*
X58653519Y-120777251D01*
X58576343Y-120409183D01*
X58575001Y-120401142D01*
X58519788Y-119958189D01*
X58519114Y-119950046D01*
X58507409Y-119667056D01*
X58500585Y-119502055D01*
X58500500Y-119497964D01*
X58500500Y-119332946D01*
X60599500Y-119332946D01*
X60599500Y-119667053D01*
X60632248Y-119999555D01*
X60697431Y-120327253D01*
X60794414Y-120646967D01*
X60922273Y-120955645D01*
X60922286Y-120955672D01*
X61079773Y-121250312D01*
X61141253Y-121342322D01*
X61265399Y-121528118D01*
X61477357Y-121786390D01*
X61713610Y-122022643D01*
X61971882Y-122234601D01*
X62076723Y-122304654D01*
X62249687Y-122420226D01*
X62513652Y-122561317D01*
X62544346Y-122577723D01*
X62853024Y-122705582D01*
X62853026Y-122705582D01*
X62853032Y-122705585D01*
X63129376Y-122789412D01*
X63172749Y-122802569D01*
X63500441Y-122867751D01*
X63832944Y-122900500D01*
X63832947Y-122900500D01*
X64167053Y-122900500D01*
X64167056Y-122900500D01*
X64499559Y-122867751D01*
X64827251Y-122802569D01*
X65125308Y-122712155D01*
X65146967Y-122705585D01*
X65146969Y-122705583D01*
X65146976Y-122705582D01*
X65455654Y-122577723D01*
X65599640Y-122500760D01*
X65750312Y-122420226D01*
X65750315Y-122420224D01*
X66028118Y-122234601D01*
X66286390Y-122022643D01*
X66522643Y-121786390D01*
X66734601Y-121528118D01*
X66920224Y-121250315D01*
X66926648Y-121238298D01*
X67077713Y-120955672D01*
X67077723Y-120955654D01*
X67205582Y-120646976D01*
X67221769Y-120593616D01*
X67302568Y-120327253D01*
X67302569Y-120327251D01*
X67366394Y-120006381D01*
X111754500Y-120006381D01*
X111754500Y-120593618D01*
X111791026Y-120777249D01*
X111862677Y-120950229D01*
X111862681Y-120950238D01*
X111937065Y-121061559D01*
X111966698Y-121105908D01*
X112099092Y-121238302D01*
X112164135Y-121281762D01*
X112254761Y-121342318D01*
X112254767Y-121342320D01*
X112254769Y-121342322D01*
X112427749Y-121413973D01*
X112611384Y-121450500D01*
X112611385Y-121450500D01*
X112798615Y-121450500D01*
X112798616Y-121450500D01*
X112982251Y-121413973D01*
X113155231Y-121342322D01*
X113155234Y-121342319D01*
X113155238Y-121342318D01*
X113200187Y-121312282D01*
X113310908Y-121238302D01*
X113443302Y-121105908D01*
X113517282Y-120995187D01*
X113547318Y-120950238D01*
X113547319Y-120950234D01*
X113547322Y-120950231D01*
X113618973Y-120777251D01*
X113655500Y-120593616D01*
X113655500Y-120006384D01*
X113655499Y-120006381D01*
X116594500Y-120006381D01*
X116594500Y-120593618D01*
X116631026Y-120777249D01*
X116702677Y-120950229D01*
X116702681Y-120950238D01*
X116777065Y-121061559D01*
X116806698Y-121105908D01*
X116939092Y-121238302D01*
X117004135Y-121281762D01*
X117094761Y-121342318D01*
X117094767Y-121342320D01*
X117094769Y-121342322D01*
X117267749Y-121413973D01*
X117451384Y-121450500D01*
X117451385Y-121450500D01*
X117638615Y-121450500D01*
X117638616Y-121450500D01*
X117822251Y-121413973D01*
X117995231Y-121342322D01*
X117995234Y-121342319D01*
X117995238Y-121342318D01*
X118040187Y-121312282D01*
X118150908Y-121238302D01*
X118283302Y-121105908D01*
X118357282Y-120995187D01*
X118387318Y-120950238D01*
X118387319Y-120950234D01*
X118387322Y-120950231D01*
X118458973Y-120777251D01*
X118495500Y-120593616D01*
X118495500Y-120006384D01*
X118458973Y-119822749D01*
X118387322Y-119649769D01*
X118387320Y-119649767D01*
X118387318Y-119649761D01*
X118327649Y-119560463D01*
X118283302Y-119494092D01*
X118150908Y-119361698D01*
X118107878Y-119332946D01*
X140599500Y-119332946D01*
X140599500Y-119667053D01*
X140632248Y-119999555D01*
X140697431Y-120327253D01*
X140794414Y-120646967D01*
X140922273Y-120955645D01*
X140922286Y-120955672D01*
X141079773Y-121250312D01*
X141141253Y-121342322D01*
X141265399Y-121528118D01*
X141477357Y-121786390D01*
X141713610Y-122022643D01*
X141971882Y-122234601D01*
X142076723Y-122304654D01*
X142249687Y-122420226D01*
X142513652Y-122561317D01*
X142544346Y-122577723D01*
X142853024Y-122705582D01*
X142853026Y-122705582D01*
X142853032Y-122705585D01*
X143129376Y-122789412D01*
X143172749Y-122802569D01*
X143500441Y-122867751D01*
X143832944Y-122900500D01*
X143832947Y-122900500D01*
X144167053Y-122900500D01*
X144167056Y-122900500D01*
X144499559Y-122867751D01*
X144827251Y-122802569D01*
X145125308Y-122712155D01*
X145146967Y-122705585D01*
X145146969Y-122705583D01*
X145146976Y-122705582D01*
X145455654Y-122577723D01*
X145599640Y-122500760D01*
X145750312Y-122420226D01*
X145750315Y-122420224D01*
X146028118Y-122234601D01*
X146286390Y-122022643D01*
X146522643Y-121786390D01*
X146734601Y-121528118D01*
X146920224Y-121250315D01*
X146926648Y-121238298D01*
X147077713Y-120955672D01*
X147077723Y-120955654D01*
X147205582Y-120646976D01*
X147221769Y-120593616D01*
X147302568Y-120327253D01*
X147302569Y-120327251D01*
X147367751Y-119999559D01*
X147400500Y-119667056D01*
X147400500Y-119332944D01*
X147367751Y-119000441D01*
X147302569Y-118672749D01*
X147268608Y-118560793D01*
X147205585Y-118353032D01*
X147150076Y-118219020D01*
X147077723Y-118044346D01*
X147030135Y-117955314D01*
X146920226Y-117749687D01*
X146827412Y-117610783D01*
X146734601Y-117471882D01*
X146522643Y-117213610D01*
X146286390Y-116977357D01*
X146028118Y-116765399D01*
X145946272Y-116710711D01*
X145750312Y-116579773D01*
X145455672Y-116422286D01*
X145455660Y-116422280D01*
X145455654Y-116422277D01*
X145455649Y-116422274D01*
X145455645Y-116422273D01*
X145146967Y-116294414D01*
X144827253Y-116197431D01*
X144606777Y-116153576D01*
X144499559Y-116132249D01*
X144499557Y-116132248D01*
X144256491Y-116108308D01*
X144167056Y-116099500D01*
X143832944Y-116099500D01*
X143734700Y-116109176D01*
X143500444Y-116132248D01*
X143172746Y-116197431D01*
X142853032Y-116294414D01*
X142544354Y-116422273D01*
X142544327Y-116422286D01*
X142249687Y-116579773D01*
X141971880Y-116765400D01*
X141713615Y-116977352D01*
X141477352Y-117213615D01*
X141265400Y-117471880D01*
X141079773Y-117749687D01*
X140922286Y-118044327D01*
X140922273Y-118044354D01*
X140794414Y-118353032D01*
X140697431Y-118672746D01*
X140632248Y-119000444D01*
X140599500Y-119332946D01*
X118107878Y-119332946D01*
X118106559Y-119332065D01*
X117995238Y-119257681D01*
X117995229Y-119257677D01*
X117822249Y-119186026D01*
X117638618Y-119149500D01*
X117638616Y-119149500D01*
X117451384Y-119149500D01*
X117451381Y-119149500D01*
X117267750Y-119186026D01*
X117094770Y-119257677D01*
X117094761Y-119257681D01*
X116939092Y-119361698D01*
X116939088Y-119361701D01*
X116806701Y-119494088D01*
X116806698Y-119494092D01*
X116702681Y-119649761D01*
X116702677Y-119649770D01*
X116631026Y-119822750D01*
X116594500Y-120006381D01*
X113655499Y-120006381D01*
X113618973Y-119822749D01*
X113547322Y-119649769D01*
X113547320Y-119649767D01*
X113547318Y-119649761D01*
X113487649Y-119560463D01*
X113443302Y-119494092D01*
X113310908Y-119361698D01*
X113266559Y-119332065D01*
X113155238Y-119257681D01*
X113155229Y-119257677D01*
X112982249Y-119186026D01*
X112798618Y-119149500D01*
X112798616Y-119149500D01*
X112611384Y-119149500D01*
X112611381Y-119149500D01*
X112427750Y-119186026D01*
X112254770Y-119257677D01*
X112254761Y-119257681D01*
X112099092Y-119361698D01*
X112099088Y-119361701D01*
X111966701Y-119494088D01*
X111966698Y-119494092D01*
X111862681Y-119649761D01*
X111862677Y-119649770D01*
X111791026Y-119822750D01*
X111754500Y-120006381D01*
X67366394Y-120006381D01*
X67367751Y-119999559D01*
X67400500Y-119667056D01*
X67400500Y-119332944D01*
X67367751Y-119000441D01*
X67302569Y-118672749D01*
X67268608Y-118560793D01*
X67205585Y-118353032D01*
X67150076Y-118219020D01*
X67077723Y-118044346D01*
X67030135Y-117955314D01*
X66920226Y-117749687D01*
X66827412Y-117610783D01*
X66734601Y-117471882D01*
X66522643Y-117213610D01*
X66286390Y-116977357D01*
X66028118Y-116765399D01*
X65946272Y-116710711D01*
X65750312Y-116579773D01*
X65455672Y-116422286D01*
X65455660Y-116422280D01*
X65455654Y-116422277D01*
X65455649Y-116422274D01*
X65455645Y-116422273D01*
X65146967Y-116294414D01*
X65035860Y-116260711D01*
X64827253Y-116197431D01*
X64606777Y-116153576D01*
X64499559Y-116132249D01*
X64499557Y-116132248D01*
X64256491Y-116108308D01*
X64167056Y-116099500D01*
X63832944Y-116099500D01*
X63734700Y-116109176D01*
X63500444Y-116132248D01*
X63172746Y-116197431D01*
X62853032Y-116294414D01*
X62544354Y-116422273D01*
X62544327Y-116422286D01*
X62249687Y-116579773D01*
X61971880Y-116765400D01*
X61713615Y-116977352D01*
X61477352Y-117213615D01*
X61265400Y-117471880D01*
X61079773Y-117749687D01*
X60922286Y-118044327D01*
X60922273Y-118044354D01*
X60794414Y-118353032D01*
X60697431Y-118672746D01*
X60632248Y-119000444D01*
X60599500Y-119332946D01*
X58500500Y-119332946D01*
X58500500Y-114532189D01*
X66200000Y-114532189D01*
X66200000Y-114787810D01*
X66233364Y-115041234D01*
X66233364Y-115041239D01*
X66299523Y-115288151D01*
X66397343Y-115524308D01*
X66525154Y-115745685D01*
X66605739Y-115850704D01*
X67395884Y-115060559D01*
X67396740Y-115062626D01*
X67489762Y-115201844D01*
X67608156Y-115320238D01*
X67747374Y-115413260D01*
X67749437Y-115414114D01*
X66959293Y-116204259D01*
X67064315Y-116284845D01*
X67285691Y-116412656D01*
X67521848Y-116510476D01*
X67768762Y-116576635D01*
X68022189Y-116609999D01*
X68022191Y-116610000D01*
X68277809Y-116610000D01*
X68277810Y-116609999D01*
X68531234Y-116576635D01*
X68531239Y-116576635D01*
X68778151Y-116510476D01*
X69014308Y-116412656D01*
X69235688Y-116284842D01*
X69340706Y-116204259D01*
X68550561Y-115414114D01*
X68552626Y-115413260D01*
X68691844Y-115320238D01*
X68810238Y-115201844D01*
X68903260Y-115062626D01*
X68904114Y-115060561D01*
X69694259Y-115850706D01*
X69774842Y-115745688D01*
X69902656Y-115524308D01*
X70000476Y-115288151D01*
X70066635Y-115041239D01*
X70066635Y-115041234D01*
X70099999Y-114787810D01*
X70100000Y-114787809D01*
X70100000Y-114532191D01*
X70099999Y-114532189D01*
X70066635Y-114278765D01*
X70066635Y-114278760D01*
X70000476Y-114031848D01*
X69902656Y-113795691D01*
X69774845Y-113574315D01*
X69694258Y-113469293D01*
X68904114Y-114259437D01*
X68903260Y-114257374D01*
X68810238Y-114118156D01*
X68691844Y-113999762D01*
X68552626Y-113906740D01*
X68550559Y-113905884D01*
X69340705Y-113115739D01*
X69235685Y-113035154D01*
X69014308Y-112907343D01*
X68809755Y-112822614D01*
X68763229Y-112782877D01*
X68748946Y-112723382D01*
X68772361Y-112666854D01*
X68809753Y-112639688D01*
X68970212Y-112573224D01*
X69180289Y-112451936D01*
X69372738Y-112304265D01*
X69544265Y-112132738D01*
X69691936Y-111940289D01*
X69813224Y-111730212D01*
X69906054Y-111506100D01*
X69968838Y-111271789D01*
X70000500Y-111031288D01*
X70000500Y-110788712D01*
X69968838Y-110548211D01*
X69906054Y-110313900D01*
X69881781Y-110255301D01*
X69876981Y-110194306D01*
X69903240Y-110147415D01*
X75349452Y-104701204D01*
X105648300Y-104701204D01*
X105648300Y-104839195D01*
X105658531Y-104890628D01*
X105673779Y-104967286D01*
X105675220Y-104974527D01*
X105675220Y-104974529D01*
X105728022Y-105102006D01*
X105728028Y-105102017D01*
X105804685Y-105216741D01*
X105902258Y-105314314D01*
X106016982Y-105390971D01*
X106016993Y-105390977D01*
X106064083Y-105410482D01*
X106144472Y-105443780D01*
X106279807Y-105470700D01*
X106279814Y-105470700D01*
X106284643Y-105471176D01*
X106284391Y-105473726D01*
X106333269Y-105489607D01*
X106345081Y-105499696D01*
X106488485Y-105643099D01*
X106488490Y-105643103D01*
X106602610Y-105708990D01*
X106602608Y-105708990D01*
X106602612Y-105708991D01*
X106602614Y-105708992D01*
X106729908Y-105743100D01*
X106861693Y-105743100D01*
X107885236Y-105743100D01*
X107943427Y-105762007D01*
X107955240Y-105772096D01*
X107969858Y-105786714D01*
X108084582Y-105863371D01*
X108084593Y-105863377D01*
X108131683Y-105882882D01*
X108212072Y-105916180D01*
X108347407Y-105943100D01*
X108347408Y-105943100D01*
X108485392Y-105943100D01*
X108485393Y-105943100D01*
X108620728Y-105916180D01*
X108748211Y-105863375D01*
X108862942Y-105786714D01*
X108960514Y-105689142D01*
X109037175Y-105574411D01*
X109089980Y-105446928D01*
X109116900Y-105311593D01*
X109116900Y-105173607D01*
X109089980Y-105038272D01*
X109063577Y-104974529D01*
X109037177Y-104910793D01*
X109037171Y-104910782D01*
X108960514Y-104796058D01*
X108862941Y-104698485D01*
X108748217Y-104621828D01*
X108748206Y-104621822D01*
X108620728Y-104569020D01*
X108485395Y-104542100D01*
X108485393Y-104542100D01*
X108347407Y-104542100D01*
X108347404Y-104542100D01*
X108212072Y-104569020D01*
X108212070Y-104569020D01*
X108084593Y-104621822D01*
X108084582Y-104621828D01*
X107969858Y-104698485D01*
X107969854Y-104698489D01*
X107955240Y-104713104D01*
X107900723Y-104740881D01*
X107885236Y-104742100D01*
X107138682Y-104742100D01*
X107080491Y-104723193D01*
X107044527Y-104673693D01*
X107041584Y-104662415D01*
X107023006Y-104569020D01*
X107022380Y-104565872D01*
X106969575Y-104438389D01*
X106969574Y-104438387D01*
X106969571Y-104438382D01*
X106892914Y-104323658D01*
X106795341Y-104226085D01*
X106680617Y-104149428D01*
X106680606Y-104149422D01*
X106553128Y-104096620D01*
X106417795Y-104069700D01*
X106417793Y-104069700D01*
X106279807Y-104069700D01*
X106279804Y-104069700D01*
X106144472Y-104096620D01*
X106144470Y-104096620D01*
X106016993Y-104149422D01*
X106016982Y-104149428D01*
X105902258Y-104226085D01*
X105804685Y-104323658D01*
X105728028Y-104438382D01*
X105728022Y-104438393D01*
X105675220Y-104565870D01*
X105675220Y-104565872D01*
X105648300Y-104701204D01*
X75349452Y-104701204D01*
X76104113Y-103946543D01*
X76180774Y-103831812D01*
X76180775Y-103831811D01*
X76233580Y-103704328D01*
X76260500Y-103568993D01*
X76260500Y-101471165D01*
X76279407Y-101412974D01*
X76289496Y-101401161D01*
X78261161Y-99429496D01*
X78315678Y-99401719D01*
X78331165Y-99400500D01*
X83849023Y-99400500D01*
X83907214Y-99419407D01*
X83943178Y-99468907D01*
X83943178Y-99530093D01*
X83907214Y-99579593D01*
X83893793Y-99587108D01*
X83893834Y-99587178D01*
X83838095Y-99619359D01*
X83751284Y-99669479D01*
X83639479Y-99781283D01*
X83639480Y-99781284D01*
X83639478Y-99781286D01*
X82746477Y-100674286D01*
X82691960Y-100702063D01*
X82638588Y-100695746D01*
X82631835Y-100692949D01*
X82631833Y-100692948D01*
X82631832Y-100692948D01*
X82438543Y-100654500D01*
X82438541Y-100654500D01*
X82241459Y-100654500D01*
X82241456Y-100654500D01*
X82048165Y-100692949D01*
X82048163Y-100692949D01*
X81866086Y-100768367D01*
X81702218Y-100877861D01*
X81702214Y-100877864D01*
X81562864Y-101017214D01*
X81562861Y-101017218D01*
X81453368Y-101181085D01*
X81431464Y-101233967D01*
X81391727Y-101280492D01*
X81332233Y-101294776D01*
X81275705Y-101271361D01*
X81248536Y-101233967D01*
X81244206Y-101223514D01*
X81226632Y-101181086D01*
X81117139Y-101017218D01*
X80977782Y-100877861D01*
X80868072Y-100804555D01*
X80813913Y-100768367D01*
X80631835Y-100692949D01*
X80438543Y-100654500D01*
X80438541Y-100654500D01*
X80241459Y-100654500D01*
X80241456Y-100654500D01*
X80048165Y-100692949D01*
X80048163Y-100692949D01*
X79866086Y-100768367D01*
X79702218Y-100877861D01*
X79702214Y-100877864D01*
X79562860Y-101017218D01*
X79486443Y-101131584D01*
X79438393Y-101169463D01*
X79377254Y-101171865D01*
X79326381Y-101137872D01*
X79309060Y-101104204D01*
X79291744Y-101044602D01*
X79208081Y-100903135D01*
X79091865Y-100786919D01*
X78950398Y-100703256D01*
X78792569Y-100657402D01*
X78792568Y-100657401D01*
X78792565Y-100657401D01*
X78769140Y-100655558D01*
X78755694Y-100654500D01*
X77924306Y-100654500D01*
X77911773Y-100655486D01*
X77887434Y-100657401D01*
X77887427Y-100657403D01*
X77729602Y-100703256D01*
X77588136Y-100786918D01*
X77471918Y-100903136D01*
X77388256Y-101044602D01*
X77342403Y-101202427D01*
X77342401Y-101202434D01*
X77339500Y-101239311D01*
X77339500Y-102620688D01*
X77342401Y-102657565D01*
X77342401Y-102657568D01*
X77342402Y-102657569D01*
X77388256Y-102815398D01*
X77471919Y-102956865D01*
X77588135Y-103073081D01*
X77729602Y-103156744D01*
X77887431Y-103202598D01*
X77924306Y-103205500D01*
X77924311Y-103205500D01*
X78755689Y-103205500D01*
X78755694Y-103205500D01*
X78792569Y-103202598D01*
X78950398Y-103156744D01*
X79091865Y-103073081D01*
X79208081Y-102956865D01*
X79291744Y-102815398D01*
X79309060Y-102755794D01*
X79343450Y-102705192D01*
X79401018Y-102684466D01*
X79459774Y-102701536D01*
X79486443Y-102728415D01*
X79518445Y-102776309D01*
X79562861Y-102842782D01*
X79702218Y-102982139D01*
X79866086Y-103091632D01*
X80048165Y-103167051D01*
X80241459Y-103205500D01*
X80241460Y-103205500D01*
X80438540Y-103205500D01*
X80438541Y-103205500D01*
X80631835Y-103167051D01*
X80813914Y-103091632D01*
X80977782Y-102982139D01*
X81117139Y-102842782D01*
X81226632Y-102678914D01*
X81248536Y-102626033D01*
X81288272Y-102579507D01*
X81347767Y-102565223D01*
X81404295Y-102588637D01*
X81431464Y-102626033D01*
X81453367Y-102678913D01*
X81470926Y-102705192D01*
X81562861Y-102842782D01*
X81702218Y-102982139D01*
X81866086Y-103091632D01*
X82048165Y-103167051D01*
X82241459Y-103205500D01*
X82241460Y-103205500D01*
X82438540Y-103205500D01*
X82438541Y-103205500D01*
X82631835Y-103167051D01*
X82813914Y-103091632D01*
X82977782Y-102982139D01*
X83117139Y-102842782D01*
X83226632Y-102678914D01*
X83248536Y-102626033D01*
X83288272Y-102579507D01*
X83347767Y-102565223D01*
X83404295Y-102588637D01*
X83431464Y-102626033D01*
X83453367Y-102678913D01*
X83470926Y-102705192D01*
X83562861Y-102842782D01*
X83702218Y-102982139D01*
X83866086Y-103091632D01*
X84048165Y-103167051D01*
X84241459Y-103205500D01*
X84241460Y-103205500D01*
X84438540Y-103205500D01*
X84438541Y-103205500D01*
X84631835Y-103167051D01*
X84813914Y-103091632D01*
X84977782Y-102982139D01*
X85117139Y-102842782D01*
X85226632Y-102678914D01*
X85248536Y-102626033D01*
X85288272Y-102579507D01*
X85347767Y-102565223D01*
X85404295Y-102588637D01*
X85431464Y-102626033D01*
X85453367Y-102678913D01*
X85470926Y-102705192D01*
X85562861Y-102842782D01*
X85702218Y-102982139D01*
X85866086Y-103091632D01*
X86048165Y-103167051D01*
X86241459Y-103205500D01*
X86241460Y-103205500D01*
X86438540Y-103205500D01*
X86438541Y-103205500D01*
X86631835Y-103167051D01*
X86813914Y-103091632D01*
X86977782Y-102982139D01*
X87117139Y-102842782D01*
X87166603Y-102768752D01*
X87201033Y-102717226D01*
X87249082Y-102679346D01*
X87310221Y-102676944D01*
X87361094Y-102710937D01*
X87371558Y-102727282D01*
X87399195Y-102781524D01*
X87399197Y-102781528D01*
X87500962Y-102921596D01*
X87623403Y-103044037D01*
X87763471Y-103145802D01*
X87763475Y-103145804D01*
X87917751Y-103224411D01*
X88082413Y-103277913D01*
X88090000Y-103279114D01*
X88090000Y-102210330D01*
X88109745Y-102230075D01*
X88195255Y-102279444D01*
X88290630Y-102305000D01*
X88389370Y-102305000D01*
X88484745Y-102279444D01*
X88570255Y-102230075D01*
X88590000Y-102210330D01*
X88590000Y-103279114D01*
X88597586Y-103277913D01*
X88762248Y-103224411D01*
X88916524Y-103145804D01*
X88916528Y-103145802D01*
X89056596Y-103044037D01*
X89179037Y-102921596D01*
X89280802Y-102781528D01*
X89280804Y-102781524D01*
X89359411Y-102627248D01*
X89412915Y-102462579D01*
X89440000Y-102291575D01*
X89440000Y-102180001D01*
X89439999Y-102180000D01*
X88620330Y-102180000D01*
X88640075Y-102160255D01*
X88689444Y-102074745D01*
X88715000Y-101979370D01*
X88715000Y-101880630D01*
X88689444Y-101785255D01*
X88640075Y-101699745D01*
X88620330Y-101680000D01*
X89439999Y-101680000D01*
X89440000Y-101679999D01*
X89440000Y-101568424D01*
X89412915Y-101397420D01*
X89359411Y-101232751D01*
X89280804Y-101078475D01*
X89280802Y-101078471D01*
X89179037Y-100938403D01*
X89056596Y-100815962D01*
X88916528Y-100714197D01*
X88916524Y-100714195D01*
X88762248Y-100635588D01*
X88637687Y-100595116D01*
X88588187Y-100559152D01*
X88569280Y-100500961D01*
X88588187Y-100442770D01*
X88598270Y-100430963D01*
X89278713Y-99750521D01*
X89278716Y-99750520D01*
X89390520Y-99638716D01*
X89442028Y-99549500D01*
X89469577Y-99501785D01*
X89510501Y-99349057D01*
X89510501Y-99190943D01*
X89510501Y-99184881D01*
X89510500Y-99184863D01*
X89510500Y-92694425D01*
X89527184Y-92639425D01*
X89600266Y-92530051D01*
X89660609Y-92384369D01*
X89691372Y-92229714D01*
X89691372Y-92072030D01*
X89660609Y-91917375D01*
X89600266Y-91771693D01*
X89600265Y-91771691D01*
X89600262Y-91771686D01*
X89554996Y-91703942D01*
X89512661Y-91640583D01*
X89401161Y-91529083D01*
X89348931Y-91494184D01*
X89270057Y-91441481D01*
X89270046Y-91441475D01*
X89124369Y-91381135D01*
X88969716Y-91350372D01*
X88969714Y-91350372D01*
X88812030Y-91350372D01*
X88812027Y-91350372D01*
X88657375Y-91381135D01*
X88657373Y-91381135D01*
X88511697Y-91441475D01*
X88511686Y-91441481D01*
X88380583Y-91529083D01*
X88380579Y-91529086D01*
X88269086Y-91640579D01*
X88269083Y-91640583D01*
X88181481Y-91771686D01*
X88181475Y-91771697D01*
X88121135Y-91917373D01*
X88121135Y-91917375D01*
X88090372Y-92072027D01*
X88090372Y-92229716D01*
X88121135Y-92384368D01*
X88121135Y-92384370D01*
X88181475Y-92530046D01*
X88181481Y-92530057D01*
X88234184Y-92608931D01*
X88269083Y-92661161D01*
X88269086Y-92661164D01*
X88280504Y-92672582D01*
X88308281Y-92727099D01*
X88309500Y-92742586D01*
X88309500Y-98980257D01*
X88290593Y-99038448D01*
X88280504Y-99050261D01*
X87810261Y-99520504D01*
X87755744Y-99548281D01*
X87740257Y-99549500D01*
X86177326Y-99549500D01*
X86119135Y-99530593D01*
X86083171Y-99481093D01*
X86083171Y-99419907D01*
X86119135Y-99370407D01*
X86139441Y-99359036D01*
X86210416Y-99329637D01*
X86231811Y-99320775D01*
X86346543Y-99244114D01*
X87378105Y-98212550D01*
X87410221Y-98191093D01*
X87413492Y-98189737D01*
X87413497Y-98189737D01*
X87559179Y-98129394D01*
X87690289Y-98041789D01*
X87801789Y-97930289D01*
X87889394Y-97799179D01*
X87949737Y-97653497D01*
X87980500Y-97498842D01*
X87980500Y-97341158D01*
X87949737Y-97186503D01*
X87889394Y-97040821D01*
X87889393Y-97040819D01*
X87889390Y-97040814D01*
X87854017Y-96987876D01*
X87801789Y-96909711D01*
X87690289Y-96798211D01*
X87638059Y-96763312D01*
X87559185Y-96710609D01*
X87559174Y-96710603D01*
X87413497Y-96650263D01*
X87258844Y-96619500D01*
X87258842Y-96619500D01*
X87101158Y-96619500D01*
X87101155Y-96619500D01*
X86946503Y-96650263D01*
X86946501Y-96650263D01*
X86800825Y-96710603D01*
X86800814Y-96710609D01*
X86669711Y-96798211D01*
X86669707Y-96798214D01*
X86558214Y-96909707D01*
X86558211Y-96909711D01*
X86470609Y-97040814D01*
X86470605Y-97040822D01*
X86408906Y-97189777D01*
X86387446Y-97221894D01*
X85638839Y-97970503D01*
X85584322Y-97998281D01*
X85568835Y-97999500D01*
X77931003Y-97999500D01*
X77795672Y-98026420D01*
X77795670Y-98026420D01*
X77668191Y-98079223D01*
X77553460Y-98155883D01*
X76429504Y-99279839D01*
X76374987Y-99307616D01*
X76314555Y-99298045D01*
X76271290Y-99254780D01*
X76260500Y-99209835D01*
X76260500Y-98471164D01*
X76279407Y-98412973D01*
X76289490Y-98401166D01*
X86944114Y-87746543D01*
X87020775Y-87631811D01*
X87073580Y-87504328D01*
X87100500Y-87368994D01*
X87100500Y-87231006D01*
X87100500Y-84420343D01*
X87108036Y-84382458D01*
X87129911Y-84329645D01*
X87169737Y-84233497D01*
X87200500Y-84078842D01*
X87200500Y-83921158D01*
X87169737Y-83766503D01*
X87109394Y-83620821D01*
X87109393Y-83620819D01*
X87109390Y-83620814D01*
X87061391Y-83548980D01*
X87021789Y-83489711D01*
X86910289Y-83378211D01*
X86858059Y-83343312D01*
X86779185Y-83290609D01*
X86779174Y-83290603D01*
X86633497Y-83230263D01*
X86478844Y-83199500D01*
X86478842Y-83199500D01*
X86321158Y-83199500D01*
X86321155Y-83199500D01*
X86166503Y-83230263D01*
X86166501Y-83230263D01*
X86020825Y-83290603D01*
X86020814Y-83290609D01*
X85889711Y-83378211D01*
X85889707Y-83378214D01*
X85778214Y-83489707D01*
X85778211Y-83489711D01*
X85690609Y-83620814D01*
X85690603Y-83620825D01*
X85630263Y-83766501D01*
X85630263Y-83766503D01*
X85599500Y-83921155D01*
X85599500Y-84078844D01*
X85630263Y-84233496D01*
X85630263Y-84233498D01*
X85691964Y-84382458D01*
X85699500Y-84420343D01*
X85699500Y-86968835D01*
X85680593Y-87027026D01*
X85670504Y-87038839D01*
X75015883Y-97693460D01*
X74939223Y-97808191D01*
X74886420Y-97935670D01*
X74886420Y-97935672D01*
X74869547Y-98020499D01*
X74859500Y-98071006D01*
X74859500Y-103168834D01*
X74840593Y-103227025D01*
X74830504Y-103238838D01*
X69968060Y-108101281D01*
X69913543Y-108129058D01*
X69853111Y-108119487D01*
X69809846Y-108076222D01*
X69800275Y-108015790D01*
X69811839Y-107983137D01*
X69811793Y-107983114D01*
X69811988Y-107982716D01*
X69812323Y-107981771D01*
X69813224Y-107980212D01*
X69906054Y-107756100D01*
X69968838Y-107521789D01*
X70000500Y-107281288D01*
X70000500Y-107038712D01*
X69968838Y-106798211D01*
X69906054Y-106563900D01*
X69813224Y-106339788D01*
X69691936Y-106129711D01*
X69563803Y-105962724D01*
X69544270Y-105937268D01*
X69544268Y-105937266D01*
X69544265Y-105937262D01*
X69372738Y-105765735D01*
X69372733Y-105765731D01*
X69372731Y-105765729D01*
X69180292Y-105618066D01*
X69131923Y-105590140D01*
X68970212Y-105496776D01*
X68970208Y-105496774D01*
X68970204Y-105496772D01*
X68746105Y-105403948D01*
X68746104Y-105403947D01*
X68746100Y-105403946D01*
X68511789Y-105341162D01*
X68511786Y-105341161D01*
X68511784Y-105341161D01*
X68271289Y-105309500D01*
X68271288Y-105309500D01*
X68028712Y-105309500D01*
X68028710Y-105309500D01*
X67788218Y-105341161D01*
X67788213Y-105341161D01*
X67553907Y-105403944D01*
X67553894Y-105403948D01*
X67329795Y-105496772D01*
X67119707Y-105618066D01*
X66927268Y-105765729D01*
X66755729Y-105937268D01*
X66608066Y-106129707D01*
X66486772Y-106339795D01*
X66393948Y-106563894D01*
X66393944Y-106563907D01*
X66331161Y-106798213D01*
X66331161Y-106798218D01*
X66299500Y-107038710D01*
X66299500Y-107281289D01*
X66331161Y-107521781D01*
X66331161Y-107521786D01*
X66393944Y-107756092D01*
X66393948Y-107756105D01*
X66486772Y-107980204D01*
X66486774Y-107980208D01*
X66486776Y-107980212D01*
X66599196Y-108174929D01*
X66608066Y-108190292D01*
X66755729Y-108382731D01*
X66755731Y-108382733D01*
X66755735Y-108382738D01*
X66927262Y-108554265D01*
X66927266Y-108554268D01*
X66927268Y-108554270D01*
X67091096Y-108679979D01*
X67119711Y-108701936D01*
X67329788Y-108823224D01*
X67329794Y-108823226D01*
X67329795Y-108823227D01*
X67356950Y-108834475D01*
X67553900Y-108916054D01*
X67640927Y-108939373D01*
X67692242Y-108972697D01*
X67714168Y-109029819D01*
X67698332Y-109088919D01*
X67650782Y-109127425D01*
X67640927Y-109130627D01*
X67553907Y-109153944D01*
X67553894Y-109153948D01*
X67329795Y-109246772D01*
X67119707Y-109368066D01*
X66927268Y-109515729D01*
X66755729Y-109687268D01*
X66608066Y-109879707D01*
X66486772Y-110089795D01*
X66393948Y-110313894D01*
X66393944Y-110313907D01*
X66331161Y-110548213D01*
X66331161Y-110548218D01*
X66299500Y-110788710D01*
X66299500Y-111031289D01*
X66319364Y-111182177D01*
X66331162Y-111271789D01*
X66372518Y-111426129D01*
X66393944Y-111506092D01*
X66393948Y-111506105D01*
X66486772Y-111730204D01*
X66486774Y-111730208D01*
X66486776Y-111730212D01*
X66600334Y-111926900D01*
X66608066Y-111940292D01*
X66755729Y-112132731D01*
X66755731Y-112132733D01*
X66755735Y-112132738D01*
X66927262Y-112304265D01*
X66927266Y-112304268D01*
X66927268Y-112304270D01*
X67119707Y-112451933D01*
X67119711Y-112451936D01*
X67329788Y-112573224D01*
X67490244Y-112639686D01*
X67536769Y-112679422D01*
X67551053Y-112738917D01*
X67527639Y-112795445D01*
X67490244Y-112822614D01*
X67285691Y-112907343D01*
X67064310Y-113035157D01*
X66959293Y-113115739D01*
X67749438Y-113905884D01*
X67747374Y-113906740D01*
X67608156Y-113999762D01*
X67489762Y-114118156D01*
X67396740Y-114257374D01*
X67395884Y-114259438D01*
X66605739Y-113469293D01*
X66525157Y-113574310D01*
X66397343Y-113795691D01*
X66299523Y-114031848D01*
X66233364Y-114278760D01*
X66233364Y-114278765D01*
X66200000Y-114532189D01*
X58500500Y-114532189D01*
X58500500Y-111085297D01*
X62170000Y-111085297D01*
X62170000Y-111314702D01*
X62199942Y-111542133D01*
X62199942Y-111542138D01*
X62259315Y-111763718D01*
X62259319Y-111763731D01*
X62347101Y-111975658D01*
X62461805Y-112174332D01*
X62518381Y-112248062D01*
X63355386Y-111411056D01*
X63360889Y-111431591D01*
X63439881Y-111568408D01*
X63551592Y-111680119D01*
X63688409Y-111759111D01*
X63708941Y-111764612D01*
X62871935Y-112601618D01*
X62945667Y-112658194D01*
X63144341Y-112772898D01*
X63356268Y-112860680D01*
X63356281Y-112860684D01*
X63577863Y-112920057D01*
X63805297Y-112949999D01*
X63805300Y-112950000D01*
X64034700Y-112950000D01*
X64034702Y-112949999D01*
X64262133Y-112920057D01*
X64262138Y-112920057D01*
X64483718Y-112860684D01*
X64483731Y-112860680D01*
X64695658Y-112772898D01*
X64894336Y-112658191D01*
X64968064Y-112601618D01*
X64131058Y-111764612D01*
X64151591Y-111759111D01*
X64288408Y-111680119D01*
X64400119Y-111568408D01*
X64479111Y-111431591D01*
X64484612Y-111411058D01*
X65321618Y-112248064D01*
X65378191Y-112174336D01*
X65492898Y-111975658D01*
X65580680Y-111763731D01*
X65580684Y-111763718D01*
X65640057Y-111542138D01*
X65640057Y-111542133D01*
X65669999Y-111314702D01*
X65670000Y-111314700D01*
X65670000Y-111085300D01*
X65669999Y-111085297D01*
X65640057Y-110857866D01*
X65640057Y-110857861D01*
X65580684Y-110636281D01*
X65580680Y-110636268D01*
X65492898Y-110424341D01*
X65378194Y-110225667D01*
X65321617Y-110151935D01*
X64484612Y-110988941D01*
X64479111Y-110968409D01*
X64400119Y-110831592D01*
X64288408Y-110719881D01*
X64151591Y-110640889D01*
X64131056Y-110635386D01*
X64968062Y-109798381D01*
X64894332Y-109741805D01*
X64695658Y-109627101D01*
X64483731Y-109539319D01*
X64483718Y-109539315D01*
X64262136Y-109479942D01*
X64034702Y-109450000D01*
X63805297Y-109450000D01*
X63577866Y-109479942D01*
X63577861Y-109479942D01*
X63356281Y-109539315D01*
X63356268Y-109539319D01*
X63144341Y-109627101D01*
X62945662Y-109741808D01*
X62871935Y-109798380D01*
X63708942Y-110635387D01*
X63688409Y-110640889D01*
X63551592Y-110719881D01*
X63439881Y-110831592D01*
X63360889Y-110968409D01*
X63355387Y-110988942D01*
X62518380Y-110151935D01*
X62461808Y-110225662D01*
X62347101Y-110424341D01*
X62259319Y-110636268D01*
X62259315Y-110636281D01*
X62199942Y-110857861D01*
X62199942Y-110857866D01*
X62170000Y-111085297D01*
X58500500Y-111085297D01*
X58500500Y-107070099D01*
X62269500Y-107070099D01*
X62269500Y-107329900D01*
X62310138Y-107586488D01*
X62376430Y-107790511D01*
X62390421Y-107833572D01*
X62453802Y-107957964D01*
X62466628Y-107983137D01*
X62508366Y-108065051D01*
X62661069Y-108275229D01*
X62844771Y-108458931D01*
X63054949Y-108611634D01*
X63286428Y-108729579D01*
X63533507Y-108809860D01*
X63533508Y-108809860D01*
X63533511Y-108809861D01*
X63790100Y-108850500D01*
X63790103Y-108850500D01*
X64049900Y-108850500D01*
X64306488Y-108809861D01*
X64306489Y-108809860D01*
X64306493Y-108809860D01*
X64553572Y-108729579D01*
X64785051Y-108611634D01*
X64995229Y-108458931D01*
X65178931Y-108275229D01*
X65331634Y-108065051D01*
X65449579Y-107833572D01*
X65529860Y-107586493D01*
X65540108Y-107521789D01*
X65570500Y-107329900D01*
X65570500Y-107070101D01*
X65567468Y-107050959D01*
X65567468Y-107050958D01*
X65529861Y-106813511D01*
X65524891Y-106798213D01*
X65449579Y-106566428D01*
X65331634Y-106334949D01*
X65178931Y-106124771D01*
X64995229Y-105941069D01*
X64785051Y-105788366D01*
X64785050Y-105788365D01*
X64785048Y-105788364D01*
X64677964Y-105733802D01*
X64553572Y-105670421D01*
X64553569Y-105670420D01*
X64553567Y-105670419D01*
X64306488Y-105590138D01*
X64049900Y-105549500D01*
X64049897Y-105549500D01*
X63790103Y-105549500D01*
X63790100Y-105549500D01*
X63533511Y-105590138D01*
X63286432Y-105670419D01*
X63054951Y-105788364D01*
X62844772Y-105941068D01*
X62661068Y-106124772D01*
X62508364Y-106334951D01*
X62390419Y-106566432D01*
X62310138Y-106813511D01*
X62269500Y-107070099D01*
X58500500Y-107070099D01*
X58500500Y-90290000D01*
X69660886Y-90290000D01*
X70729670Y-90290000D01*
X70709925Y-90309745D01*
X70660556Y-90395255D01*
X70635000Y-90490630D01*
X70635000Y-90589370D01*
X70660556Y-90684745D01*
X70709925Y-90770255D01*
X70729670Y-90790000D01*
X69660886Y-90790000D01*
X69662086Y-90797586D01*
X69715588Y-90962248D01*
X69794195Y-91116524D01*
X69794197Y-91116528D01*
X69895962Y-91256596D01*
X70018403Y-91379037D01*
X70158471Y-91480802D01*
X70158485Y-91480810D01*
X70212717Y-91508443D01*
X70255982Y-91551707D01*
X70265553Y-91612139D01*
X70237775Y-91666656D01*
X70222774Y-91678967D01*
X70097218Y-91762861D01*
X70097214Y-91762864D01*
X69957864Y-91902214D01*
X69957861Y-91902218D01*
X69848367Y-92066086D01*
X69772949Y-92248163D01*
X69772949Y-92248165D01*
X69734500Y-92441456D01*
X69734500Y-92638543D01*
X69772949Y-92831834D01*
X69772949Y-92831836D01*
X69848367Y-93013913D01*
X69848368Y-93013914D01*
X69957861Y-93177782D01*
X70097218Y-93317139D01*
X70261086Y-93426632D01*
X70303514Y-93444206D01*
X70313967Y-93448536D01*
X70360492Y-93488273D01*
X70374776Y-93547767D01*
X70351361Y-93604295D01*
X70313967Y-93631464D01*
X70261085Y-93653368D01*
X70097218Y-93762861D01*
X70097214Y-93762864D01*
X69957864Y-93902214D01*
X69957861Y-93902218D01*
X69848367Y-94066086D01*
X69772949Y-94248163D01*
X69772949Y-94248165D01*
X69734500Y-94441456D01*
X69734500Y-94638543D01*
X69750858Y-94720777D01*
X69772602Y-94830093D01*
X69772949Y-94831834D01*
X69772949Y-94831836D01*
X69848367Y-95013913D01*
X69848368Y-95013914D01*
X69957861Y-95177782D01*
X70097218Y-95317139D01*
X70261086Y-95426632D01*
X70303514Y-95444206D01*
X70313967Y-95448536D01*
X70360492Y-95488273D01*
X70374776Y-95547767D01*
X70351361Y-95604295D01*
X70313967Y-95631464D01*
X70261085Y-95653368D01*
X70097218Y-95762861D01*
X70097214Y-95762864D01*
X69957864Y-95902214D01*
X69957861Y-95902218D01*
X69848367Y-96066086D01*
X69772949Y-96248163D01*
X69772949Y-96248165D01*
X69734500Y-96441456D01*
X69734500Y-96638543D01*
X69772949Y-96831834D01*
X69772949Y-96831836D01*
X69848367Y-97013913D01*
X69866347Y-97040822D01*
X69957861Y-97177782D01*
X70097218Y-97317139D01*
X70261086Y-97426632D01*
X70303514Y-97444206D01*
X70313967Y-97448536D01*
X70360492Y-97488273D01*
X70374776Y-97547767D01*
X70351361Y-97604295D01*
X70313967Y-97631464D01*
X70261085Y-97653368D01*
X70097218Y-97762861D01*
X70097214Y-97762864D01*
X69957864Y-97902214D01*
X69957861Y-97902218D01*
X69848367Y-98066086D01*
X69772949Y-98248163D01*
X69772949Y-98248165D01*
X69734500Y-98441456D01*
X69734500Y-98638543D01*
X69772949Y-98831834D01*
X69772949Y-98831836D01*
X69848367Y-99013913D01*
X69860323Y-99031806D01*
X69957861Y-99177782D01*
X70097218Y-99317139D01*
X70196699Y-99383610D01*
X70211584Y-99393556D01*
X70249463Y-99441606D01*
X70251865Y-99502744D01*
X70217872Y-99553618D01*
X70184203Y-99570940D01*
X70124601Y-99588256D01*
X69983136Y-99671918D01*
X69866918Y-99788136D01*
X69783256Y-99929602D01*
X69737403Y-100087427D01*
X69737401Y-100087434D01*
X69734500Y-100124311D01*
X69734500Y-100955688D01*
X69737401Y-100992565D01*
X69737401Y-100992568D01*
X69737402Y-100992569D01*
X69783256Y-101150398D01*
X69866919Y-101291865D01*
X69983135Y-101408081D01*
X70124602Y-101491744D01*
X70282431Y-101537598D01*
X70319306Y-101540500D01*
X70319311Y-101540500D01*
X71700689Y-101540500D01*
X71700694Y-101540500D01*
X71737569Y-101537598D01*
X71895398Y-101491744D01*
X72036865Y-101408081D01*
X72153081Y-101291865D01*
X72236744Y-101150398D01*
X72282598Y-100992569D01*
X72285500Y-100955694D01*
X72285500Y-100124306D01*
X72282598Y-100087431D01*
X72236744Y-99929602D01*
X72153081Y-99788135D01*
X72036865Y-99671919D01*
X71895398Y-99588256D01*
X71835795Y-99570939D01*
X71785191Y-99536548D01*
X71764466Y-99478980D01*
X71781537Y-99420224D01*
X71808413Y-99393557D01*
X71922782Y-99317139D01*
X72062139Y-99177782D01*
X72171632Y-99013914D01*
X72247051Y-98831835D01*
X72285500Y-98638541D01*
X72285500Y-98441459D01*
X72247051Y-98248165D01*
X72171632Y-98066086D01*
X72062139Y-97902218D01*
X71922782Y-97762861D01*
X71759109Y-97653498D01*
X71758913Y-97653367D01*
X71706033Y-97631464D01*
X71659507Y-97591728D01*
X71645223Y-97532233D01*
X71668637Y-97475705D01*
X71706033Y-97448536D01*
X71719696Y-97442876D01*
X71758914Y-97426632D01*
X71922782Y-97317139D01*
X72062139Y-97177782D01*
X72171632Y-97013914D01*
X72247051Y-96831835D01*
X72285500Y-96638541D01*
X72285500Y-96441459D01*
X72247051Y-96248165D01*
X72171632Y-96066086D01*
X72062139Y-95902218D01*
X71922782Y-95762861D01*
X71791871Y-95675389D01*
X71758913Y-95653367D01*
X71706033Y-95631464D01*
X71659507Y-95591728D01*
X71645223Y-95532233D01*
X71668637Y-95475705D01*
X71706033Y-95448536D01*
X71749119Y-95430689D01*
X71758914Y-95426632D01*
X71922782Y-95317139D01*
X72062139Y-95177782D01*
X72171632Y-95013914D01*
X72247051Y-94831835D01*
X72285500Y-94638541D01*
X72285500Y-94441459D01*
X72247051Y-94248165D01*
X72171632Y-94066086D01*
X72062139Y-93902218D01*
X71922782Y-93762861D01*
X71806382Y-93685085D01*
X71758913Y-93653367D01*
X71706033Y-93631464D01*
X71659507Y-93591728D01*
X71645223Y-93532233D01*
X71668637Y-93475705D01*
X71706033Y-93448536D01*
X71723164Y-93441440D01*
X71758914Y-93426632D01*
X71922782Y-93317139D01*
X72062139Y-93177782D01*
X72171632Y-93013914D01*
X72247051Y-92831835D01*
X72285500Y-92638541D01*
X72285500Y-92441459D01*
X72247051Y-92248165D01*
X72171632Y-92066086D01*
X72062139Y-91902218D01*
X71922782Y-91762861D01*
X71884812Y-91737490D01*
X71797226Y-91678966D01*
X71759347Y-91630916D01*
X71756945Y-91569778D01*
X71790938Y-91518904D01*
X71807284Y-91508441D01*
X71861520Y-91480807D01*
X71861528Y-91480802D01*
X72001596Y-91379037D01*
X72124037Y-91256596D01*
X72225802Y-91116528D01*
X72225804Y-91116524D01*
X72304411Y-90962248D01*
X72357913Y-90797586D01*
X72359114Y-90790000D01*
X71290330Y-90790000D01*
X71310075Y-90770255D01*
X71359444Y-90684745D01*
X71385000Y-90589370D01*
X71385000Y-90490630D01*
X71359444Y-90395255D01*
X71310075Y-90309745D01*
X71290330Y-90290000D01*
X72359114Y-90290000D01*
X72357913Y-90282413D01*
X72304411Y-90117751D01*
X72225804Y-89963475D01*
X72225802Y-89963471D01*
X72124037Y-89823403D01*
X72001596Y-89700962D01*
X71861528Y-89599197D01*
X71861524Y-89599195D01*
X71707248Y-89520588D01*
X71542579Y-89467084D01*
X71371575Y-89440000D01*
X71260001Y-89440000D01*
X71260000Y-89440001D01*
X71260000Y-90259670D01*
X71240255Y-90239925D01*
X71154745Y-90190556D01*
X71059370Y-90165000D01*
X70960630Y-90165000D01*
X70865255Y-90190556D01*
X70779745Y-90239925D01*
X70760000Y-90259670D01*
X70760000Y-89440001D01*
X70759999Y-89440000D01*
X70648425Y-89440000D01*
X70477420Y-89467084D01*
X70312751Y-89520588D01*
X70158475Y-89599195D01*
X70158471Y-89599197D01*
X70018403Y-89700962D01*
X69895962Y-89823403D01*
X69794197Y-89963471D01*
X69794195Y-89963475D01*
X69715588Y-90117751D01*
X69662086Y-90282413D01*
X69660886Y-90290000D01*
X58500500Y-90290000D01*
X58500500Y-82090000D01*
X70620886Y-82090000D01*
X71689670Y-82090000D01*
X71669925Y-82109745D01*
X71620556Y-82195255D01*
X71595000Y-82290630D01*
X71595000Y-82389370D01*
X71620556Y-82484745D01*
X71669925Y-82570255D01*
X71689670Y-82590000D01*
X70620886Y-82590000D01*
X70622086Y-82597586D01*
X70675588Y-82762248D01*
X70754195Y-82916524D01*
X70754197Y-82916528D01*
X70855962Y-83056596D01*
X70978403Y-83179037D01*
X71118471Y-83280802D01*
X71118475Y-83280804D01*
X71272751Y-83359411D01*
X71437420Y-83412915D01*
X71608425Y-83440000D01*
X71719999Y-83440000D01*
X71720000Y-83439999D01*
X71720000Y-82620330D01*
X71739745Y-82640075D01*
X71825255Y-82689444D01*
X71920630Y-82715000D01*
X72019370Y-82715000D01*
X72114745Y-82689444D01*
X72200255Y-82640075D01*
X72220000Y-82620330D01*
X72220000Y-83439999D01*
X72220001Y-83440000D01*
X72331575Y-83440000D01*
X72502579Y-83412915D01*
X72667248Y-83359411D01*
X72821524Y-83280804D01*
X72821528Y-83280802D01*
X72961596Y-83179037D01*
X73084037Y-83056596D01*
X73185802Y-82916528D01*
X73185804Y-82916524D01*
X73264411Y-82762248D01*
X73317913Y-82597586D01*
X73319114Y-82590000D01*
X72250330Y-82590000D01*
X72270075Y-82570255D01*
X72319444Y-82484745D01*
X72345000Y-82389370D01*
X72345000Y-82290630D01*
X72319444Y-82195255D01*
X72270075Y-82109745D01*
X72250330Y-82090000D01*
X73319114Y-82090000D01*
X73317913Y-82082413D01*
X73264411Y-81917751D01*
X73185804Y-81763475D01*
X73185802Y-81763471D01*
X73084037Y-81623403D01*
X72961596Y-81500962D01*
X72821528Y-81399197D01*
X72821524Y-81399195D01*
X72767282Y-81371558D01*
X72724017Y-81328293D01*
X72714446Y-81267861D01*
X72742223Y-81213345D01*
X72757226Y-81201033D01*
X72825071Y-81155700D01*
X72882782Y-81117139D01*
X73022139Y-80977782D01*
X73131632Y-80813914D01*
X73207051Y-80631835D01*
X73245500Y-80438541D01*
X73245500Y-80241459D01*
X73207051Y-80048165D01*
X73131632Y-79866086D01*
X73022139Y-79702218D01*
X72882782Y-79562861D01*
X72718914Y-79453368D01*
X72718915Y-79453368D01*
X72718913Y-79453367D01*
X72666033Y-79431464D01*
X72652314Y-79419747D01*
X72636003Y-79412032D01*
X72629619Y-79400364D01*
X72619507Y-79391728D01*
X72615294Y-79374183D01*
X72606635Y-79358356D01*
X72608328Y-79345166D01*
X72605223Y-79332233D01*
X72612128Y-79315562D01*
X72614425Y-79297668D01*
X72622869Y-79289628D01*
X72628637Y-79275705D01*
X72630977Y-79273804D01*
X91271900Y-79273804D01*
X91271900Y-79411795D01*
X91280170Y-79453368D01*
X91295078Y-79528318D01*
X91298820Y-79547127D01*
X91298820Y-79547129D01*
X91351622Y-79674606D01*
X91351628Y-79674617D01*
X91428285Y-79789341D01*
X91525858Y-79886914D01*
X91640582Y-79963571D01*
X91640593Y-79963577D01*
X91680735Y-79980204D01*
X91768072Y-80016380D01*
X91903407Y-80043300D01*
X91924078Y-80043300D01*
X91982269Y-80062207D01*
X91994082Y-80072296D01*
X93220504Y-81298718D01*
X93248281Y-81353235D01*
X93249500Y-81368722D01*
X93249500Y-82301108D01*
X93249500Y-82432892D01*
X93263394Y-82484745D01*
X93283609Y-82560190D01*
X93349496Y-82674309D01*
X93349498Y-82674311D01*
X93349500Y-82674314D01*
X97925583Y-87250397D01*
X97953359Y-87304912D01*
X97943788Y-87365344D01*
X97925582Y-87390403D01*
X95192686Y-90123300D01*
X95192685Y-90123299D01*
X95099500Y-90216485D01*
X95099496Y-90216490D01*
X95033609Y-90330609D01*
X94999500Y-90457909D01*
X94999500Y-91501678D01*
X94980593Y-91559869D01*
X94970504Y-91571682D01*
X94076783Y-92465403D01*
X94022266Y-92493180D01*
X94006779Y-92494399D01*
X93455789Y-92494399D01*
X93397598Y-92475492D01*
X93385785Y-92465403D01*
X93371166Y-92450784D01*
X93256442Y-92374127D01*
X93256431Y-92374121D01*
X93128953Y-92321319D01*
X92993620Y-92294399D01*
X92993618Y-92294399D01*
X92855632Y-92294399D01*
X92855629Y-92294399D01*
X92720297Y-92321319D01*
X92720295Y-92321319D01*
X92592818Y-92374121D01*
X92592807Y-92374127D01*
X92478083Y-92450784D01*
X92380510Y-92548357D01*
X92303853Y-92663081D01*
X92303847Y-92663092D01*
X92251045Y-92790569D01*
X92251045Y-92790571D01*
X92224125Y-92925903D01*
X92224125Y-93063894D01*
X92251045Y-93199226D01*
X92251045Y-93199228D01*
X92303847Y-93326705D01*
X92303853Y-93326716D01*
X92380510Y-93441440D01*
X92478083Y-93539013D01*
X92592807Y-93615670D01*
X92592818Y-93615676D01*
X92639908Y-93635181D01*
X92720297Y-93668479D01*
X92855632Y-93695399D01*
X92855633Y-93695399D01*
X92993617Y-93695399D01*
X92993618Y-93695399D01*
X93128953Y-93668479D01*
X93256436Y-93615674D01*
X93371167Y-93539013D01*
X93385785Y-93524395D01*
X93440302Y-93496618D01*
X93455789Y-93495399D01*
X94320991Y-93495399D01*
X94320993Y-93495399D01*
X94448287Y-93461291D01*
X94448289Y-93461289D01*
X94448291Y-93461289D01*
X94562410Y-93395402D01*
X94562410Y-93395401D01*
X94562415Y-93395399D01*
X95900500Y-92057314D01*
X95941156Y-91986896D01*
X95966390Y-91943190D01*
X95966390Y-91943188D01*
X95966392Y-91943186D01*
X96000500Y-91815892D01*
X96000500Y-91684108D01*
X96000500Y-90772122D01*
X96019407Y-90713931D01*
X96029496Y-90702118D01*
X98681718Y-88049896D01*
X98685489Y-88047974D01*
X98687715Y-88044374D01*
X98704990Y-88038038D01*
X98736235Y-88022119D01*
X98744333Y-88021176D01*
X98748020Y-88020900D01*
X98772393Y-88020900D01*
X98787096Y-88017975D01*
X98793111Y-88017525D01*
X98817259Y-88023420D01*
X98841946Y-88026342D01*
X98846510Y-88030561D01*
X98852550Y-88032036D01*
X98868621Y-88050999D01*
X98886877Y-88067875D01*
X98888636Y-88074617D01*
X98892108Y-88078714D01*
X98893074Y-88091624D01*
X98899500Y-88116249D01*
X98899500Y-90033908D01*
X98899500Y-90165692D01*
X98928942Y-90275573D01*
X98933609Y-90292990D01*
X98999496Y-90407109D01*
X98999498Y-90407111D01*
X98999500Y-90407114D01*
X102799905Y-94207519D01*
X102827681Y-94262034D01*
X102828900Y-94277521D01*
X102828900Y-94298195D01*
X102846846Y-94388416D01*
X102855478Y-94431811D01*
X102855820Y-94433527D01*
X102855820Y-94433529D01*
X102908622Y-94561006D01*
X102908628Y-94561017D01*
X102985285Y-94675741D01*
X103082858Y-94773314D01*
X103197582Y-94849971D01*
X103197593Y-94849977D01*
X103244683Y-94869482D01*
X103325072Y-94902780D01*
X103460407Y-94929700D01*
X103460408Y-94929700D01*
X103598392Y-94929700D01*
X103598393Y-94929700D01*
X103733728Y-94902780D01*
X103861211Y-94849975D01*
X103975942Y-94773314D01*
X104073514Y-94675742D01*
X104150175Y-94561011D01*
X104202980Y-94433528D01*
X104229900Y-94298193D01*
X104229900Y-94160207D01*
X104202980Y-94024872D01*
X104185378Y-93982377D01*
X104150177Y-93897393D01*
X104150171Y-93897382D01*
X104073514Y-93782658D01*
X103975941Y-93685085D01*
X103861217Y-93608428D01*
X103861206Y-93608422D01*
X103733728Y-93555620D01*
X103598395Y-93528700D01*
X103598393Y-93528700D01*
X103577722Y-93528700D01*
X103519531Y-93509793D01*
X103507718Y-93499704D01*
X100879026Y-90871012D01*
X100851249Y-90816495D01*
X100860820Y-90756063D01*
X100904085Y-90712798D01*
X100964517Y-90703227D01*
X100968308Y-90703903D01*
X101063307Y-90722800D01*
X101063308Y-90722800D01*
X101201292Y-90722800D01*
X101201293Y-90722800D01*
X101336628Y-90695880D01*
X101464111Y-90643075D01*
X101578842Y-90566414D01*
X101584760Y-90560496D01*
X101639277Y-90532719D01*
X101654764Y-90531500D01*
X109521936Y-90531500D01*
X109580127Y-90550407D01*
X109616091Y-90599907D01*
X109616091Y-90661093D01*
X109604251Y-90685502D01*
X109560609Y-90750814D01*
X109560603Y-90750825D01*
X109500263Y-90896501D01*
X109500263Y-90896503D01*
X109469500Y-91051155D01*
X109469500Y-91208844D01*
X109500263Y-91363496D01*
X109500263Y-91363498D01*
X109561964Y-91512458D01*
X109569500Y-91550343D01*
X109569500Y-91821806D01*
X109569500Y-91959794D01*
X109591825Y-92072030D01*
X109596598Y-92096022D01*
X109598500Y-92115336D01*
X109598500Y-99851678D01*
X109579593Y-99909869D01*
X109530093Y-99945833D01*
X109468907Y-99945833D01*
X109429496Y-99921682D01*
X109129496Y-99621682D01*
X109101719Y-99567165D01*
X109100500Y-99551678D01*
X109100500Y-99531008D01*
X109100499Y-99531004D01*
X109073580Y-99395672D01*
X109041050Y-99317138D01*
X109020777Y-99268193D01*
X109020771Y-99268182D01*
X108944114Y-99153458D01*
X108846541Y-99055885D01*
X108731817Y-98979228D01*
X108731806Y-98979222D01*
X108604328Y-98926420D01*
X108468995Y-98899500D01*
X108468993Y-98899500D01*
X108331007Y-98899500D01*
X108331004Y-98899500D01*
X108195672Y-98926420D01*
X108195670Y-98926420D01*
X108068193Y-98979222D01*
X108068182Y-98979228D01*
X107953458Y-99055885D01*
X107855885Y-99153458D01*
X107779228Y-99268182D01*
X107779222Y-99268193D01*
X107726420Y-99395670D01*
X107726420Y-99395672D01*
X107699500Y-99531004D01*
X107699500Y-99668995D01*
X107726420Y-99804327D01*
X107726420Y-99804329D01*
X107779222Y-99931806D01*
X107779228Y-99931817D01*
X107855885Y-100046541D01*
X107953458Y-100144114D01*
X108068182Y-100220771D01*
X108068193Y-100220777D01*
X108115283Y-100240282D01*
X108195672Y-100273580D01*
X108331007Y-100300500D01*
X108351678Y-100300500D01*
X108409869Y-100319407D01*
X108421682Y-100329496D01*
X109569504Y-101477318D01*
X109597281Y-101531835D01*
X109598500Y-101547322D01*
X109598500Y-108469834D01*
X109579593Y-108528025D01*
X109569504Y-108539838D01*
X108263569Y-109845772D01*
X108209052Y-109873549D01*
X108178078Y-109873549D01*
X108141149Y-109867700D01*
X108141146Y-109867700D01*
X107960054Y-109867700D01*
X107960051Y-109867700D01*
X107781193Y-109896028D01*
X107608962Y-109951988D01*
X107447608Y-110034202D01*
X107374352Y-110087425D01*
X107301099Y-110140647D01*
X107173047Y-110268699D01*
X107140211Y-110313894D01*
X107066602Y-110415208D01*
X106984388Y-110576562D01*
X106928428Y-110748793D01*
X106900100Y-110927650D01*
X106900100Y-111108749D01*
X106928428Y-111287606D01*
X106984388Y-111459837D01*
X107032171Y-111553617D01*
X107066604Y-111621194D01*
X107173047Y-111767701D01*
X107301099Y-111895753D01*
X107447606Y-112002196D01*
X107608961Y-112084411D01*
X107781191Y-112140371D01*
X107827970Y-112147780D01*
X107960051Y-112168700D01*
X107960054Y-112168700D01*
X108141149Y-112168700D01*
X108273231Y-112147780D01*
X108333663Y-112157351D01*
X108358722Y-112175557D01*
X109079278Y-112896113D01*
X109079280Y-112896116D01*
X109191084Y-113007920D01*
X109191086Y-113007921D01*
X109191089Y-113007924D01*
X109191088Y-113007924D01*
X109277891Y-113058037D01*
X109277893Y-113058039D01*
X109277894Y-113058039D01*
X109300716Y-113071215D01*
X109328015Y-113086977D01*
X109480743Y-113127900D01*
X109480745Y-113127900D01*
X118979675Y-113127900D01*
X118979679Y-113127901D01*
X119137793Y-113127901D01*
X119137797Y-113127900D01*
X120437657Y-113127900D01*
X120495848Y-113146807D01*
X120507661Y-113156896D01*
X120519780Y-113169015D01*
X120547557Y-113223532D01*
X120537986Y-113283964D01*
X120532092Y-113294020D01*
X120523804Y-113306423D01*
X120463463Y-113452101D01*
X120463463Y-113452103D01*
X120432700Y-113606755D01*
X120432700Y-113764444D01*
X120463463Y-113919096D01*
X120463463Y-113919098D01*
X120523803Y-114064774D01*
X120523809Y-114064785D01*
X120559471Y-114118156D01*
X120611411Y-114195889D01*
X120722911Y-114307389D01*
X120801076Y-114359617D01*
X120854014Y-114394990D01*
X120854025Y-114394996D01*
X120895232Y-114412064D01*
X120999703Y-114455337D01*
X121154358Y-114486100D01*
X121154359Y-114486100D01*
X121312041Y-114486100D01*
X121312042Y-114486100D01*
X121466697Y-114455337D01*
X121612379Y-114394994D01*
X121743489Y-114307389D01*
X121854989Y-114195889D01*
X121942594Y-114064779D01*
X122002937Y-113919097D01*
X122033700Y-113764442D01*
X122033700Y-113606758D01*
X122002937Y-113452103D01*
X121942594Y-113306421D01*
X121942593Y-113306419D01*
X121942590Y-113306414D01*
X121887209Y-113223532D01*
X121854989Y-113175311D01*
X121854987Y-113175309D01*
X121852287Y-113171268D01*
X121853659Y-113170351D01*
X121833870Y-113119746D01*
X121833700Y-113113947D01*
X121833700Y-112954144D01*
X121832589Y-112949999D01*
X121792777Y-112801416D01*
X121792777Y-112801415D01*
X121792777Y-112801414D01*
X121750874Y-112728837D01*
X121750873Y-112728836D01*
X121713722Y-112664487D01*
X121713721Y-112664486D01*
X121713720Y-112664484D01*
X121601916Y-112552680D01*
X121601913Y-112552678D01*
X121207921Y-112158686D01*
X121207920Y-112158684D01*
X121096116Y-112046880D01*
X121009304Y-111996760D01*
X121009303Y-111996759D01*
X120959188Y-111967825D01*
X120959185Y-111967823D01*
X120806457Y-111926899D01*
X120747480Y-111926899D01*
X120689289Y-111907992D01*
X120653325Y-111858492D01*
X120653325Y-111797306D01*
X120677476Y-111757895D01*
X121727075Y-110708296D01*
X121781592Y-110680519D01*
X121797079Y-110679300D01*
X123008387Y-110679300D01*
X123066578Y-110698207D01*
X123102542Y-110747707D01*
X123102542Y-110808893D01*
X123090702Y-110833302D01*
X123052828Y-110889982D01*
X123052822Y-110889993D01*
X123000020Y-111017470D01*
X123000020Y-111017472D01*
X122973100Y-111152804D01*
X122973100Y-111290795D01*
X123000020Y-111426127D01*
X123000020Y-111426129D01*
X123052822Y-111553606D01*
X123052828Y-111553617D01*
X123129485Y-111668341D01*
X123167504Y-111706360D01*
X123195281Y-111760877D01*
X123196500Y-111776364D01*
X123196500Y-114276278D01*
X123177593Y-114334469D01*
X123167504Y-114346282D01*
X121639882Y-115873904D01*
X121585365Y-115901681D01*
X121569878Y-115902900D01*
X117724998Y-115902900D01*
X117666807Y-115883993D01*
X117630843Y-115834493D01*
X117626914Y-115809684D01*
X117626474Y-115809728D01*
X117625998Y-115804899D01*
X117625998Y-115804892D01*
X117599078Y-115669557D01*
X117556320Y-115566329D01*
X117546275Y-115542078D01*
X117546269Y-115542067D01*
X117469612Y-115427343D01*
X117372039Y-115329770D01*
X117257315Y-115253113D01*
X117257304Y-115253107D01*
X117129826Y-115200305D01*
X116994493Y-115173385D01*
X116994491Y-115173385D01*
X116856505Y-115173385D01*
X116856502Y-115173385D01*
X116721170Y-115200305D01*
X116721168Y-115200305D01*
X116593691Y-115253107D01*
X116593680Y-115253113D01*
X116478954Y-115329772D01*
X116459308Y-115349418D01*
X116404791Y-115377194D01*
X116351419Y-115370876D01*
X116347904Y-115369420D01*
X116212571Y-115342500D01*
X116212569Y-115342500D01*
X116074583Y-115342500D01*
X116074580Y-115342500D01*
X115939248Y-115369420D01*
X115939246Y-115369420D01*
X115811769Y-115422222D01*
X115811758Y-115422228D01*
X115697034Y-115498885D01*
X115599461Y-115596458D01*
X115522804Y-115711182D01*
X115522798Y-115711193D01*
X115469996Y-115838670D01*
X115469996Y-115838672D01*
X115443076Y-115974004D01*
X115443076Y-116111995D01*
X115469996Y-116247327D01*
X115469996Y-116247329D01*
X115522798Y-116374806D01*
X115522804Y-116374817D01*
X115599461Y-116489541D01*
X115614080Y-116504160D01*
X115617706Y-116511277D01*
X115624169Y-116515973D01*
X115631332Y-116538021D01*
X115641857Y-116558677D01*
X115643076Y-116574164D01*
X115643076Y-116596502D01*
X115624169Y-116654693D01*
X115614080Y-116666505D01*
X115291491Y-116989093D01*
X115236976Y-117016870D01*
X115176544Y-117007299D01*
X115166488Y-117001405D01*
X115149298Y-116989919D01*
X115021818Y-116937116D01*
X114886485Y-116910196D01*
X114886483Y-116910196D01*
X114748497Y-116910196D01*
X114748494Y-116910196D01*
X114613162Y-116937116D01*
X114613160Y-116937116D01*
X114485683Y-116989918D01*
X114485672Y-116989924D01*
X114370948Y-117066581D01*
X114273379Y-117164150D01*
X114246937Y-117203723D01*
X114198886Y-117241602D01*
X114137748Y-117244003D01*
X114115122Y-117234456D01*
X114023589Y-117181609D01*
X114023591Y-117181609D01*
X113958431Y-117164150D01*
X113896292Y-117147500D01*
X113896290Y-117147500D01*
X112996322Y-117147500D01*
X112938131Y-117128593D01*
X112926318Y-117118504D01*
X112694896Y-116887082D01*
X112667119Y-116832565D01*
X112665900Y-116817078D01*
X112665900Y-115893164D01*
X112684807Y-115834973D01*
X112694896Y-115823160D01*
X112709514Y-115808542D01*
X112786175Y-115693811D01*
X112838980Y-115566328D01*
X112865900Y-115430993D01*
X112865900Y-115293007D01*
X112838980Y-115157672D01*
X112786175Y-115030189D01*
X112786174Y-115030187D01*
X112786171Y-115030182D01*
X112709514Y-114915458D01*
X112611941Y-114817885D01*
X112497217Y-114741228D01*
X112497206Y-114741222D01*
X112369728Y-114688420D01*
X112234395Y-114661500D01*
X112234393Y-114661500D01*
X112096407Y-114661500D01*
X112096404Y-114661500D01*
X111961072Y-114688420D01*
X111961070Y-114688420D01*
X111833593Y-114741222D01*
X111833582Y-114741228D01*
X111718858Y-114817885D01*
X111621285Y-114915458D01*
X111544628Y-115030182D01*
X111544622Y-115030193D01*
X111491820Y-115157670D01*
X111491820Y-115157672D01*
X111464900Y-115293004D01*
X111464900Y-115430995D01*
X111491820Y-115566327D01*
X111491820Y-115566329D01*
X111544622Y-115693806D01*
X111544628Y-115693817D01*
X111621285Y-115808541D01*
X111635904Y-115823160D01*
X111663681Y-115877677D01*
X111664900Y-115893164D01*
X111664900Y-116999508D01*
X111664900Y-117131292D01*
X111684308Y-117203723D01*
X111699009Y-117258590D01*
X111764896Y-117372709D01*
X111764897Y-117372710D01*
X111764898Y-117372711D01*
X111764900Y-117372714D01*
X112347500Y-117955314D01*
X112347499Y-117955314D01*
X112440685Y-118048499D01*
X112440690Y-118048503D01*
X112554810Y-118114390D01*
X112554808Y-118114390D01*
X112554812Y-118114391D01*
X112554814Y-118114392D01*
X112682108Y-118148500D01*
X113582078Y-118148500D01*
X113640269Y-118167407D01*
X113652082Y-118177496D01*
X114345504Y-118870917D01*
X114373281Y-118925434D01*
X114374500Y-118940921D01*
X114374500Y-118961595D01*
X114401420Y-119096927D01*
X114401420Y-119096929D01*
X114454222Y-119224406D01*
X114454228Y-119224417D01*
X114530885Y-119339141D01*
X114628458Y-119436714D01*
X114743182Y-119513371D01*
X114743193Y-119513377D01*
X114790283Y-119532882D01*
X114870672Y-119566180D01*
X115006007Y-119593100D01*
X115006008Y-119593100D01*
X115143992Y-119593100D01*
X115143993Y-119593100D01*
X115279328Y-119566180D01*
X115406811Y-119513375D01*
X115521542Y-119436714D01*
X115619114Y-119339142D01*
X115695775Y-119224411D01*
X115748580Y-119096928D01*
X115775500Y-118961593D01*
X115775500Y-118823607D01*
X115748580Y-118688272D01*
X115695775Y-118560789D01*
X115695774Y-118560787D01*
X115695771Y-118560782D01*
X115619114Y-118446058D01*
X115521541Y-118348485D01*
X115427425Y-118285598D01*
X115389546Y-118237548D01*
X115387144Y-118176409D01*
X115421138Y-118125536D01*
X115456799Y-118107658D01*
X115570890Y-118077088D01*
X115570892Y-118077086D01*
X115570894Y-118077086D01*
X115685013Y-118011199D01*
X115685013Y-118011198D01*
X115685018Y-118011196D01*
X116544076Y-117152138D01*
X116546754Y-117147500D01*
X116609966Y-117038014D01*
X116609966Y-117038012D01*
X116609968Y-117038010D01*
X116644076Y-116910716D01*
X116644076Y-116778931D01*
X116644076Y-116652762D01*
X116651174Y-116630914D01*
X116654666Y-116608213D01*
X116660445Y-116602381D01*
X116662983Y-116594571D01*
X116681569Y-116581066D01*
X116697736Y-116564755D01*
X116705529Y-116563659D01*
X116712483Y-116558607D01*
X116758124Y-116554912D01*
X116760258Y-116555240D01*
X116856505Y-116574385D01*
X116884747Y-116574385D01*
X116892225Y-116575535D01*
X116913117Y-116586062D01*
X116935368Y-116593292D01*
X116946740Y-116603004D01*
X116946866Y-116603068D01*
X116946906Y-116603146D01*
X116947181Y-116603381D01*
X117054511Y-116710711D01*
X117054513Y-116710714D01*
X117147699Y-116803900D01*
X117147701Y-116803901D01*
X117147703Y-116803903D01*
X117261823Y-116869790D01*
X117261821Y-116869790D01*
X117261825Y-116869791D01*
X117261827Y-116869792D01*
X117389120Y-116903900D01*
X117389121Y-116903900D01*
X117389122Y-116903900D01*
X121884090Y-116903900D01*
X121884092Y-116903900D01*
X122011386Y-116869792D01*
X122011388Y-116869790D01*
X122011390Y-116869790D01*
X122125509Y-116803903D01*
X122125509Y-116803902D01*
X122125514Y-116803900D01*
X124097499Y-114831915D01*
X124149858Y-114741228D01*
X124163390Y-114717790D01*
X124163390Y-114717788D01*
X124163392Y-114717786D01*
X124197500Y-114590493D01*
X124197500Y-114458708D01*
X124197500Y-111728394D01*
X124215575Y-111672761D01*
X124215012Y-111672385D01*
X124216347Y-111670386D01*
X124216407Y-111670203D01*
X124216872Y-111669601D01*
X124217711Y-111668344D01*
X124217714Y-111668342D01*
X124294375Y-111553611D01*
X124347180Y-111426128D01*
X124374100Y-111290793D01*
X124374100Y-111152807D01*
X124347180Y-111017472D01*
X124309975Y-110927650D01*
X124294377Y-110889993D01*
X124294371Y-110889982D01*
X124256498Y-110833302D01*
X124239889Y-110774414D01*
X124261066Y-110717010D01*
X124311939Y-110683017D01*
X124338813Y-110679300D01*
X124704064Y-110679300D01*
X124704080Y-110679301D01*
X124710143Y-110679301D01*
X124868255Y-110679301D01*
X124868257Y-110679301D01*
X125020985Y-110638377D01*
X125085680Y-110601025D01*
X125085682Y-110601023D01*
X125085684Y-110601023D01*
X125107141Y-110588634D01*
X125157916Y-110559320D01*
X125269720Y-110447516D01*
X125269721Y-110447513D01*
X126587600Y-109129635D01*
X126641279Y-109102285D01*
X126641272Y-109102249D01*
X126641400Y-109102223D01*
X126642116Y-109101859D01*
X126645259Y-109101455D01*
X126646038Y-109101300D01*
X126646042Y-109101300D01*
X126800697Y-109070537D01*
X126946379Y-109010194D01*
X127077489Y-108922589D01*
X127188989Y-108811089D01*
X127276594Y-108679979D01*
X127336937Y-108534297D01*
X127367700Y-108379642D01*
X127367700Y-108221958D01*
X127336937Y-108067303D01*
X127300860Y-107980204D01*
X127276596Y-107921625D01*
X127276590Y-107921614D01*
X127217758Y-107833567D01*
X127188989Y-107790511D01*
X127077489Y-107679011D01*
X127017282Y-107638782D01*
X126946385Y-107591409D01*
X126946374Y-107591403D01*
X126800697Y-107531063D01*
X126646044Y-107500300D01*
X126646042Y-107500300D01*
X126488358Y-107500300D01*
X126488355Y-107500300D01*
X126333703Y-107531063D01*
X126333701Y-107531063D01*
X126188025Y-107591403D01*
X126188014Y-107591409D01*
X126056911Y-107679011D01*
X126056907Y-107679014D01*
X125945414Y-107790507D01*
X125945411Y-107790511D01*
X125857809Y-107921614D01*
X125857803Y-107921625D01*
X125797463Y-108067301D01*
X125797463Y-108067303D01*
X125765751Y-108226728D01*
X125764126Y-108226404D01*
X125742356Y-108276164D01*
X125738363Y-108280400D01*
X124569461Y-109449304D01*
X124514944Y-109477081D01*
X124499457Y-109478300D01*
X121428278Y-109478300D01*
X121387354Y-109489265D01*
X121387353Y-109489264D01*
X121275555Y-109519221D01*
X121275554Y-109519221D01*
X121138617Y-109598282D01*
X121026815Y-109710083D01*
X121026816Y-109710084D01*
X121026814Y-109710086D01*
X119928008Y-110808893D01*
X118838997Y-111897904D01*
X118784480Y-111925681D01*
X118768993Y-111926900D01*
X109849543Y-111926900D01*
X109791352Y-111907993D01*
X109779539Y-111897904D01*
X109207957Y-111326322D01*
X109180180Y-111271805D01*
X109180180Y-111240831D01*
X109201100Y-111108749D01*
X109201100Y-110930564D01*
X109220007Y-110872373D01*
X109230096Y-110860560D01*
X110000868Y-110089788D01*
X110843113Y-109247543D01*
X110843114Y-109247542D01*
X110919775Y-109132811D01*
X110970438Y-109010500D01*
X110972580Y-109005329D01*
X110989038Y-108922589D01*
X110999500Y-108869993D01*
X110999500Y-108062793D01*
X110999500Y-107876204D01*
X111464900Y-107876204D01*
X111464900Y-108014195D01*
X111491820Y-108149527D01*
X111491820Y-108149529D01*
X111544622Y-108277006D01*
X111544628Y-108277017D01*
X111621285Y-108391741D01*
X111635904Y-108406360D01*
X111663681Y-108460877D01*
X111664900Y-108476364D01*
X111664900Y-109454108D01*
X111664900Y-109585892D01*
X111668220Y-109598282D01*
X111699009Y-109713190D01*
X111764896Y-109827309D01*
X111764898Y-109827311D01*
X111764900Y-109827314D01*
X112477305Y-110539719D01*
X112505081Y-110594234D01*
X112506300Y-110609721D01*
X112506300Y-110630395D01*
X112519789Y-110698207D01*
X112529851Y-110748793D01*
X112533220Y-110765727D01*
X112533220Y-110765729D01*
X112586022Y-110893206D01*
X112586028Y-110893217D01*
X112662685Y-111007941D01*
X112760258Y-111105514D01*
X112874982Y-111182171D01*
X112874993Y-111182177D01*
X112922083Y-111201682D01*
X113002472Y-111234980D01*
X113137807Y-111261900D01*
X113137808Y-111261900D01*
X113275792Y-111261900D01*
X113275793Y-111261900D01*
X113411128Y-111234980D01*
X113538611Y-111182175D01*
X113653342Y-111105514D01*
X113750914Y-111007942D01*
X113827575Y-110893211D01*
X113880380Y-110765728D01*
X113907300Y-110630393D01*
X113907300Y-110492407D01*
X113880380Y-110357072D01*
X113827575Y-110229589D01*
X113827574Y-110229587D01*
X113827571Y-110229582D01*
X113750914Y-110114858D01*
X113653341Y-110017285D01*
X113538617Y-109940628D01*
X113538606Y-109940622D01*
X113411129Y-109887820D01*
X113315314Y-109868760D01*
X113315291Y-109868756D01*
X113310111Y-109867726D01*
X113272692Y-109857700D01*
X113244262Y-109857700D01*
X113236694Y-109856522D01*
X113215898Y-109845995D01*
X113193731Y-109838793D01*
X113182179Y-109828927D01*
X113182104Y-109828889D01*
X113182080Y-109828842D01*
X113181918Y-109828704D01*
X112694896Y-109341682D01*
X112667119Y-109287165D01*
X112665900Y-109271678D01*
X112665900Y-108670826D01*
X112684807Y-108612635D01*
X112734307Y-108576671D01*
X112795493Y-108576671D01*
X112819904Y-108588512D01*
X112824185Y-108591373D01*
X112824193Y-108591377D01*
X112871283Y-108610882D01*
X112951672Y-108644180D01*
X113087007Y-108671100D01*
X113087008Y-108671100D01*
X113224992Y-108671100D01*
X113224993Y-108671100D01*
X113360328Y-108644180D01*
X113487811Y-108591375D01*
X113602542Y-108514714D01*
X113700114Y-108417142D01*
X113776775Y-108302411D01*
X113829580Y-108174928D01*
X113856500Y-108039593D01*
X113856500Y-107901607D01*
X113829580Y-107766272D01*
X113793437Y-107679014D01*
X113776777Y-107638793D01*
X113776771Y-107638782D01*
X113700114Y-107524058D01*
X113685496Y-107509440D01*
X113657719Y-107454923D01*
X113656500Y-107439436D01*
X113656500Y-106058364D01*
X113675407Y-106000173D01*
X113685496Y-105988360D01*
X113688100Y-105985756D01*
X113715914Y-105957942D01*
X113792575Y-105843211D01*
X113845380Y-105715728D01*
X113872300Y-105580393D01*
X113872300Y-105442407D01*
X113845380Y-105307072D01*
X113792575Y-105179589D01*
X113792574Y-105179587D01*
X113792571Y-105179582D01*
X113715914Y-105064858D01*
X113618341Y-104967285D01*
X113503617Y-104890628D01*
X113503606Y-104890622D01*
X113376128Y-104837820D01*
X113240795Y-104810900D01*
X113240793Y-104810900D01*
X113102807Y-104810900D01*
X113102804Y-104810900D01*
X112967472Y-104837820D01*
X112967470Y-104837820D01*
X112839993Y-104890622D01*
X112839982Y-104890628D01*
X112725258Y-104967285D01*
X112627685Y-105064858D01*
X112551028Y-105179582D01*
X112551022Y-105179593D01*
X112498220Y-105307070D01*
X112498220Y-105307072D01*
X112471300Y-105442404D01*
X112471300Y-105580395D01*
X112483773Y-105643099D01*
X112492931Y-105689141D01*
X112498220Y-105715727D01*
X112498220Y-105715729D01*
X112551022Y-105843206D01*
X112551028Y-105843217D01*
X112627685Y-105957941D01*
X112630779Y-105961711D01*
X112629543Y-105962724D01*
X112654281Y-106011277D01*
X112655500Y-106026764D01*
X112655500Y-107244973D01*
X112636593Y-107303164D01*
X112587093Y-107339128D01*
X112525907Y-107339128D01*
X112501503Y-107327291D01*
X112497223Y-107324431D01*
X112497206Y-107324422D01*
X112369728Y-107271620D01*
X112234395Y-107244700D01*
X112234393Y-107244700D01*
X112096407Y-107244700D01*
X112096404Y-107244700D01*
X111961072Y-107271620D01*
X111961070Y-107271620D01*
X111833593Y-107324422D01*
X111833582Y-107324428D01*
X111718858Y-107401085D01*
X111621285Y-107498658D01*
X111544628Y-107613382D01*
X111544622Y-107613393D01*
X111491820Y-107740870D01*
X111491820Y-107740872D01*
X111464900Y-107876204D01*
X110999500Y-107876204D01*
X110999500Y-105169742D01*
X111018407Y-105111551D01*
X111028490Y-105099744D01*
X116921086Y-99207147D01*
X116971774Y-99180055D01*
X117004328Y-99173580D01*
X117131811Y-99120775D01*
X117246542Y-99044114D01*
X117314068Y-98976587D01*
X117368581Y-98948812D01*
X117429013Y-98958383D01*
X117454073Y-98976589D01*
X117669448Y-99191964D01*
X117669447Y-99191964D01*
X117721598Y-99244114D01*
X117757979Y-99280495D01*
X117866407Y-99343095D01*
X117987342Y-99375500D01*
X141841179Y-99375500D01*
X141899370Y-99394407D01*
X141911183Y-99404496D01*
X141926931Y-99420244D01*
X141990448Y-99462685D01*
X142033466Y-99491429D01*
X142033470Y-99491431D01*
X142033473Y-99491433D01*
X142151856Y-99540469D01*
X142277531Y-99565468D01*
X142277532Y-99565468D01*
X142405668Y-99565468D01*
X142405669Y-99565468D01*
X142531344Y-99540469D01*
X142649727Y-99491433D01*
X142756269Y-99420244D01*
X142846876Y-99329637D01*
X142918065Y-99223095D01*
X142967101Y-99104712D01*
X142992100Y-98979037D01*
X142992100Y-98850899D01*
X142967101Y-98725224D01*
X142918065Y-98606841D01*
X142915945Y-98603669D01*
X142899337Y-98544782D01*
X142920514Y-98487378D01*
X142943254Y-98466357D01*
X143034669Y-98405276D01*
X143125276Y-98314669D01*
X143196465Y-98208127D01*
X143245501Y-98089744D01*
X143270500Y-97964069D01*
X143270500Y-97835931D01*
X143245501Y-97710256D01*
X143196465Y-97591873D01*
X143196463Y-97591870D01*
X143196461Y-97591866D01*
X143166994Y-97547767D01*
X143125276Y-97485331D01*
X143034669Y-97394724D01*
X142992226Y-97366365D01*
X142928133Y-97323538D01*
X142928125Y-97323534D01*
X142809747Y-97274500D01*
X142809745Y-97274499D01*
X142809744Y-97274499D01*
X142684069Y-97249500D01*
X142555931Y-97249500D01*
X142555930Y-97249500D01*
X142493093Y-97261999D01*
X142430256Y-97274499D01*
X142430255Y-97274499D01*
X142430252Y-97274500D01*
X142311874Y-97323534D01*
X142311866Y-97323538D01*
X142205331Y-97394724D01*
X142205327Y-97394727D01*
X142114727Y-97485327D01*
X142114724Y-97485331D01*
X142043538Y-97591866D01*
X142043534Y-97591874D01*
X141994500Y-97710252D01*
X141994499Y-97710255D01*
X141994499Y-97710256D01*
X141993621Y-97714669D01*
X141969500Y-97835930D01*
X141969500Y-97837033D01*
X141969344Y-97837511D01*
X141969024Y-97840767D01*
X141968309Y-97840696D01*
X141967031Y-97844630D01*
X141968281Y-97852520D01*
X141957756Y-97873175D01*
X141950593Y-97895224D01*
X141940504Y-97907037D01*
X141852037Y-97995504D01*
X141797520Y-98023281D01*
X141782033Y-98024500D01*
X118384298Y-98024500D01*
X118326107Y-98005593D01*
X118314294Y-97995504D01*
X117767326Y-97448536D01*
X117187295Y-96868505D01*
X117088962Y-96811733D01*
X117068459Y-96796001D01*
X115141963Y-94869504D01*
X115131438Y-94848848D01*
X115117812Y-94830093D01*
X115117812Y-94822103D01*
X115114186Y-94814987D01*
X115117812Y-94792092D01*
X115117812Y-94768907D01*
X115122507Y-94762444D01*
X115123757Y-94754555D01*
X115140148Y-94738163D01*
X115153776Y-94719407D01*
X115161373Y-94716938D01*
X115167022Y-94711290D01*
X115211967Y-94700500D01*
X115407814Y-94700500D01*
X115462816Y-94717185D01*
X115468189Y-94720775D01*
X115595672Y-94773580D01*
X115731007Y-94800500D01*
X115731008Y-94800500D01*
X115868992Y-94800500D01*
X115868993Y-94800500D01*
X116004328Y-94773580D01*
X116131811Y-94720775D01*
X116246542Y-94644114D01*
X116344114Y-94546542D01*
X116420775Y-94431811D01*
X116473580Y-94304328D01*
X116500500Y-94168993D01*
X116500500Y-94031007D01*
X116473580Y-93895672D01*
X116455978Y-93853177D01*
X116420777Y-93768193D01*
X116420771Y-93768182D01*
X116344114Y-93653458D01*
X116246541Y-93555885D01*
X116131817Y-93479228D01*
X116131806Y-93479222D01*
X116004328Y-93426420D01*
X115868995Y-93399500D01*
X115868993Y-93399500D01*
X115731007Y-93399500D01*
X115731004Y-93399500D01*
X115595672Y-93426420D01*
X115595670Y-93426420D01*
X115468190Y-93479224D01*
X115462816Y-93482815D01*
X115407814Y-93499500D01*
X112238057Y-93499500D01*
X112079942Y-93499500D01*
X111927215Y-93540423D01*
X111927214Y-93540423D01*
X111927212Y-93540424D01*
X111900434Y-93555885D01*
X111900433Y-93555885D01*
X111790284Y-93619479D01*
X111678479Y-93731283D01*
X111678480Y-93731284D01*
X111168504Y-94241260D01*
X111113987Y-94269037D01*
X111053555Y-94259466D01*
X111010290Y-94216201D01*
X110999500Y-94171256D01*
X110999500Y-91850808D01*
X110999499Y-91850804D01*
X110992554Y-91815890D01*
X110972580Y-91715472D01*
X110972579Y-91715471D01*
X110972402Y-91714578D01*
X110970500Y-91695264D01*
X110970500Y-91550343D01*
X110978036Y-91512458D01*
X111033300Y-91379037D01*
X111039737Y-91363497D01*
X111070500Y-91208842D01*
X111070500Y-91051158D01*
X111039737Y-90896503D01*
X111011036Y-90827211D01*
X110979396Y-90750825D01*
X110979390Y-90750814D01*
X110935749Y-90685502D01*
X110932008Y-90672241D01*
X110923909Y-90661093D01*
X110923909Y-90643522D01*
X110919140Y-90626614D01*
X110923909Y-90613687D01*
X110923909Y-90599907D01*
X110934236Y-90585691D01*
X110940317Y-90569211D01*
X110951772Y-90561556D01*
X110959873Y-90550407D01*
X110976582Y-90544977D01*
X110991190Y-90535217D01*
X111018064Y-90531500D01*
X111147878Y-90531500D01*
X111206069Y-90550407D01*
X111217882Y-90560496D01*
X111283504Y-90626118D01*
X111311281Y-90680635D01*
X111312500Y-90696122D01*
X111312500Y-90716795D01*
X111319269Y-90750825D01*
X111337022Y-90840075D01*
X111339420Y-90852127D01*
X111339420Y-90852129D01*
X111392222Y-90979606D01*
X111392228Y-90979617D01*
X111468885Y-91094341D01*
X111566458Y-91191914D01*
X111681182Y-91268571D01*
X111681193Y-91268577D01*
X111706555Y-91279082D01*
X111808672Y-91321380D01*
X111944007Y-91348300D01*
X111944008Y-91348300D01*
X112081992Y-91348300D01*
X112081993Y-91348300D01*
X112217328Y-91321380D01*
X112344811Y-91268575D01*
X112459542Y-91191914D01*
X112557114Y-91094342D01*
X112586871Y-91049806D01*
X112634921Y-91011928D01*
X112696059Y-91009526D01*
X112746933Y-91043519D01*
X112751490Y-91049791D01*
X112764286Y-91068942D01*
X112764289Y-91068945D01*
X112861858Y-91166514D01*
X112976582Y-91243171D01*
X112976593Y-91243177D01*
X113008990Y-91256596D01*
X113104072Y-91295980D01*
X113239407Y-91322900D01*
X113239408Y-91322900D01*
X113377392Y-91322900D01*
X113377393Y-91322900D01*
X113512728Y-91295980D01*
X113640211Y-91243175D01*
X113754942Y-91166514D01*
X113797196Y-91124259D01*
X113851710Y-91096482D01*
X113912142Y-91106052D01*
X113937203Y-91124259D01*
X114030258Y-91217314D01*
X114144982Y-91293971D01*
X114144993Y-91293977D01*
X114184884Y-91310500D01*
X114272472Y-91346780D01*
X114407807Y-91373700D01*
X114407808Y-91373700D01*
X114545792Y-91373700D01*
X114545793Y-91373700D01*
X114681128Y-91346780D01*
X114808611Y-91293975D01*
X114923342Y-91217314D01*
X115020914Y-91119742D01*
X115026702Y-91111078D01*
X115074752Y-91073200D01*
X115135890Y-91070798D01*
X115179021Y-91096077D01*
X115249458Y-91166514D01*
X115364182Y-91243171D01*
X115364193Y-91243177D01*
X115396590Y-91256596D01*
X115491672Y-91295980D01*
X115627007Y-91322900D01*
X115627008Y-91322900D01*
X115764992Y-91322900D01*
X115764993Y-91322900D01*
X115900328Y-91295980D01*
X116027811Y-91243175D01*
X116142542Y-91166514D01*
X116240114Y-91068942D01*
X116294828Y-90987055D01*
X116342876Y-90949178D01*
X116404014Y-90946776D01*
X116454888Y-90980769D01*
X116459457Y-90987057D01*
X116505885Y-91056541D01*
X116603458Y-91154114D01*
X116718182Y-91230771D01*
X116718193Y-91230777D01*
X116748125Y-91243175D01*
X116845672Y-91283580D01*
X116981007Y-91310500D01*
X116981008Y-91310500D01*
X117118992Y-91310500D01*
X117118993Y-91310500D01*
X117254328Y-91283580D01*
X117381811Y-91230775D01*
X117496542Y-91154114D01*
X117594114Y-91056542D01*
X117612173Y-91029513D01*
X117660221Y-90991636D01*
X117721359Y-90989234D01*
X117762931Y-91016418D01*
X117764647Y-91014703D01*
X117865658Y-91115714D01*
X117980382Y-91192371D01*
X117980393Y-91192377D01*
X118020139Y-91208840D01*
X118107872Y-91245180D01*
X118243207Y-91272100D01*
X118243208Y-91272100D01*
X118381192Y-91272100D01*
X118381193Y-91272100D01*
X118516528Y-91245180D01*
X118644011Y-91192375D01*
X118758742Y-91115714D01*
X118856314Y-91018142D01*
X118892625Y-90963798D01*
X118940672Y-90925921D01*
X119001810Y-90923519D01*
X119044942Y-90948798D01*
X119135658Y-91039514D01*
X119250382Y-91116171D01*
X119250393Y-91116177D01*
X119269910Y-91124261D01*
X119377872Y-91168980D01*
X119513207Y-91195900D01*
X119513208Y-91195900D01*
X119651192Y-91195900D01*
X119651193Y-91195900D01*
X119786528Y-91168980D01*
X119914011Y-91116175D01*
X120028742Y-91039514D01*
X120126314Y-90941942D01*
X120130611Y-90935510D01*
X120178654Y-90897631D01*
X120239792Y-90895224D01*
X120290669Y-90929213D01*
X120295242Y-90935506D01*
X120333486Y-90992742D01*
X120333489Y-90992745D01*
X120431058Y-91090314D01*
X120545782Y-91166971D01*
X120545793Y-91166977D01*
X120592883Y-91186482D01*
X120673272Y-91219780D01*
X120808607Y-91246700D01*
X120808608Y-91246700D01*
X120946592Y-91246700D01*
X120946593Y-91246700D01*
X121081928Y-91219780D01*
X121157677Y-91188404D01*
X124545900Y-91188404D01*
X124545900Y-91326395D01*
X124556789Y-91381135D01*
X124568791Y-91441475D01*
X124572820Y-91461727D01*
X124572820Y-91461729D01*
X124625622Y-91589206D01*
X124625628Y-91589217D01*
X124702285Y-91703941D01*
X124799858Y-91801514D01*
X124914582Y-91878171D01*
X124914593Y-91878177D01*
X124961683Y-91897682D01*
X125042072Y-91930980D01*
X125177407Y-91957900D01*
X125198078Y-91957900D01*
X125256269Y-91976807D01*
X125268082Y-91986896D01*
X125504304Y-92223118D01*
X125532081Y-92277635D01*
X125533300Y-92293122D01*
X125533300Y-95476036D01*
X125514393Y-95534227D01*
X125504304Y-95546040D01*
X125489689Y-95560654D01*
X125489685Y-95560658D01*
X125413028Y-95675382D01*
X125413022Y-95675393D01*
X125360220Y-95802870D01*
X125360220Y-95802872D01*
X125333300Y-95938204D01*
X125333300Y-96076195D01*
X125360220Y-96211527D01*
X125360220Y-96211529D01*
X125413022Y-96339006D01*
X125413028Y-96339017D01*
X125489685Y-96453741D01*
X125587258Y-96551314D01*
X125701982Y-96627971D01*
X125701993Y-96627977D01*
X125727502Y-96638543D01*
X125829472Y-96680780D01*
X125964807Y-96707700D01*
X125964808Y-96707700D01*
X126102792Y-96707700D01*
X126102793Y-96707700D01*
X126238128Y-96680780D01*
X126365611Y-96627975D01*
X126480342Y-96551314D01*
X126577914Y-96453742D01*
X126654575Y-96339011D01*
X126707380Y-96211528D01*
X126734300Y-96076193D01*
X126734300Y-95938207D01*
X126707380Y-95802872D01*
X126662080Y-95693507D01*
X126654577Y-95675393D01*
X126654571Y-95675382D01*
X126577914Y-95560658D01*
X126563296Y-95546040D01*
X126535519Y-95491523D01*
X126534300Y-95476036D01*
X126534300Y-91978909D01*
X126528671Y-91957900D01*
X126500192Y-91851614D01*
X126500190Y-91851611D01*
X126500190Y-91851609D01*
X126434303Y-91737490D01*
X126434299Y-91737485D01*
X126341114Y-91644299D01*
X126341114Y-91644300D01*
X125975896Y-91279082D01*
X125948119Y-91224565D01*
X125946900Y-91209078D01*
X125946900Y-91188408D01*
X125946899Y-91188404D01*
X125919980Y-91053072D01*
X125894990Y-90992741D01*
X125867177Y-90925593D01*
X125867171Y-90925582D01*
X125790514Y-90810858D01*
X125692941Y-90713285D01*
X125578217Y-90636628D01*
X125578206Y-90636622D01*
X125450728Y-90583820D01*
X125315395Y-90556900D01*
X125315393Y-90556900D01*
X125177407Y-90556900D01*
X125177404Y-90556900D01*
X125042072Y-90583820D01*
X125042070Y-90583820D01*
X124914593Y-90636622D01*
X124914582Y-90636628D01*
X124799858Y-90713285D01*
X124702285Y-90810858D01*
X124625628Y-90925582D01*
X124625622Y-90925593D01*
X124572820Y-91053070D01*
X124572820Y-91053072D01*
X124545900Y-91188404D01*
X121157677Y-91188404D01*
X121209411Y-91166975D01*
X121209413Y-91166973D01*
X121209418Y-91166971D01*
X121255692Y-91136050D01*
X121324142Y-91090314D01*
X121421714Y-90992742D01*
X121498375Y-90878011D01*
X121551180Y-90750528D01*
X121578100Y-90615193D01*
X121578100Y-90477207D01*
X121551180Y-90341872D01*
X121533578Y-90299377D01*
X121498377Y-90214393D01*
X121498371Y-90214382D01*
X121421714Y-90099658D01*
X121324141Y-90002085D01*
X121209417Y-89925428D01*
X121209406Y-89925422D01*
X121081927Y-89872619D01*
X121081922Y-89872618D01*
X121062308Y-89868716D01*
X121061836Y-89868621D01*
X121058884Y-89868018D01*
X120943492Y-89837100D01*
X120907327Y-89837100D01*
X120897533Y-89835102D01*
X120879186Y-89824709D01*
X120859131Y-89818193D01*
X120847318Y-89808104D01*
X117178718Y-86139504D01*
X117150941Y-86084987D01*
X117160512Y-86024555D01*
X117203777Y-85981290D01*
X117248722Y-85970500D01*
X121571678Y-85970500D01*
X121629869Y-85989407D01*
X121641682Y-85999496D01*
X121820504Y-86178318D01*
X121848281Y-86232835D01*
X121849500Y-86248322D01*
X121849500Y-86268995D01*
X121876420Y-86404327D01*
X121876420Y-86404329D01*
X121929222Y-86531806D01*
X121929228Y-86531817D01*
X122005885Y-86646541D01*
X122103458Y-86744114D01*
X122218182Y-86820771D01*
X122218193Y-86820777D01*
X122265283Y-86840282D01*
X122345672Y-86873580D01*
X122481007Y-86900500D01*
X122481008Y-86900500D01*
X122618992Y-86900500D01*
X122618993Y-86900500D01*
X122754328Y-86873580D01*
X122881811Y-86820775D01*
X122996542Y-86744114D01*
X123094114Y-86646542D01*
X123170775Y-86531811D01*
X123223580Y-86404328D01*
X123250500Y-86268993D01*
X123250500Y-86131007D01*
X123223580Y-85995672D01*
X123170775Y-85868189D01*
X123170774Y-85868187D01*
X123170771Y-85868182D01*
X123094114Y-85753458D01*
X122996545Y-85655889D01*
X122996542Y-85655886D01*
X122945915Y-85622058D01*
X122908037Y-85574009D01*
X122905635Y-85512871D01*
X122930913Y-85469742D01*
X123014114Y-85386542D01*
X123090775Y-85271811D01*
X123143580Y-85144328D01*
X123170500Y-85008993D01*
X123170500Y-84871007D01*
X123143580Y-84735672D01*
X123090775Y-84608189D01*
X123090774Y-84608187D01*
X123090771Y-84608182D01*
X123014114Y-84493458D01*
X122916545Y-84395889D01*
X122916542Y-84395886D01*
X122889317Y-84377694D01*
X122851440Y-84329645D01*
X122849038Y-84268507D01*
X122883032Y-84217634D01*
X122889288Y-84213087D01*
X122936542Y-84181514D01*
X123034114Y-84083942D01*
X123110775Y-83969211D01*
X123163580Y-83841728D01*
X123190500Y-83706393D01*
X123190500Y-83568407D01*
X123163580Y-83433072D01*
X123110775Y-83305589D01*
X123110774Y-83305587D01*
X123110771Y-83305582D01*
X123034114Y-83190858D01*
X122936541Y-83093285D01*
X122821817Y-83016628D01*
X122821806Y-83016622D01*
X122694328Y-82963820D01*
X122558995Y-82936900D01*
X122558993Y-82936900D01*
X122538322Y-82936900D01*
X122480131Y-82917993D01*
X122468318Y-82907904D01*
X121871418Y-82311004D01*
X124779500Y-82311004D01*
X124779500Y-82448995D01*
X124806420Y-82584327D01*
X124806420Y-82584329D01*
X124859222Y-82711806D01*
X124859228Y-82711817D01*
X124935885Y-82826541D01*
X125033458Y-82924114D01*
X125148182Y-83000771D01*
X125148193Y-83000777D01*
X125186447Y-83016622D01*
X125275672Y-83053580D01*
X125411007Y-83080500D01*
X125431678Y-83080500D01*
X125489869Y-83099407D01*
X125501681Y-83109496D01*
X125772685Y-83380499D01*
X125772690Y-83380503D01*
X125886810Y-83446390D01*
X125886808Y-83446390D01*
X125886812Y-83446391D01*
X125886814Y-83446392D01*
X126014107Y-83480500D01*
X126014108Y-83480500D01*
X134483216Y-83480500D01*
X134541407Y-83499407D01*
X134565529Y-83524496D01*
X134627861Y-83617782D01*
X134767218Y-83757139D01*
X134868694Y-83824943D01*
X134892774Y-83841033D01*
X134930653Y-83889083D01*
X134933055Y-83950221D01*
X134899062Y-84001095D01*
X134882717Y-84011557D01*
X134828485Y-84039189D01*
X134828471Y-84039197D01*
X134688403Y-84140962D01*
X134565962Y-84263403D01*
X134464197Y-84403471D01*
X134464195Y-84403475D01*
X134385588Y-84557751D01*
X134332086Y-84722413D01*
X134330886Y-84730000D01*
X135399670Y-84730000D01*
X135379925Y-84749745D01*
X135330556Y-84835255D01*
X135305000Y-84930630D01*
X135305000Y-85029370D01*
X135330556Y-85124745D01*
X135379925Y-85210255D01*
X135399670Y-85230000D01*
X134330886Y-85230000D01*
X134332086Y-85237586D01*
X134385588Y-85402248D01*
X134464195Y-85556524D01*
X134464197Y-85556528D01*
X134565962Y-85696596D01*
X134688403Y-85819037D01*
X134828471Y-85920802D01*
X134828475Y-85920804D01*
X134982751Y-85999411D01*
X135147420Y-86052915D01*
X135318425Y-86080000D01*
X135429999Y-86080000D01*
X135430000Y-86079999D01*
X135430000Y-85260330D01*
X135449745Y-85280075D01*
X135535255Y-85329444D01*
X135630630Y-85355000D01*
X135729370Y-85355000D01*
X135824745Y-85329444D01*
X135910255Y-85280075D01*
X135930000Y-85260330D01*
X135930000Y-86079999D01*
X135930001Y-86080000D01*
X136041575Y-86080000D01*
X136212579Y-86052915D01*
X136377248Y-85999411D01*
X136531524Y-85920804D01*
X136531528Y-85920802D01*
X136671596Y-85819037D01*
X136794037Y-85696596D01*
X136895802Y-85556528D01*
X136895804Y-85556524D01*
X136974411Y-85402248D01*
X137027913Y-85237586D01*
X137029114Y-85230000D01*
X135960330Y-85230000D01*
X135980075Y-85210255D01*
X136029444Y-85124745D01*
X136055000Y-85029370D01*
X136055000Y-84930630D01*
X136029444Y-84835255D01*
X135980075Y-84749745D01*
X135960330Y-84730000D01*
X137029114Y-84730000D01*
X137027913Y-84722413D01*
X136974411Y-84557751D01*
X136895804Y-84403475D01*
X136895802Y-84403471D01*
X136794037Y-84263403D01*
X136671596Y-84140962D01*
X136531528Y-84039197D01*
X136531524Y-84039195D01*
X136477282Y-84011558D01*
X136434017Y-83968293D01*
X136424446Y-83907861D01*
X136452223Y-83853345D01*
X136467226Y-83841033D01*
X136518752Y-83806603D01*
X136592782Y-83757139D01*
X136732139Y-83617782D01*
X136841632Y-83453914D01*
X136917051Y-83271835D01*
X136955500Y-83078541D01*
X136955500Y-82881459D01*
X136917051Y-82688165D01*
X136841632Y-82506086D01*
X136732139Y-82342218D01*
X136592782Y-82202861D01*
X136428914Y-82093368D01*
X136428915Y-82093368D01*
X136428913Y-82093367D01*
X136376033Y-82071464D01*
X136329507Y-82031728D01*
X136315223Y-81972233D01*
X136338637Y-81915705D01*
X136376033Y-81888536D01*
X136389696Y-81882876D01*
X136428914Y-81866632D01*
X136592782Y-81757139D01*
X136732139Y-81617782D01*
X136841632Y-81453914D01*
X136917051Y-81271835D01*
X136955500Y-81078541D01*
X136955500Y-80881459D01*
X136917051Y-80688165D01*
X136841632Y-80506086D01*
X136732139Y-80342218D01*
X136592782Y-80202861D01*
X136526309Y-80158445D01*
X136478415Y-80126443D01*
X136440536Y-80078393D01*
X136438134Y-80017255D01*
X136472127Y-79966381D01*
X136505793Y-79949060D01*
X136565398Y-79931744D01*
X136706865Y-79848081D01*
X136823081Y-79731865D01*
X136906744Y-79590398D01*
X136952598Y-79432569D01*
X136955500Y-79395694D01*
X136955500Y-78564306D01*
X136952598Y-78527431D01*
X136906744Y-78369602D01*
X136823081Y-78228135D01*
X136706865Y-78111919D01*
X136565398Y-78028256D01*
X136407569Y-77982402D01*
X136407568Y-77982401D01*
X136407565Y-77982401D01*
X136384140Y-77980558D01*
X136370694Y-77979500D01*
X134989306Y-77979500D01*
X134976773Y-77980486D01*
X134952434Y-77982401D01*
X134952427Y-77982403D01*
X134794602Y-78028256D01*
X134653136Y-78111918D01*
X134536918Y-78228136D01*
X134453256Y-78369602D01*
X134407403Y-78527427D01*
X134407401Y-78527434D01*
X134404500Y-78564311D01*
X134404500Y-79395688D01*
X134407401Y-79432565D01*
X134407401Y-79432568D01*
X134407402Y-79432569D01*
X134453256Y-79590398D01*
X134536919Y-79731865D01*
X134653135Y-79848081D01*
X134794602Y-79931744D01*
X134854203Y-79949059D01*
X134904807Y-79983450D01*
X134925533Y-80041018D01*
X134908463Y-80099774D01*
X134881584Y-80126443D01*
X134767218Y-80202860D01*
X134627864Y-80342214D01*
X134627861Y-80342218D01*
X134589587Y-80399500D01*
X134565531Y-80435502D01*
X134517481Y-80473381D01*
X134483216Y-80479500D01*
X125882168Y-80479500D01*
X125844283Y-80471964D01*
X125734328Y-80426420D01*
X125598995Y-80399500D01*
X125598993Y-80399500D01*
X125461007Y-80399500D01*
X125461004Y-80399500D01*
X125325672Y-80426420D01*
X125325670Y-80426420D01*
X125198193Y-80479222D01*
X125198182Y-80479228D01*
X125083458Y-80555885D01*
X124985885Y-80653458D01*
X124909228Y-80768182D01*
X124909222Y-80768193D01*
X124856420Y-80895670D01*
X124856420Y-80895672D01*
X124829500Y-81031004D01*
X124829500Y-81168995D01*
X124835873Y-81201033D01*
X124849956Y-81271834D01*
X124856420Y-81304327D01*
X124856420Y-81304329D01*
X124909222Y-81431806D01*
X124909228Y-81431817D01*
X124985885Y-81546541D01*
X125083458Y-81644114D01*
X125086628Y-81646715D01*
X125119622Y-81698242D01*
X125116028Y-81759322D01*
X125078835Y-81805565D01*
X125037354Y-81833283D01*
X125033458Y-81835886D01*
X125033454Y-81835889D01*
X124935885Y-81933458D01*
X124859228Y-82048182D01*
X124859222Y-82048193D01*
X124806420Y-82175670D01*
X124806420Y-82175672D01*
X124779500Y-82311004D01*
X121871418Y-82311004D01*
X119540618Y-79980204D01*
X119512841Y-79925687D01*
X119522412Y-79865255D01*
X119540618Y-79840196D01*
X121501318Y-77879496D01*
X121508435Y-77875869D01*
X121513131Y-77869407D01*
X121535179Y-77862243D01*
X121555835Y-77851719D01*
X121571322Y-77850500D01*
X121718836Y-77850500D01*
X121777027Y-77869407D01*
X121788840Y-77879496D01*
X121803458Y-77894114D01*
X121918182Y-77970771D01*
X121918193Y-77970777D01*
X121965283Y-77990282D01*
X122045672Y-78023580D01*
X122181007Y-78050500D01*
X122181008Y-78050500D01*
X122318992Y-78050500D01*
X122318993Y-78050500D01*
X122454328Y-78023580D01*
X122581811Y-77970775D01*
X122696542Y-77894114D01*
X122794114Y-77796542D01*
X122870775Y-77681811D01*
X122923580Y-77554328D01*
X122950500Y-77418993D01*
X122950500Y-77281007D01*
X122923580Y-77145672D01*
X122870775Y-77018189D01*
X122870774Y-77018187D01*
X122870771Y-77018182D01*
X122794114Y-76903458D01*
X122696541Y-76805885D01*
X122661333Y-76782360D01*
X122623454Y-76734310D01*
X122621052Y-76673171D01*
X122655046Y-76622298D01*
X122661314Y-76617742D01*
X122756542Y-76554114D01*
X122854114Y-76456542D01*
X122930775Y-76341811D01*
X122983580Y-76214328D01*
X123010500Y-76078993D01*
X123010500Y-75941007D01*
X122983580Y-75805672D01*
X122940728Y-75702218D01*
X122930777Y-75678193D01*
X122930771Y-75678182D01*
X122854114Y-75563458D01*
X122756541Y-75465885D01*
X122641817Y-75389228D01*
X122641806Y-75389222D01*
X122514328Y-75336420D01*
X122378995Y-75309500D01*
X122378993Y-75309500D01*
X122241007Y-75309500D01*
X122241004Y-75309500D01*
X122105672Y-75336420D01*
X122105670Y-75336420D01*
X121978193Y-75389222D01*
X121978182Y-75389228D01*
X121863458Y-75465885D01*
X121863454Y-75465889D01*
X121848840Y-75480504D01*
X121794323Y-75508281D01*
X121778836Y-75509500D01*
X121155892Y-75509500D01*
X121024108Y-75509500D01*
X120946200Y-75530375D01*
X120896809Y-75543609D01*
X120782690Y-75609496D01*
X117957882Y-78434304D01*
X117903365Y-78462081D01*
X117887878Y-78463300D01*
X105443909Y-78463300D01*
X105385718Y-78444393D01*
X105349754Y-78394893D01*
X105349754Y-78333707D01*
X105352445Y-78326415D01*
X105365544Y-78294787D01*
X105379280Y-78261628D01*
X105406200Y-78126293D01*
X105406200Y-77988307D01*
X105379280Y-77852972D01*
X105340481Y-77759303D01*
X105326477Y-77725493D01*
X105326471Y-77725482D01*
X105249814Y-77610758D01*
X105152241Y-77513185D01*
X105037517Y-77436528D01*
X105037506Y-77436522D01*
X104910028Y-77383720D01*
X104774695Y-77356800D01*
X104774693Y-77356800D01*
X104636707Y-77356800D01*
X104636704Y-77356800D01*
X104501372Y-77383720D01*
X104501370Y-77383720D01*
X104373893Y-77436522D01*
X104373882Y-77436528D01*
X104259158Y-77513185D01*
X104259154Y-77513189D01*
X104244540Y-77527804D01*
X104190023Y-77555581D01*
X104174536Y-77556800D01*
X100758593Y-77556800D01*
X100626808Y-77556800D01*
X100548900Y-77577675D01*
X100499509Y-77590909D01*
X100385390Y-77656796D01*
X99092686Y-78949500D01*
X99092685Y-78949499D01*
X98999500Y-79042685D01*
X98999496Y-79042690D01*
X98933609Y-79156809D01*
X98899500Y-79284109D01*
X98899500Y-86524550D01*
X98893546Y-86542873D01*
X98892109Y-86562083D01*
X98884317Y-86571276D01*
X98880593Y-86582741D01*
X98865006Y-86594065D01*
X98852552Y-86608762D01*
X98842206Y-86610630D01*
X98831093Y-86618705D01*
X98793113Y-86623274D01*
X98787089Y-86622823D01*
X98772393Y-86619900D01*
X98748023Y-86619900D01*
X98744335Y-86619624D01*
X98719285Y-86609361D01*
X98693531Y-86600993D01*
X98688616Y-86596795D01*
X98687717Y-86596427D01*
X98687193Y-86595580D01*
X98681718Y-86590904D01*
X94279496Y-82188682D01*
X94251719Y-82134165D01*
X94250500Y-82118678D01*
X94250500Y-81054509D01*
X94250500Y-81054508D01*
X94216392Y-80927214D01*
X94216390Y-80927211D01*
X94216390Y-80927209D01*
X94150503Y-80813090D01*
X94150499Y-80813085D01*
X94057314Y-80719899D01*
X94057314Y-80719900D01*
X92701896Y-79364482D01*
X92674119Y-79309965D01*
X92672900Y-79294478D01*
X92672900Y-79273808D01*
X92672899Y-79273804D01*
X92663516Y-79226632D01*
X92645980Y-79138472D01*
X92609607Y-79050660D01*
X92593177Y-79010993D01*
X92593171Y-79010982D01*
X92516514Y-78896258D01*
X92418941Y-78798685D01*
X92304217Y-78722028D01*
X92304206Y-78722022D01*
X92176728Y-78669220D01*
X92041395Y-78642300D01*
X92041393Y-78642300D01*
X91903407Y-78642300D01*
X91903404Y-78642300D01*
X91768072Y-78669220D01*
X91768070Y-78669220D01*
X91640593Y-78722022D01*
X91640582Y-78722028D01*
X91525858Y-78798685D01*
X91428285Y-78896258D01*
X91351628Y-79010982D01*
X91351622Y-79010993D01*
X91298820Y-79138470D01*
X91298820Y-79138472D01*
X91271900Y-79273804D01*
X72630977Y-79273804D01*
X72656398Y-79253150D01*
X72661086Y-79250584D01*
X72718914Y-79226632D01*
X72882782Y-79117139D01*
X73022139Y-78977782D01*
X73131632Y-78813914D01*
X73207051Y-78631835D01*
X73245500Y-78438541D01*
X73245500Y-78241459D01*
X73207051Y-78048165D01*
X73131632Y-77866086D01*
X73022139Y-77702218D01*
X72882782Y-77562861D01*
X72718914Y-77453368D01*
X72718915Y-77453368D01*
X72718913Y-77453367D01*
X72666033Y-77431464D01*
X72619507Y-77391728D01*
X72605223Y-77332233D01*
X72628637Y-77275705D01*
X72666033Y-77248536D01*
X72679696Y-77242876D01*
X72718914Y-77226632D01*
X72882782Y-77117139D01*
X73022139Y-76977782D01*
X73131632Y-76813914D01*
X73207051Y-76631835D01*
X73245500Y-76438541D01*
X73245500Y-76241459D01*
X73207051Y-76048165D01*
X73131632Y-75866086D01*
X73022139Y-75702218D01*
X72882782Y-75562861D01*
X72718914Y-75453368D01*
X72718915Y-75453368D01*
X72718913Y-75453367D01*
X72666033Y-75431464D01*
X72619507Y-75391728D01*
X72605223Y-75332233D01*
X72628637Y-75275705D01*
X72666033Y-75248536D01*
X72679696Y-75242876D01*
X72718914Y-75226632D01*
X72882782Y-75117139D01*
X73022139Y-74977782D01*
X73131632Y-74813914D01*
X73207051Y-74631835D01*
X73245500Y-74438541D01*
X73245500Y-74241459D01*
X73207051Y-74048165D01*
X73131632Y-73866086D01*
X73022139Y-73702218D01*
X72882782Y-73562861D01*
X72788038Y-73499555D01*
X72768415Y-73486443D01*
X72730536Y-73438393D01*
X72728134Y-73377255D01*
X72762127Y-73326381D01*
X72795793Y-73309060D01*
X72855398Y-73291744D01*
X72996865Y-73208081D01*
X73113081Y-73091865D01*
X73196744Y-72950398D01*
X73242598Y-72792569D01*
X73245500Y-72755694D01*
X73245500Y-71924306D01*
X73242598Y-71887431D01*
X73196744Y-71729602D01*
X73113081Y-71588135D01*
X72996865Y-71471919D01*
X72855398Y-71388256D01*
X72697569Y-71342402D01*
X72697568Y-71342401D01*
X72697565Y-71342401D01*
X72674140Y-71340558D01*
X72660694Y-71339500D01*
X71279306Y-71339500D01*
X71266773Y-71340486D01*
X71242434Y-71342401D01*
X71242427Y-71342403D01*
X71084602Y-71388256D01*
X70943136Y-71471918D01*
X70826918Y-71588136D01*
X70743256Y-71729602D01*
X70697403Y-71887427D01*
X70697401Y-71887434D01*
X70694500Y-71924311D01*
X70694500Y-72755688D01*
X70697401Y-72792565D01*
X70697401Y-72792568D01*
X70697402Y-72792569D01*
X70743256Y-72950398D01*
X70826919Y-73091865D01*
X70943135Y-73208081D01*
X71084602Y-73291744D01*
X71144203Y-73309059D01*
X71194807Y-73343450D01*
X71215533Y-73401018D01*
X71198463Y-73459774D01*
X71171584Y-73486443D01*
X71057218Y-73562860D01*
X70917864Y-73702214D01*
X70917861Y-73702218D01*
X70808367Y-73866086D01*
X70732949Y-74048163D01*
X70732949Y-74048165D01*
X70694500Y-74241456D01*
X70694500Y-74438543D01*
X70732949Y-74631834D01*
X70732949Y-74631836D01*
X70808367Y-74813913D01*
X70808368Y-74813914D01*
X70917861Y-74977782D01*
X71057218Y-75117139D01*
X71221086Y-75226632D01*
X71263514Y-75244206D01*
X71273967Y-75248536D01*
X71320492Y-75288273D01*
X71334776Y-75347767D01*
X71311361Y-75404295D01*
X71273967Y-75431464D01*
X71221085Y-75453368D01*
X71057218Y-75562861D01*
X71057214Y-75562864D01*
X70917864Y-75702214D01*
X70917861Y-75702218D01*
X70808367Y-75866086D01*
X70732949Y-76048163D01*
X70732949Y-76048165D01*
X70694500Y-76241456D01*
X70694500Y-76438543D01*
X70712927Y-76531177D01*
X70731726Y-76625689D01*
X70732949Y-76631834D01*
X70732949Y-76631836D01*
X70808367Y-76813913D01*
X70808368Y-76813914D01*
X70917861Y-76977782D01*
X71057218Y-77117139D01*
X71221086Y-77226632D01*
X71263514Y-77244206D01*
X71273967Y-77248536D01*
X71320492Y-77288273D01*
X71334776Y-77347767D01*
X71311361Y-77404295D01*
X71273967Y-77431464D01*
X71221085Y-77453368D01*
X71057218Y-77562861D01*
X71057214Y-77562864D01*
X70917864Y-77702214D01*
X70917861Y-77702218D01*
X70808367Y-77866086D01*
X70732949Y-78048163D01*
X70732949Y-78048165D01*
X70694500Y-78241456D01*
X70694500Y-78438543D01*
X70732949Y-78631834D01*
X70732949Y-78631836D01*
X70808367Y-78813913D01*
X70808368Y-78813914D01*
X70917861Y-78977782D01*
X71057218Y-79117139D01*
X71221086Y-79226632D01*
X71263514Y-79244206D01*
X71273967Y-79248536D01*
X71320492Y-79288273D01*
X71334776Y-79347767D01*
X71311361Y-79404295D01*
X71273967Y-79431464D01*
X71221085Y-79453368D01*
X71057218Y-79562861D01*
X71057214Y-79562864D01*
X70917864Y-79702214D01*
X70917861Y-79702218D01*
X70808367Y-79866086D01*
X70732949Y-80048163D01*
X70732949Y-80048165D01*
X70694500Y-80241456D01*
X70694500Y-80438543D01*
X70732949Y-80631834D01*
X70732949Y-80631836D01*
X70808367Y-80813913D01*
X70844699Y-80868288D01*
X70917861Y-80977782D01*
X71057218Y-81117139D01*
X71114929Y-81155700D01*
X71182774Y-81201033D01*
X71220653Y-81249083D01*
X71223055Y-81310221D01*
X71189062Y-81361095D01*
X71172717Y-81371557D01*
X71118485Y-81399189D01*
X71118471Y-81399197D01*
X70978403Y-81500962D01*
X70855962Y-81623403D01*
X70754197Y-81763471D01*
X70754195Y-81763475D01*
X70675588Y-81917751D01*
X70622086Y-82082413D01*
X70620886Y-82090000D01*
X58500500Y-82090000D01*
X58500500Y-72832946D01*
X60599500Y-72832946D01*
X60599500Y-73167053D01*
X60632248Y-73499555D01*
X60697431Y-73827253D01*
X60794414Y-74146967D01*
X60922273Y-74455645D01*
X60922286Y-74455672D01*
X61079773Y-74750312D01*
X61218993Y-74958667D01*
X61265399Y-75028118D01*
X61477357Y-75286390D01*
X61713610Y-75522643D01*
X61971882Y-75734601D01*
X62078244Y-75805670D01*
X62249687Y-75920226D01*
X62544327Y-76077713D01*
X62544346Y-76077723D01*
X62853024Y-76205582D01*
X62853026Y-76205582D01*
X62853032Y-76205585D01*
X63129376Y-76289412D01*
X63172749Y-76302569D01*
X63500441Y-76367751D01*
X63832944Y-76400500D01*
X63832947Y-76400500D01*
X64167053Y-76400500D01*
X64167056Y-76400500D01*
X64499559Y-76367751D01*
X64827251Y-76302569D01*
X65016857Y-76245052D01*
X65146967Y-76205585D01*
X65146969Y-76205583D01*
X65146976Y-76205582D01*
X65455654Y-76077723D01*
X65711433Y-75941007D01*
X65750312Y-75920226D01*
X65750315Y-75920224D01*
X66028118Y-75734601D01*
X66286390Y-75522643D01*
X66522643Y-75286390D01*
X66734601Y-75028118D01*
X66920224Y-74750315D01*
X67077723Y-74455654D01*
X67205582Y-74146976D01*
X67235557Y-74048163D01*
X67245052Y-74016857D01*
X67302569Y-73827251D01*
X67367751Y-73499559D01*
X67400500Y-73167056D01*
X67400500Y-72832944D01*
X67367751Y-72500441D01*
X67302569Y-72172749D01*
X67250784Y-72002035D01*
X67205585Y-71853032D01*
X67154459Y-71729602D01*
X67077723Y-71544346D01*
X67068077Y-71526299D01*
X66920226Y-71249687D01*
X66814061Y-71090802D01*
X66734601Y-70971882D01*
X66522643Y-70713610D01*
X66286390Y-70477357D01*
X66273605Y-70466865D01*
X66134593Y-70352781D01*
X66028118Y-70265399D01*
X65921960Y-70194466D01*
X65750312Y-70079773D01*
X65455672Y-69922286D01*
X65455660Y-69922280D01*
X65455654Y-69922277D01*
X65455649Y-69922274D01*
X65455645Y-69922273D01*
X65146967Y-69794414D01*
X64827253Y-69697431D01*
X64606777Y-69653576D01*
X64499559Y-69632249D01*
X64499557Y-69632248D01*
X64256491Y-69608308D01*
X64167056Y-69599500D01*
X63832944Y-69599500D01*
X63734700Y-69609176D01*
X63500444Y-69632248D01*
X63172746Y-69697431D01*
X62853032Y-69794414D01*
X62544354Y-69922273D01*
X62544327Y-69922286D01*
X62249687Y-70079773D01*
X61971880Y-70265400D01*
X61713615Y-70477352D01*
X61477352Y-70713615D01*
X61265400Y-70971880D01*
X61079773Y-71249687D01*
X60922286Y-71544327D01*
X60922273Y-71544354D01*
X60794414Y-71853032D01*
X60697431Y-72172746D01*
X60632248Y-72500444D01*
X60599500Y-72832946D01*
X58500500Y-72832946D01*
X58500500Y-72002035D01*
X58500585Y-71997944D01*
X58503225Y-71934108D01*
X58519115Y-71549940D01*
X58519787Y-71541812D01*
X58575002Y-71098854D01*
X58576342Y-71090820D01*
X58667946Y-70653940D01*
X58669947Y-70646040D01*
X58797312Y-70218228D01*
X58799955Y-70210527D01*
X58962230Y-69794655D01*
X58965489Y-69787226D01*
X59161540Y-69386195D01*
X59165431Y-69379007D01*
X59393911Y-68995569D01*
X59398373Y-68988738D01*
X59569321Y-68749311D01*
X76809500Y-68749311D01*
X76809500Y-70130688D01*
X76812401Y-70167565D01*
X76812401Y-70167568D01*
X76812402Y-70167569D01*
X76858256Y-70325398D01*
X76941919Y-70466865D01*
X77058135Y-70583081D01*
X77199602Y-70666744D01*
X77357431Y-70712598D01*
X77394306Y-70715500D01*
X77394311Y-70715500D01*
X78225689Y-70715500D01*
X78225694Y-70715500D01*
X78262569Y-70712598D01*
X78420398Y-70666744D01*
X78561865Y-70583081D01*
X78678081Y-70466865D01*
X78761744Y-70325398D01*
X78779060Y-70265794D01*
X78813450Y-70215192D01*
X78871018Y-70194466D01*
X78929774Y-70211536D01*
X78956443Y-70238415D01*
X78988445Y-70286309D01*
X79032861Y-70352782D01*
X79172218Y-70492139D01*
X79336086Y-70601632D01*
X79518165Y-70677051D01*
X79711459Y-70715500D01*
X79711460Y-70715500D01*
X79908540Y-70715500D01*
X79908541Y-70715500D01*
X80101835Y-70677051D01*
X80283914Y-70601632D01*
X80447782Y-70492139D01*
X80587139Y-70352782D01*
X80696632Y-70188914D01*
X80718536Y-70136033D01*
X80758272Y-70089507D01*
X80817767Y-70075223D01*
X80874295Y-70098637D01*
X80901464Y-70136033D01*
X80923367Y-70188913D01*
X80940340Y-70214315D01*
X81032861Y-70352782D01*
X81172218Y-70492139D01*
X81172223Y-70492142D01*
X81173288Y-70493016D01*
X81173631Y-70493552D01*
X81175657Y-70495578D01*
X81175213Y-70496021D01*
X81206287Y-70544540D01*
X81209500Y-70569558D01*
X81209500Y-71513264D01*
X81206126Y-71538887D01*
X81189499Y-71600943D01*
X81189499Y-71759057D01*
X81230423Y-71911785D01*
X81230424Y-71911787D01*
X81230425Y-71911790D01*
X81309477Y-72048711D01*
X81309478Y-72048712D01*
X81309479Y-72048713D01*
X81309481Y-72048716D01*
X87622278Y-78361513D01*
X87622280Y-78361516D01*
X87734084Y-78473320D01*
X87834371Y-78531220D01*
X87854874Y-78546952D01*
X87922511Y-78614589D01*
X87975289Y-78649854D01*
X88053614Y-78702190D01*
X88053625Y-78702196D01*
X88101490Y-78722022D01*
X88199303Y-78762537D01*
X88353958Y-78793300D01*
X88353959Y-78793300D01*
X88511641Y-78793300D01*
X88511642Y-78793300D01*
X88666297Y-78762537D01*
X88811979Y-78702194D01*
X88943089Y-78614589D01*
X89054589Y-78503089D01*
X89142194Y-78371979D01*
X89202537Y-78226297D01*
X89233300Y-78071642D01*
X89233300Y-77913958D01*
X89202537Y-77759303D01*
X89178890Y-77702214D01*
X89142196Y-77613625D01*
X89142190Y-77613614D01*
X89102575Y-77554327D01*
X89054589Y-77482511D01*
X88943089Y-77371011D01*
X88885054Y-77332233D01*
X88811985Y-77283409D01*
X88811974Y-77283403D01*
X88666297Y-77223063D01*
X88511644Y-77192300D01*
X88511642Y-77192300D01*
X88353958Y-77192300D01*
X88353954Y-77192300D01*
X88237019Y-77215560D01*
X88176257Y-77208368D01*
X88147701Y-77188466D01*
X82439496Y-71480261D01*
X82411719Y-71425744D01*
X82410500Y-71410257D01*
X82410500Y-70569558D01*
X82429407Y-70511367D01*
X82446712Y-70493016D01*
X82447770Y-70492146D01*
X82447782Y-70492139D01*
X82587139Y-70352782D01*
X82696632Y-70188914D01*
X82718536Y-70136033D01*
X82758272Y-70089507D01*
X82817767Y-70075223D01*
X82874295Y-70098637D01*
X82901464Y-70136033D01*
X82923367Y-70188913D01*
X82940340Y-70214315D01*
X83032861Y-70352782D01*
X83172218Y-70492139D01*
X83336086Y-70601632D01*
X83518165Y-70677051D01*
X83711459Y-70715500D01*
X83711460Y-70715500D01*
X83908540Y-70715500D01*
X83908541Y-70715500D01*
X84101835Y-70677051D01*
X84283914Y-70601632D01*
X84447782Y-70492139D01*
X84587139Y-70352782D01*
X84696632Y-70188914D01*
X84718536Y-70136033D01*
X84758272Y-70089507D01*
X84817767Y-70075223D01*
X84874295Y-70098637D01*
X84901464Y-70136033D01*
X84923367Y-70188913D01*
X84940340Y-70214315D01*
X85032861Y-70352782D01*
X85172218Y-70492139D01*
X85336086Y-70601632D01*
X85518165Y-70677051D01*
X85711459Y-70715500D01*
X85711460Y-70715500D01*
X85908540Y-70715500D01*
X85908541Y-70715500D01*
X86101835Y-70677051D01*
X86283914Y-70601632D01*
X86447782Y-70492139D01*
X86587139Y-70352782D01*
X86636603Y-70278752D01*
X86671033Y-70227226D01*
X86719082Y-70189346D01*
X86780221Y-70186944D01*
X86831094Y-70220937D01*
X86841558Y-70237282D01*
X86869195Y-70291524D01*
X86869197Y-70291528D01*
X86970962Y-70431596D01*
X87093403Y-70554037D01*
X87233471Y-70655802D01*
X87233475Y-70655804D01*
X87387751Y-70734411D01*
X87552413Y-70787913D01*
X87560000Y-70789114D01*
X87560000Y-69720330D01*
X87579745Y-69740075D01*
X87665255Y-69789444D01*
X87760630Y-69815000D01*
X87859370Y-69815000D01*
X87954745Y-69789444D01*
X88040255Y-69740075D01*
X88060000Y-69720330D01*
X88060000Y-70789114D01*
X88067586Y-70787913D01*
X88232248Y-70734411D01*
X88386524Y-70655804D01*
X88386528Y-70655802D01*
X88526596Y-70554037D01*
X88649037Y-70431596D01*
X88750802Y-70291528D01*
X88750804Y-70291524D01*
X88829411Y-70137248D01*
X88882915Y-69972579D01*
X88910000Y-69801575D01*
X88910000Y-69690001D01*
X88909999Y-69690000D01*
X88090330Y-69690000D01*
X88110075Y-69670255D01*
X88159444Y-69584745D01*
X88185000Y-69489370D01*
X88185000Y-69390630D01*
X88159444Y-69295255D01*
X88110075Y-69209745D01*
X88090330Y-69190000D01*
X88909999Y-69190000D01*
X88910000Y-69189999D01*
X88910000Y-69078424D01*
X88882915Y-68907420D01*
X88829411Y-68742751D01*
X88750804Y-68588475D01*
X88750802Y-68588471D01*
X88649037Y-68448403D01*
X88526596Y-68325962D01*
X88386528Y-68224197D01*
X88386524Y-68224195D01*
X88232248Y-68145588D01*
X88067586Y-68092086D01*
X88060000Y-68090884D01*
X88060000Y-69159670D01*
X88040255Y-69139925D01*
X87954745Y-69090556D01*
X87859370Y-69065000D01*
X87760630Y-69065000D01*
X87665255Y-69090556D01*
X87579745Y-69139925D01*
X87560000Y-69159670D01*
X87560000Y-68090884D01*
X87552413Y-68092086D01*
X87387751Y-68145588D01*
X87233475Y-68224195D01*
X87233471Y-68224197D01*
X87093403Y-68325962D01*
X86970962Y-68448403D01*
X86869197Y-68588471D01*
X86869189Y-68588485D01*
X86841557Y-68642717D01*
X86798293Y-68685982D01*
X86737861Y-68695553D01*
X86683344Y-68667775D01*
X86671033Y-68652774D01*
X86628076Y-68588485D01*
X86587139Y-68527218D01*
X86447782Y-68387861D01*
X86311676Y-68296918D01*
X86283913Y-68278367D01*
X86101835Y-68202949D01*
X85908543Y-68164500D01*
X85908541Y-68164500D01*
X85711459Y-68164500D01*
X85711456Y-68164500D01*
X85518165Y-68202949D01*
X85518163Y-68202949D01*
X85336086Y-68278367D01*
X85172218Y-68387861D01*
X85172214Y-68387864D01*
X85032864Y-68527214D01*
X85032861Y-68527218D01*
X84923368Y-68691085D01*
X84901464Y-68743967D01*
X84861727Y-68790492D01*
X84802233Y-68804776D01*
X84745705Y-68781361D01*
X84718536Y-68743967D01*
X84714206Y-68733514D01*
X84696632Y-68691086D01*
X84587139Y-68527218D01*
X84447782Y-68387861D01*
X84311676Y-68296918D01*
X84283913Y-68278367D01*
X84101835Y-68202949D01*
X83908543Y-68164500D01*
X83908541Y-68164500D01*
X83711459Y-68164500D01*
X83711456Y-68164500D01*
X83518165Y-68202949D01*
X83518163Y-68202949D01*
X83336086Y-68278367D01*
X83172218Y-68387861D01*
X83172214Y-68387864D01*
X83032864Y-68527214D01*
X83032861Y-68527218D01*
X82923368Y-68691085D01*
X82901464Y-68743967D01*
X82861727Y-68790492D01*
X82802233Y-68804776D01*
X82745705Y-68781361D01*
X82718536Y-68743967D01*
X82714206Y-68733514D01*
X82696632Y-68691086D01*
X82587139Y-68527218D01*
X82447782Y-68387861D01*
X82311676Y-68296918D01*
X82283913Y-68278367D01*
X82101835Y-68202949D01*
X81908543Y-68164500D01*
X81908541Y-68164500D01*
X81711459Y-68164500D01*
X81711456Y-68164500D01*
X81518165Y-68202949D01*
X81518163Y-68202949D01*
X81336086Y-68278367D01*
X81172218Y-68387861D01*
X81172214Y-68387864D01*
X81032864Y-68527214D01*
X81032861Y-68527218D01*
X80923368Y-68691085D01*
X80901464Y-68743967D01*
X80861727Y-68790492D01*
X80802233Y-68804776D01*
X80745705Y-68781361D01*
X80718536Y-68743967D01*
X80714206Y-68733514D01*
X80696632Y-68691086D01*
X80587139Y-68527218D01*
X80447782Y-68387861D01*
X80311676Y-68296918D01*
X80283913Y-68278367D01*
X80101835Y-68202949D01*
X79908543Y-68164500D01*
X79908541Y-68164500D01*
X79711459Y-68164500D01*
X79711456Y-68164500D01*
X79518165Y-68202949D01*
X79518163Y-68202949D01*
X79336086Y-68278367D01*
X79172218Y-68387861D01*
X79172214Y-68387864D01*
X79032860Y-68527218D01*
X78956443Y-68641584D01*
X78908393Y-68679463D01*
X78847254Y-68681865D01*
X78796381Y-68647872D01*
X78779060Y-68614204D01*
X78761744Y-68554602D01*
X78678081Y-68413135D01*
X78561865Y-68296919D01*
X78420398Y-68213256D01*
X78262569Y-68167402D01*
X78262568Y-68167401D01*
X78262565Y-68167401D01*
X78239140Y-68165558D01*
X78225694Y-68164500D01*
X77394306Y-68164500D01*
X77381773Y-68165486D01*
X77357434Y-68167401D01*
X77357427Y-68167403D01*
X77199602Y-68213256D01*
X77058136Y-68296918D01*
X76941918Y-68413136D01*
X76858256Y-68554602D01*
X76812403Y-68712427D01*
X76812401Y-68712434D01*
X76809500Y-68749311D01*
X59569321Y-68749311D01*
X59657749Y-68625460D01*
X59662770Y-68619010D01*
X59951245Y-68278407D01*
X59956764Y-68272411D01*
X60272411Y-67956764D01*
X60278407Y-67951245D01*
X60619016Y-67662765D01*
X60625460Y-67657749D01*
X60988738Y-67398373D01*
X60995569Y-67393911D01*
X61379015Y-67165426D01*
X61386195Y-67161540D01*
X61787226Y-66965489D01*
X61794655Y-66962230D01*
X62210527Y-66799955D01*
X62218228Y-66797312D01*
X62646040Y-66669947D01*
X62653940Y-66667946D01*
X63090820Y-66576342D01*
X63098854Y-66575002D01*
X63541812Y-66519787D01*
X63549940Y-66519115D01*
X63997945Y-66500585D01*
X64002036Y-66500500D01*
X64065892Y-66500500D01*
X90901000Y-66500500D01*
X90959191Y-66519407D01*
G37*
%TD.AperFunction*%
%TD*%
M02*
